<svg id="Layer_1" xmlns="http://www.w3.org/2000/svg" viewBox="0 0 41.4 69.7"><style>.st0{fill:#FFFFFF;} .st1{fill:none;}</style><path class="st0" d="M36.1 8.8c.5 0 .9-.4.9-.9l-.1-1.4c0-.5-.4-.8-.9-.8s-.8.4-.8.9V8c0 .4.4.8.9.8"/><path class="st0" d="M32 42.5c-2.7 0-4.8-2.2-4.8-4.8 0-.5-.4-.9-.9-.9s-.9.4-.9.9c0 3.6 2.9 6.5 6.5 6.5.5 0 .9-.4.9-.9.1-.4-.3-.8-.8-.8zM15.8 0H2.9c-.5 0-.8.4-.9.8L0 37.7c0 4.9 3.7 8.9 8.5 9.3v21h-2c-.5 0-.9.4-.9.9s.4.9.9.9h5.7c.5 0 .9-.4.9-.9s-.4-.9-.9-.9h-2V47c4.8-.4 8.5-4.4 8.5-9.4L16.7.7c-.1-.3-.4-.7-.9-.7zM3.7 1.7H15l.7 12.8c-.3.3-.7.6-1.1.7l-.2-4.5c0-.5-.4-.8-.9-.8s-.8.4-.8.9l.3 4.8c-1.1 0-2.2-.4-3-1.2-1.9-1.9-4.7-2.2-6.9-1l.6-11.7zm5.7 43.7c-4.2 0-7.7-3.4-7.7-7.6l1.2-22.1c1.6-1.6 4.2-1.6 5.8 0 1.1 1.1 2.6 1.7 4.1 1.7h.2l.5 9.1c0 .5.4.8.8.8.5 0 .8-.4.8-.9l-.4-9.4c.4-.1.8-.3 1.1-.5L17 37.7c0 4.2-3.4 7.7-7.6 7.7zm32-7.7L39.4.8c0-.5-.4-.8-.8-.8h-13c-.5 0-.8.4-.8.8l-2 36.9c0 4.9 3.7 8.9 8.5 9.3v21h-2c-.5 0-.9.4-.9.9s.4.9.9.9H35c.5 0 .9-.4.9-.9s-.4-.9-.9-.9h-2V47c4.6-.4 8.4-4.4 8.4-9.3zm-15-36h11.3l.7 11.8c-.4-.2-.8-.4-1.2-.5l-.1-2.3c0-.5-.4-.8-.9-.8s-.8.4-.8.9l.1 1.9c-1.5 0-3 .6-4 1.7-1.6 1.6-4.2 1.6-5.8 0l.7-12.7zM32 45.4c-4.2 0-7.7-3.4-7.7-7.6l1.2-21.3c.9.5 1.9.8 3 .8 1.5 0 3-.6 4.1-1.7.8-.8 1.8-1.2 2.9-1.2l.7 12c0 .5.4.8.8.8.5 0 .8-.4.8-.9l-.6-11.5c.4.2.8.5 1.2.8l1.2 22.1c.1 4.2-3.3 7.7-7.6 7.7zM9.4 42.5c-2.7 0-4.8-2.2-4.8-4.8 0-.5-.4-.9-.9-.9s-.9.4-.9.9c0 3.6 2.9 6.5 6.5 6.5.5 0 .9-.4.9-.9 0-.4-.4-.8-.8-.8z"/><path class="st0" d="M13.4 8.8c.5 0 .9-.4.8-.9l-.1-1.4c0-.5-.4-.8-.9-.8s-.8.4-.8.9l.1 1.4c.1.4.4.8.9.8"/><path class="st1" d="M0 0h41.4v69.7H0z"/></svg>