<svg id="Layer_1" xmlns="http://www.w3.org/2000/svg" viewBox="0 0 83.4 82.1"><style>.st0{fill:#FFFFFF;}</style><path class="st0" d="M39 44.9l-16.4 25c-.8 1.3-2.4 2-3.9 1.8l-15.5-2c-.6-.1-1.2.2-1.5.7l-.3.6c-.3.7-.4 1.4-.2 2.2.2 1 .6 1.9 1.2 2.7.6.8 1.3 1.6 2.2 2.2 1 .7 2.1 1.4 3.2 1.8 1.2.5 2.4.8 3.6.9 1 .1 2.1.1 3.1-.1.8-.1 1.6-.5 2.3-.9 2.3-1.4 4.3-3.3 5.8-5.6L40.3 47l.7 1-17.6 26.9c-1.6 2.4-3.7 4.4-6.1 5.9-.8.5-1.7.8-2.7 1-1.1.2-2.3.2-3.4.1-1.3-.2-2.6-.5-3.9-1-1.2-.5-2.4-1.2-3.5-2-.9-.7-1.7-1.5-2.4-2.5-.7-.9-1.1-2-1.3-3.1-.2-.9-.1-1.9.3-2.8.1-.3.2-.5.4-.8.6-.9 1.6-1.4 2.6-1.2l15.5 2c1.1.1 2.2-.4 2.8-1.3l16.6-25.4.7 1.1zM44.4 40.8l16.5-25.2c.6 0 1.2-.4 1.5-.9l6.9-10.5c.6-.9.3-2.1-.6-2.7-.9-.6-2.1-.4-2.7.5l-6.9 10.5c-.3.5-.4 1.2-.2 1.8L43 38.7l-.7-1 15.4-23.6c-.1-.8 0-1.5.5-2.2l6.9-10.5C66 0 67.9-.4 69.3.5c1.4.9 1.8 2.8.9 4.3l-6.9 10.5c-.4.6-1.1 1.1-1.8 1.3L45.1 41.8l-.7-1z"/><path class="st0" d="M21 14.6L14.1 4.1c-.6-.9-.3-2.1.6-2.7.9-.6 2.1-.3 2.7.6l6.9 10.5c.3.5.4 1.2.2 1.8l36.3 55.6c.9 1.3 2.4 2 3.9 1.8l15.5-2c.6-.1 1.2.2 1.5.7l.3.6c.3.7.4 1.4.2 2.2-.2 1-.6 1.9-1.1 2.7-.6.8-1.3 1.6-2.2 2.2-1 .7-2.1 1.4-3.2 1.8-1.1.5-2.4.8-3.6.9-1 .1-2.1.1-3.1-.1-.8-.1-1.6-.5-2.3-.9-2.3-1.4-4.3-3.3-5.8-5.6L22.5 15.5c-.6 0-1.2-.3-1.5-.9m.8 2L59.9 75c1.6 2.4 3.7 4.4 6.2 5.9.8.5 1.7.8 2.7 1 1.1.2 2.3.2 3.4.1 1.3-.2 2.6-.5 3.9-1 1.2-.5 2.4-1.2 3.5-2 .9-.7 1.7-1.5 2.4-2.5.7-.9 1.1-2 1.3-3.1.2-.9.1-1.9-.3-2.8-.1-.3-.2-.5-.4-.8-.5-.8-1.6-1.3-2.6-1.2l-15.5 2c-1.1.1-2.2-.4-2.8-1.3L25.6 14.1c.1-.8 0-1.5-.5-2.2L18.3 1.4C17.4 0 15.5-.4 14 .5c-1.4.9-1.8 2.8-.9 4.3L20 15.3c.4.6 1.1 1.1 1.8 1.3"/><path class="st0" d="M0 0h83.4v82.1H0z"/></svg>