<svg id="Layer_1" xmlns="http://www.w3.org/2000/svg" viewBox="0 0 414.1 208.3"><style>.st0{fill:#DFC9A0;} .st1{fill:none;stroke:#63732C;stroke-width:1.423;} .st2{fill:#63732C;} .st3{fill:none;}</style><path class="st0" d="M177.2 50.8v-.5c-.1.1 0 .3 0 .5"/><path class="st0" d="M287.2 125.7c-5.2 1.5-10.6 2.4-15.9 3.3-1.7-.4-3.6.7-5.1-.4-.4-2.4-1.3-4.9-3.4-6.4-3-3.2-7.7-2.9-11.7-2.3-4.4 1-8.5 2.7-12.8 4.1 1.4-3 3-5.9 4.7-8.7 2.2-2.6 4.2-5.2 6.8-7.6 1.9-1.5 4-2.7 6-4.1 2.8-1.7 5.7-3.1 8.6-4.6 5.4-2.1 10.8-4.1 16.6-5.3.2-.4 0-.8-.4-1-2.7-.5-5.3.5-7.9.6-1.8.6-3.7.8-5.5 1.5-4.6 1.4-9.1 3.1-13.2 5.5-.8.4-1.3 1.3-2.1 1.7-.2-.2-.1-.5-.2-.8 5.7-4.1 10.6-9.5 17-12.7 5.2-3.3 11.2-4.4 16.7-6.8.1-1.6-1.8-.2-2.6-.9-2.1.6-4.1.7-6.2.7.2-.6 1.1-.8 1.1-1.5 0-.4-.5-.4-.8-.5 1.1-.9 2.1-2.1 2.5-3.4-.3-.6-.9.2-1.4-.1 1.4-.9 3.1-2.1 3.8-3.8-.1-.9-1.3-.2-1.7-.4 1.3-1.2 2.6-2.6 3.3-4.1-.2-.7-.7.1-1.1-.2.8-1.5 2.3-2.7 2.3-4.4-.3 0-.5.2-.8.4.2-1.1 1.1-2.1 1.5-3.2-.1-.2-.4-.2-.6-.2.7-1.2 1.2-2.5 1.3-3.9-.2-.6-.5.4-.9.1.7-1.7.6-3.7.2-5.2l-.6.8c-.5-1.5.1-3.6-.7-5.1-1.3 1.2-1.6 3.2-2.9 4.3-.3-.2-.2-.6-.4-.8-1 1.3-1 2.7-1.9 4.1-.3-.3-.2-.9-.7-.9-1 1.5-1 3.3-1.3 5.1-.3-.5-.3-1.2-.3-1.8-.1-.3-.5-.4-.8-.2-.4 2.2-1.5 4.4-1.1 6.6-.8-.6.4-2.2-.9-2.2-.7 1.8-1.1 3.8-1.3 5.5-.2-.5-.2-1.2-.6-1.6-.4-.1-.7-.2-.9.2-.4 1.4-.7 2.8-.9 4.2-.3-.2-.2-.7-.4-1-2.2-.1-.5 3.2-2.5 2.5 1-2.4 2.7-4.3 3.7-6.6.5-1.7 1.2-3.5 2-5.2.3-1.4.6-2.9.8-4.4.1-2 .5-4.4-.1-6.5-.3-.3-.1-1.4-.8-1.2 0 5.1-2.7 9.6-3.6 14.5-1.1 1.3-1.1 3.1-2.2 4.4-1.2 3.1-4.4 5.6-6.7 8.1-.9.5-1.6 1.8-2.8 1.6 1.7-1.2 3.2-2.9 4.8-4.4.4-.4.7-1.1.2-1.5 1.4-1.2 2.6-2.5 3.3-4-.2-1.4-1.1.2-1.7-.2 1.7-1.6 3-3.4 3.8-5.3-.2-.8-.9 0-1.2-.1 1-1.5 2.4-3.1 2.5-4.9-.6.2-1.2 1.1-1.8.5 1.5-1.9 2.7-4 3.7-6.1.5-.6-.3-1.1-.2-1.7.6-1.2 1.2-2.3 1.5-3.6-.2-.3-.5-.8-.9-.7.6-1.9.9-4 .6-5.9l-1.1 1.1c.1-2.2-.3-4.6-.8-6.8-1.3 1-1.3 3.1-2.7 4.4-.1-.3 0-.6-.3-.8-1.3.8-1.5 3.1-2.4 4.7l-.5-.6c-1.1 1.5-1.2 3.5-1.6 5.3-.3-.6-.4-1.2-.5-1.9-.1-.3-.5-.4-.8-.2-.5 1.9-1.1 3.7-1.5 5.6-.3-.2 0-.7-.2-1-1.2.6-1.4 2.1-1.7 3.4-.3-.2-.3-.5-.7-.5 2-3.9 3.1-8.2 4.1-12.5.7-3.8 1.2-7.8.6-11.7-.2-1.4-.4-2.6-1-3.9-.5-.9-.5-2.5-1.7-2.5-.1 4.4-.1 9.2-.8 13.5-.6 4.2-1.8 8.2-3.2 12.3-1.3 1.9-1.9 4.4-3.4 6.3-3.3 6.1-7.9 11.5-12 16.9-1.8 3.9-4.9 7.1-6.2 11.3 1.5-6.4 5.1-12.5 7.3-18.8.3.1.7.3.8.6 3.5-.9 6.1-4.5 7.6-7.5l-.6-1c1.5-1.5 2.4-3.3 3.5-5 .2-.3.3-.8-.1-1-.5-.3-.9.3-1.3.3 1.2-1.5 2.4-3.3 3.1-5.1l-.5-.7-1.4.9c1-1.7 2.5-3.2 3.1-5.1-.2-.2-.5-.8-.9-.6.9-1.3 1.5-2.7 2-4.2-.4-.3-.9-.7-1.4-.2.2.5-.4 1-.8.8 1-1.3 1.9-2.9 2.2-4.7-.2-1.3-1 .5-1.7.2 1.1-1.5 1.4-3.2 2-4.9-.5-.7-.9.8-1.7.6.8-1.4 1.2-3 1.4-4.6-.2-.4-.7-.3-.9-.7.4-1.1.4-2.4.5-3.5-.3-.3-1-.3-.9-.9.4-1 .3-2.5.1-3.6-.9 0-.2 1.5-1.4 1.4-.7-2-1.2-4.4-2.2-6.4-.8 1.7-1 3.4-1.5 5.1-1.1-.3-.1-1.8-1.1-2.2-1.2 1.5-.3 3.4-1 5.1-.5.1-.6-1.2-1.3-.5.2 1.3.6 2.5.1 3.8-.2-.1-.5 0-.7-.1-.2 1.2-.2 2.7 0 3.8-.2.5-.6.1-.8.1-.4 1.6-.3 3.3-.3 4.9-.3-.2-.5-.5-.9-.6-.8 1.6-.5 3.9-.6 5.8-.3-.4-.5-.9-.8-1.4-1.7 2.6-.2 6.3.5 9.3-1.5.1-1.1-2.3-2.6-2.5.6-6.3 2.1-12.7 2.2-19.1.4-2.7-.4-5.6-.2-8.3-.5-2.6-1.2-5.2-2.2-7.7-.2 0-.5 0-.6.2.2 2.6-.2 5.6 0 7.9-.3 5.2-1.2 10.4-1.4 15.6-.8 3.8-1.5 7.6-2.2 11.4-1 4.1-2.3 8.1-3.7 11.9-.5-1.7 1.1-3.9 1.2-6-.5-1-1.1.4-1.6-.1.4-.7.7-1.5 1.1-2.2.1-.9.8-2 .2-2.8-.5-.3-.7.4-1.1.5.9-1.9 1.3-4.1 1.7-6.3l-.8-.3c-.7 1-1.2 2.2-2.2 3.1 1.3-2.5 2.2-5.2 2.8-7.9-1.5-.4-1.7 1.9-3.2 2.1.5-1.5 1.2-3 1.7-4.6.2-.5.1-1.3-.2-1.7-.5.7-1.3 1.2-2 1.6.1-1.3.7-2.5 1.1-3.8-.2-.8.7-1.8-.2-2.4-.8.2-1.2 1.2-1.8 1.5.9-1.5 1.3-3.3 1.6-5.1-.1-.3-.3-.5-.7-.5-.6-.1-.8.6-1.2.8.2-1.5 1-2.9.6-4.4-.7-.1-.8 1.1-1.5.7.5-1.3.5-2.8.5-4.2-.5.1-1 .2-1.3.6-.3-1.2.7-2.6.2-4-1-.1-.9 1.8-1.8 1.2.3-1.9-1.5-3.1-2.4-4.6-.5.2.1.6-.2.9l.5-.3c.5 1.1 1.3 2 1.5 3.3.1 1.2-.3 2.4-1.1 3.1-.6-1-.1-2.4-.5-3.4-.3 5.2-.2 10.4-.2 15.6.9 17.1 2.5 34.4 2.8 51.6.2 5-.3 10.2-.6 15.1-.2-25.1-2.6-50.5-2.6-75.7-.2-1-1-1.3-1.5-2.1.1 1.5 1.7 2.5 1.1 4.1-1-2-2.1-4.1-2-6.3 1.1.4 1.2 1.6 2 2.3-.6-2.1-.5-4.5.4-6.7-1 1.1-1.2 2.6-1.4 4-.5.4-.6-.5-1.1-.4-.3 1.4-.2 2.9-.1 4.4-.6-.1-.8-1.3-1.4-.7-.1.3-.2.9.2 1.1 1.2-.1 2.4 1.7 3.3 2.8-.1.7.5 1.5.1 2.2-.8-.5-1.2-1.7-2-2.3.3 1.8 1.7 3.1 2.3 4.8 0 .2-.2.3-.4.3-2.3-2-2.8-4.8-3.2-7.6-.9 1.7.4 3.6.5 5.4-.7-.5-1-1.5-1.8-2-1.1-.2-.2 1-.6 1.4.5 1.4.8 2.9 1.1 4.4-.8-.2-1.3-2.1-2.2-1.1-.3 1.9 1.3 3 1.5 4.6-.5-.1-.8-.8-1.3-1-.2.2-.7-.1-.8.3.3 1.6 1 3.2 1.8 4.5-.9 0-1.6-2-2.3-.8.1 2.2 1.4 4 2.2 6-.9 0-1.2-1.4-2.1-1.7-.2 2 1 4 1.8 5.9-.7-.5-1.3-1.5-2.1-1.8-.4 2.8 1.9 5.3 3.1 7.8l-2.1-1.4c-.4.1-.4.5-.5.8.5 1.5 1.5 2.8 2.3 4.1-.6 0-1.4-1-1.8.1 0 1.4 1 2.5 1.7 3.7-.3.2-.5-.1-.8-.1-2.5-6.5-4.1-13.2-5.9-20-.7-3.5-1-7.2-1.8-10.8-.5-5.6-1.1-11.4-1.5-16.9-1.5 2.1-2.1 5.1-2.5 7.8-.3 3.4.2 6.8.2 10.3.5 7.2 2.7 14.2 4.1 21.3-.5.7-.7 1.6-1.2 2.2.2-2 0-4.1-.1-6.2-.8.5-1 2.2-2.2 2.6.3-1.2.5-2.2.8-3.3-.2-2 .4-4-.3-6-.7-.2-.7 1-1.2 1.3-.2-1.9.1-3.9-.7-5.7-.6-.4-.7.4-1 .5-.1-1.6 0-3-.4-4.6-.2-.6-.6.3-.9-.2l.1-3.9c-.5-.5-.6.5-1.1.4v-4.4c-.6-.3-.7.5-1.1.8-.6-1.4-.5-3.5-.9-5.3-.8.1-.5 1.3-1.5 1.3-1-1.2-1-2.9-1.8-4.1-.4 1.7 1.1 3.3 1.5 5-.1 1.2-.1 2.4-.5 3.4-.4-1.1-.7-2.3-.9-3.5-.1 1.3-.2 2.7.1 3.8 1.7 6.8 3.3 14.2 5.1 21.3 1.8 4.5 2.8 9.3 4.5 13.9 4.7 10.9 10.8 21.5 14.6 33 1.3 5.5 3.7 11.1 5.5 16.1-1.3-7.4-1.7-14.9-3.6-22.2-1.2 0-.1-1.2-1-1.5-.2-2.8-1.7-5.6-1.8-8.6-.8-.9-.3-3.1-1.6-4.1.7-.7-.5-1.3-.1-2-1.4-4.5-2.4-9.4-4.3-13.5 4.1 15.2 7.6 30.6 10.8 46-2.2-6.8-4.5-13.4-6.2-20.3-2.6-12.8-5.9-25.6-9.3-38.2-.5-3.6-1.9-7.1-1.9-10.7 3.2 11.7 9.4 22.3 12.4 34.2.4 4.4 2.1 8.4 3.2 12.6 1.4 8.1 2.4 16.1 4 24.1.7 5.5-.2 11.1.5 16.6-1.3-5.6-1.5-11.4-3.6-16.8-2.2-5.9-4.5-12-6.7-18.1-3.1-8.9-8.2-16.9-11.4-25.7-2.4-6.2-4.3-12.6-6-19.1-1.3-5.5-2.4-11.1-3.3-16.7l-.5.1c-2-2-.5-4.8-.2-7.1-1 1.2-.9 3-1.3 4.4-.7.2-.6-1-1.3-1.2-.5 1.2-.4 2.7-.1 3.9-.3.3-.7.3-.9.7.1 1.2.6 2.2.6 3.4-.2.3-1.3.5-.6 1.1-.1 1.5 1.3 2.7 1.4 4.2-.4.2-.9-.4-1.3-.6-.4 2 1.5 3.3 1.7 5.1-.4 0-.7-.2-1-.6-1.2-.1.1.9-.2 1.5.5 1.1 1.5 2.2 2 3.3-1 0-1-1.6-2-.6.3 1.6 1.4 3.1 1.9 4.5-.4-.5-.8.2-.8.5 1.1 1.8 2.6 3.7 3.8 5.3-.9.1-1.8-2.1-2.3-.5.8 1.8 1.8 3.5 3.2 5-.5.2-1-.7-1.5-.1.7 2.2 2.5 3.9 3.8 5.8-.1.2-.3.3-.4.5 1.3 3.5 4.6 6.7 8.2 7.4.2-.1.6-.7.9-.1 3.1 6.4 6.2 12.8 8.3 19.6-5.5-12.1-16.1-20.5-22.3-32.1-1-1.4-1.4-2.9-2.2-4.4-1.1-3.4-2.2-6.8-3-10.3-.6-4.5-1.4-8.8-1.3-13.5-.2-.2-.2-.7-.6-.6-1.2 2.4-1.9 5-2.1 7.7-.3 3.4.4 6.8 1.1 10.2 1.3 4.4 2.5 8.8 4.9 12.7-.5 0-.6.9-1 .4l-1-2.8-.6-.1c-.2.3.1.8-.2 1-.4-1.9-1.2-3.7-1.8-5.6-1.4-.2-.2 1.8-1 2.4-.7-2-.8-4.5-2.1-6-.1.3 0 .9-.5.9-.4-1.6-1-3.1-1.9-4.5-1-.5-.5 1.3-1.3.7-.4-1.4-1.1-2.7-2-3.8-1.2 1.5-.6 4.2-1.1 6.3-.4-.3-.7-.8-.9-1.2-.1 2 .1 4.3 1 6.2-.4-.1-1.1.2-.9.8.5 1.4 1.6 3.1 1.6 4.4l.1-.1c1.5 2 4 2.7 6 4.1.2.6.9 1.2.7 1.8-.6-.1-1.1-.6-1.7-.9-.2.7 1.1 1.6 1.9 2 .3.3-.2.4-.3.6-.9.1-1.5-.4-2.2-1-1.7-1.8-3.4-3.7-4.5-5.7.2 2.4 2.7 3.7 3.3 5.8-.7.5-1.2-.4-1.8-.4.5 1.6 1.8 3 2.5 4.6-.3-.1-1.2-.4-1 .3.9 2 2.7 4.2 4.7 5.3-.7.2-1.4-.5-2.1-.5-.3.2-.3.4-.3.7.8 1.4 2.2 2.7 3.4 3.8-.4.5-.3 1.1.2 1.5l5 4.2c-.9.4-1.7-.6-2.4-1.1-2.4-1.5-3.7-4.3-6-6-2.6-3.1-3.4-7.1-5.1-10.6-1.4-3.2-1.5-6.7-2.9-9.9-.2-.1-.4.1-.6.2-.4 3.1-.1 6.2.7 9.2 1.2 3.6 2.5 7.2 4.4 10.5 1.1 2.1 2.8 3.8 4.1 5.8-.2.2-.5.2-.7.2-1.4-1.6-2-4.1-4.1-5.2-.2.3.2.8-.3 1-.2-1.6-.6-3.1-1.4-4.5-.9-.3-.8.9-1.2 1.2-.2-1.8-1-3.4-1.5-5-.7-.2-.3.7-.7.8-.9-1.5-.8-3.5-1.6-5.1-.8-.2-.5.7-.9.9-.6-1.2-.5-2.6-1.4-3.7-.4-.1-.6.2-.9.3-.7-1.1-.7-2.5-1.7-3.3-.6-.4-.2.5-.6.6-1.5-1-1.5-2.9-2.8-4.1-1.3 1.5-.1 3.7-1.1 5.1-.3-.1-.3-.6-.7-.5-.2.3.1.5.1.8.2-.1.6-.2.7.2.9 1.4 1.3 3 2.7 4.1-.1-.5-.1-.8.4-1.1l.4 1.2c.6-1.8.7-3.6.8-5.4.7.2.7 1.1 1.1 1.7.2 1.8 1 4.4-.6 5.8-.5-1 .7-2.4.1-3.6-.3.8-.1 2-1 2.3 2.2 6.3 5.6 12 9.5 17.4 2.7 3.7 6.1 7.3 9.7 10.1 3.4 3 7.6 4.9 10.8 7.8-3.7-2.4-7.6-4.1-11.1-6.5-5.9-4.4-10.1-10.8-14-16.9-1.7-4.1-4.1-7.8-5.9-11.8-.1.2.2.5-.1.6-.7-.2-.9-1.1-1.3-1.7-.5.1 0 .6-.2.9-.7-.2-.8-.8-1.3-1.2.2-.8-.4-2.3-.6-3.4-.3 1.4.2 2.5.6 3.8-.2.4-.5-.2-.7 0 .2 1.4.8 2.9 1.4 4.1-.2-.1-.3-.2-.5-.2.2 1.2 1.1 2.3 1.8 3.3-.5.2-.8-.4-1.2-.3.4 1.6 1.6 2.9 2.7 4.2-.3.3-.6 0-.9 0-1 1.2 1.1 1.8 1.6 2.9.5.6 1.3.7 1.6 1.4-.5.3-1 0-1.5 0-.3.1-.4.5-.2.7 1 1.5 2.5 2.5 3.8 3.4-.3.2-.9-.2-1.3.1.2 1.7 2.1 2.7 3.4 3.1-.5.5-1 .1-1.5.5-.4.8.7.9.9 1.5-2.3.1-4.8-.5-7.1-.7-.6.2-1.3 0-1.7.5 0 .6.7.8 1 1.2 4.4 1.7 9.1 2.5 13.2 4.7 7.9 3.2 14.5 8.9 20.8 14.5-1.1-.6-2.5-2.1-4.1-2.5-2.5-1.3-5.3-1.9-7.7-3.3-3.6-.8-7.6-2.2-10.8-2.1-2.4-.4-4.9-1.2-7.2-.5 5.1 2.5 11.4 3.3 16.7 5.8 2.2 1 4.5 1.9 6.7 3 2.5 1.8 5.5 2.7 7.8 4.8 2.8 2.3 5.4 4.8 7.5 7.6 2 2.6 3.9 5.4 4.9 8.6-3.4-1.1-6.9-2.2-10.4-3.2-3.9-.7-9-1.6-12.4.7-3 2-5.1 5.4-5.7 8.8-1.3-.5-1.6.5-2.8.3-5.9-1.4-12-1.4-17.9-3.1-.3 0-.6.4-.4.7 2.7 2.7 6.2 4 9.8 5 4.2.5 8.4 1.9 12.6 1.7 1.1 2.7 3.3 6.1 6.4 6.8 8.1 1 14.8-4.7 22.7-5.7.2 3.4-.5 6.8-1.5 10-1.4 2.8-2.1 5.9-3.9 8.5-1.5 3.1-3.3 6.3-5.5 8.9-3.6 4.3-7 8.8-11.6 12.1-1 .7-1.2 2.1-1.1 3.3.3.5.7 1.1 1.4.9 2.4-1.4 4.5-3.1 6.5-5.1 3.5-3.8 6.5-8 9.1-12.4 2.4-3.5 3.9-7.5 6-11.2-.8 2.9-1.6 6.1-2.9 8.9-1.8 3.9-3.8 7.8-6.1 11.4-3 4.5-6.9 8.4-10.1 12.9-.6.9.1 1.9.6 2.6 1.1.4 2.1-.4 2.9-1.1 3.9-4.4 7.2-9.4 10.1-14.5 2.5-4.5 4.6-9.1 6.3-14-.6 3-.7 6.3-1.9 9.2-1.5 3.8-2.9 7.6-4.6 11.3-1.8 4-4.7 7.1-6.6 11-.1 1-.8 2.1-.2 3.1.4.6 1 .8 1.6 1 2.1-.4 3.1-2.7 4.1-4.3 1-1.8 1.8-3.9 3-5.5 2-4.7 3.7-9.4 5.3-14.2.3-2.3 1-4.8 1.8-7.1.3.2.7.7.9 1.2-.3 4.4-2.9 8.5-2.8 13.1 0 .8.6 1.3 1.2 1.8-.3 8.1-2.6 16-2.9 24.1 1.1 2.8 4.7 1.9 7.1 2.2 3-.3 6.2-.8 9.1-.6 2 0 3.8.3 5.7.6 2.5 0 4 2.8 5.2 3.7-.3-5.6-1.7-11.1-1.6-16.9l1.5-2.8c.4-6.8-2.9-13.2-2.8-20 1.4 5.9 4.1 11.2 6.6 16.7 2 2.4 2.5 5.8 5.6 7.2.7.2 1.5 0 2-.4 0-1.6.2-3.2-.7-4.5-3.8-4.1-6.4-9.1-8.4-14.1-2.3-5.5-4.1-11.1-5.2-17 1.6 4.7 3.7 9.1 6 13.4 2.7 4.5 5.7 8.7 8.9 12.8 1.6 1.4 3 3.1 4.9 4.1.8-.1 1.3-.8 1.5-1.5-.7-1.5-.9-3.1-2.3-4.1-1.8-.8-2.7-2.9-4.2-3.8-2-2.5-4-5.1-5.7-7.7-1-2.6-3.2-4.9-4.3-7.6-1.2-3.2-2.7-6.3-3.5-9.6 1 1 1.4 2.5 2 3.8 4.1 6.3 8 12.8 13.4 18 1.8 2 3.6 3.8 6 4.5.9-.2 2.1-.1 2.2-1.2-.1-.6-.3-1.2-.6-1.7-2-1.4-4.1-2.9-5.9-4.7-1.8-1.5-2.9-3.5-4.6-5-2.2-2.9-5-5.7-6.5-8.9-1.3-2.9-3.6-5.1-4.5-8.2-2.1-3.8-3.3-8.1-3.5-12.7.3-.7.9.1 1.5-.2 7.2 1.2 13.6 6 21.1 4.6 3.5-.5 5.4-4.1 6.7-7 3.6-.5 7.1-.8 10.7-1.4 1.2-.5 2.5-.8 3.5-1.3 3-1 6-2.6 8.1-5-.6.2-.9.2-1.3.2M197.3 14.6c-.6.5-.5 1.7-1.2 2.1.3-2.1.8-4.3 1.7-6.3-.1 1.7.8 2.9.4 4.5.2 1.2-.2 2.6-.9 3.6h-.7c.1-1.2.9-2.6.7-3.9m.9 4.9c-.6.4-.4 1.7-1.4 1.7.1-2.2 1.9-4.1 2.8-5.9.4 2.8-.7 5.8-2.4 7.8 0-1.3 1.2-2.3 1-3.6M198 27c-.3-1.6 1.5-2.8 1.2-4.3-.5.7-.7 1.6-1.5 2.1.2-1.6 1.5-3.2 1.9-5 .5-.2.4-.9 1-.9.4.9-.1 1.7.2 2.5-.2 2-1.1 3.9-2.1 5.7h-.7zm1.9 5c-.4-1.9 1.2-3.7 1-5.5-.8 1-.9 2.3-1.9 3.2-.3-2.5 1.7-4.6 2.3-7 .5.2.5 1 .6 1.6.3 2.8-.6 5.6-2 7.7m.8 4.3c.8-1.2 1.8-3 1.3-4.3-.5.9-.6 2.2-1.7 2.7-.2-2.8 2-5.1 2.7-7.6l.5.6c.2 2.7-.3 5.1-1.2 7.3-.7.3-1 1.6-1.6 1.3m1.5 5.3c.9-1.1 1.1-2.5 1.5-3.8-.1-.1-.2-.3-.4-.2-.6.8-.6 2.1-1.6 2.4-.2-.4-.2-1-.1-1.5 1.2-2 2.1-4.6 3.4-6.8.2 1.8-.1 3.8-.3 5.5-.4 1.6-1.2 3.2-1.6 4.7-.3.1-.9.2-.9-.3m.3 1.2c-.1-.3.5-.7.6-.2 0 .3-.5.7-.6.2m.8 2.2c-.3-.3-.5-.9-.3-1.4.6-1.8 2.7-2.8 3.4-4.5.4-.1.1.5.3.6-.1 1.7-.6 3.3-.6 4.9-.1 1.1-1.2 1.5-2 1.8.8-.8 1.2-2.1 1.5-3.3-1-.1-1.2 1.7-2.3 1.9m1.2 3.1c-.3-.1-.5-1 .2-.8-.1.3.1.6-.2.8m1.6 4.4c-.2-.2-.4-.6 0-.8.2 0 .4 0 .5.2-.2.1 0 .8-.5.6m1.9 4.2c-.2-.2-.1-.5.2-.5 0 .2-.1.3-.2.5m5.5 5.9c1.2 3.5 1.5 7.1 2.8 10.6-1.8-4.4-4.4-8.4-6.3-12.8 1.6-.3 1.8-2.1 2.1-3.4.7 1.7 1.2 3.6 1.4 5.6m-2.3-5.6c-.5.8-.5 2.4-1.7 2.4.1-1.3 1.5-2.5 1-3.7-.9.6-.6 1.6-1.7 2.2-.4-.4.1-1 .2-1.5.7-1.3 1.7-2.5 2.3-3.8.7 1.2 0 3-.1 4.4m-.5-6.9c.1.5.9 1.3.1 1.8 0 .3-.1.7-.4.9 0-.9.3-1.8.3-2.7m-.9-1.9c-.2 2.1-.2 4.3-.8 6.2l-.8.7c.2-1.2 1-2.4.6-3.5-1.2.5-.6 2.1-1.6 2.8-.8-2.9 1.7-4.9 2.3-7.4.4.1.1.8.3 1.2m-.4-4.2c.4.5.2 1.5.4 2.2-.1.2-.3.1-.4.1-.3-.8-.1-1.5 0-2.3m-2.7 6.5c-.2 0-.3-.1-.4-.2.4-.8.9-1.7 1-2.7-.2-.1-.2-.3-.5-.2-.5.9-.8 1.9-1.6 2.5-.9-3 2.4-4.8 3.4-7.1.2 2.6-.8 5.3-1.9 7.7m-1-28.5c-.2-2.7-.8-5.2-.8-7.8-.2-3.8.2-7.8 1.4-11.4.4 10.4 1.2 21.1 4 30.9.7 2.5 1.5 4.9 2.2 7.4-2.9-6.1-4.7-12.6-6.8-19.1m16.7 18.8c.1 0 0 .2.1.3-.2 0-.1-.2-.1-.3m-.2-4v.2c-.2 0-.4-.2-.4-.4-.1-.3.8-.3.4.2m-5-22.4c1.8 1.8 3 3.5 4.7 5.5.1.3 0 .7.1 1.1-1.3-.8-2.1-2.7-3-3.1.7 1.6 1.5 3.1 2.8 4.4-.2.3-.6.1-.8-.1-1.9-2.2-3.3-5-3.8-7.8m-1.1 4.2c1.2 1.4 2.9 2.9 4.5 4 .4.7.9 1.4 1.1 2.2-1.2-.5-1.8-1.8-2.8-2.4-.5.3 0 .6.1.9l3 3.3c.1.2 0 .4-.2.5-1.4-.2-1.9-1.7-2.8-2.5-1.4-1.8-2.4-3.9-2.9-6m-.6 4c1.1.9 1.8 2 2.8 3.1 1.2 1.5 2.9 2.5 3.6 4.2-1.6-.5-2.4-2.5-3.6-3.1.4 1.9 2.2 3.2 3.5 4.7.1.3-.1.6-.4.6-1.4-.3-2.2-1.8-3-2.9-.9-2.2-1.9-4.4-2.9-6.6m.7 7.2c-.3-1.3-1.2-2.2-1.2-3.5 2 1.6 3.6 4 5.4 6.1.7.3 1.7.9 1.7 1.8-1.2-.6-2.3-1.8-3.4-2.5-.4.3.1.6.2.8 1 1.2 2 2 3.1 2.9.1.5-.4.3-.6.5-2.1-1.8-4.3-3.6-5.2-6.1m-1.2 2h.3c1.9 2.6 5.1 3.9 6.9 6.6-1.2-.6-2.3-1.4-3.3-2.4-.2.2-.5.5-.3.8 1.1 1.1 2.7 2 3.5 3.3-.3.2-.5.3-.9.2-2.8-2-5.2-5-6.2-8.5m-.7 3.7c1.1-.3.9 1.1 1.8 1.2.6.8 1.2 1.6 2 2.4 1.3.8 2.6 1.7 3.8 2.6.2.5.9.9.7 1.5-1.1-.5-2-1.5-3-2.2-.2.1-.4.5-.2.7 1 1.2 2.5 2.2 3.1 3.3-2-.3-3.3-2.3-4.7-3.7-1.3-1.7-2.8-3.5-3.5-5.8m1.9 8.1c-.2-.6-1.2-1.2-.7-1.8 1.7 1.6 3.7 2.5 5.5 3.8.9-.1 1.6.8 1.9 1.5-.9-.4-1.8-.6-2.6-1.3-.2.1-.4.3-.3.5.8.9 1.8 1.5 2.9 1.9.2.2-.1.5-.4.6-.5.2-.7-.5-1.1-.3-2-1.1-4.1-2.7-5.2-4.9m-.6 2.9c.1-.3.5-.6.8-.4l2.1 1.9c1.2.7 2.4 1.8 3.8 2.1.4.3 1 .7.8 1.3-1.4-.1-2.7-.8-3.8-1.9-.2 0-.5.2-.4.4 1.3 1.5 2.8 2.4 4.4 2.9.1.5-.4.4-.7.6-.7-.1-1.3-.5-1.7-.8-2.1-1.7-4.1-3.6-5.3-6.1m7.7 29.9c-.5-3.4-1.8-6.8-2.1-10-1.2-4.8-2.9-9.3-4.5-14 .5.6.7 1.5 1.1 2.2 1 1.3 1.9 3.1 3.5 3.8.4 1 1.5.5 2.1.9-.5 5.7.2 11.6-.1 17.1m.1-20.5c-2 .1-3.1-2.3-4.6-2.5 1 1.6 2.5 3.3 4.3 3.8 0 .3.2.5.2.9-.9.4-1.3-.7-2.1-.9-2.2-1.8-3.7-4.4-4.7-6.9 2.2 1.3 3.7 3.8 6.3 4.3.5.1.7.8.6 1.3m-17.8.6v.3c-.2.2-.5 0-.5-.2.1-.2.4-.4.5-.1m-1.9-4.9c-.4-.1-.9-.4-1-.8.7-.6 1.1.2 1 .8m-1.9-5.3c-.4 0-.9-.3-1.1-.7.2-.1.4-.3.6-.4.3.3.4.7.5 1.1m-1.7-5.5c.1.1 0 .2-.1.3 0-.1-.2-.4.1-.3m-1.4-4.3c.2.3.3.5.3.9-.2.1-.6-.2-.7-.4l.4-.5zm-.8-3.7v.2c-.2.2-.5-.1-.7-.3.2-.3.8-.4.7.1M197 28l.2.7c0 .1.1.3-.1.4-.2 0-.4-.3-.6-.5.1-.2.1-.5.5-.6m-.8-3.2c-.4.3-.9-.4-.6-.7.4 0 .4.5.6.7M191.9 13c.5.5.7 1.3 1.2 1.8.6 1.2 2.1 2 2 3.4-.7-.1-1.2-.9-1.7-1.3-.2 1.5 2 1.5 1.8 3-.9.1-1.3-1.1-2-1.4-1-1.6-1.5-3.6-1.3-5.5m-.6 3.8h.1c.7 2.3 3.8 3.2 4.2 5.5-.9.1-1.3-1.1-2-1.5 0 1.3 1.2 1.8 1.8 2.6-.8.3-1.6-.7-2.2-1.2-1.2-1.5-1.8-3.4-1.9-5.4m-.1 4l.3.1c1.3 2.1 3.9 3.4 4.9 5.6-1.1.1-1.7-1.3-2.5-1.8.2 1.5 2.3 2.3 1.9 3.3-2.5-1.4-4.2-4.3-4.6-7.2m.4 5c1.9 1.8 4.4 2.8 5.9 4.8 0 .2-.1.4-.3.5-1.2-.3-1.9-1.5-2.9-2.3.2 1.4 1.6 2.2 2.5 3.2-.3.3-.7.1-.9-.1-2.4-1.1-3.6-3.9-4.3-6.1m1.4 6.9l-1.2-2.4c1.4.4 2.7 2.1 4.4 2.3.8.7 2.1 1 2.1 2.3-1.1.2-1.7-1-2.6-1 .6.9 1.6 1.5 2.5 2 .1.4-.4.4-.6.6-2-.4-3.3-2.4-4.6-3.8m-.9 1.2c2.1 2 4.5 3.2 7 4.4.3.3.5.6.5 1-.9 0-1.7-.9-2.6-1 .1 1.2 1.8 1.5 2.3 2.2-1.2.7-2.4-.5-3.4-1.2-1.8-1.4-3.5-3.3-3.8-5.4m4 8.7c-1.1-1.2-2.3-2.5-2.8-3.8 2.2 1.9 5.1 2.6 7.4 4.2 0 .2.3.5.1.7-.9.6-1.5-.9-2.2-.6.4.8 1.4 1 2.2 1.4-1.8.7-3.4-.6-4.7-1.9m.3 3.9c-.8-.7-1.2-1.8-1.4-2.6 2 1.2 4.2 2 6.2 3.2.3.7 1.6 1 1.4 1.8-1.2-.5-2.4-.8-3.4-1.5.4 1.2 2.1 2 3.4 2.4.2.3-.3.4-.5.5-.7-.4-1.6-.2-2.3-.8-1.3-.9-2.1-2.4-3.4-3m0 2.3c1.8 1.1 3.8 1.9 5.6 3.2.9.5 2.2.8 2.6 1.8-1.5.6-2.2-1.7-3.6-1 1.1 1 2.2 2.2 3.6 2.6 0 .2-.2.6-.4.4-1.3-.8-2.4-.6-3.5-1.7-1.8-1.6-3.4-3.3-4.3-5.3m9 11.7c-1-.6-2.4-1.3-3.1-2.2-1.1-.8-2.3-2.1-2.5-3.4 2.3 1.1 4.7 2.3 6.7 4-1.5.3-2.5-1.7-3.9-1.2 1.2 1.3 2.7 2.1 4.1 3-.2.5-.8-.2-1.3-.2m-39.1-4.1c-.8-.2-.7-2.1-1.5-2.9.1 1.1.3 2.3.4 3.6-.5-.3-.6-1.3-1.2-1.8-.4-1.8-.5-3.8-.2-5.5.6.1.8.8 1 1.3 1 1.5 2 3.4 1.5 5.3m3.2 7.4c-.2-1.3.4-2.3 0-3.5-.8.5-.2 1.8-1 2.5-1.5-2.3 1.3-4.2 1.1-6.5.5.7.8 1.8.7 2.8.6.4-.1 1.1.3 1.5-.2 1 .1 2.6-1.1 3.2m1.9 4.3c-.1-1.3.8-2.6.4-4-.9.5 0 1.9-1.2 2.5-.5-2.5.7-4.8 1.2-7.1 1 1.7.8 3.9 1 6-.6.8.1 2.7-1.4 2.6m2.6 3.5c-.3 0-.3-.4-.5-.5.8-1.1.7-2.9.4-3.7-.4 1-.5 2-1 2.8-.2 0-.5-.3-.6-.5.5-2 2-3.7 1.5-6 .9-.2.4 1 .9 1.3.4 1.6.8 3.5.2 5.1-.2.5-.5 1.2-.9 1.5m3.3 3.5l-.8.7c-.1-1.5.7-3.3-.1-4.5-.4 1-.2 2.2-1.1 3.1-1.2-2.6 1.6-4.7 1.5-7.4.9 2.5 1.3 5.5.5 8.1m1.8 3.8c-.3-1.2.6-2.8-.1-3.7-.2.8-.4 1.8-.8 2.6.2-2.4.2-5.1.9-7.5.6.1.5.8.8 1.2.3 2.5.5 5.3-.8 7.4m3.1 1.3c-.4.4.2 1.5-.7 1.5 0-1.3.6-3.3-.2-4-.2.9 0 2-.8 2.8.5-2.4.1-5.1.7-7.6 1 2.2 1.1 4.7 1 7.3m78.5 95.8c.8-.1.5.8.9 1.2.3.7-.5.9-.9 1.1-.5.1-.4-.5-.6-.8-.1-.7.1-1.2.6-1.5m-18-52.2c2.3-.5 4-2.6 6.4-2.6 2.5-.4 5.2-.9 7.6-.8 1.7-.5 3.4 1.1 4.9 1.9-1.6-.3-3.6-.3-5 .3-6.7 1.8-12.7 5.5-19.6 6.8l-3.2.4-.2-1c4.2-.8 8.3-2.5 12-4.3-4 .8-8 2.5-12.3 2.7 0-.3-.4-.5-.2-.9 3.3-.4 6.5-1.3 9.6-2.5m18.2 6.7c-6.1.1-12.1-.7-18.2-1.4 1.7-1.1 3.8 0 5.5-.6 4 .6 8.2.6 12.4.9.5.2.2.8.3 1.1m-18.5 1.3c-1.8-.4-3.5-1-5.3-1.2.9-1.1 1.8.6 2.7-.4 2.7.6 5.4.4 8.1 1.2 1.5-1.1 2.2.8 3.6-.2-.1.3.1.6.4.6 2.6-1 5.9.2 8.8-.2-.4.5.2 1.1-.7 1.3-5.8 0-11.8-.2-17.6-1.1m17.5 2.4c-.4 1-1.3 1.8-2 2.8-.5.1-1.3.4-1.9.1-3.3-1.1-6.5-2.4-9.8-3.6 1.2 0 2.3.3 3.5.3 3.5.4 6.9.2 10.2.4m.8-5.5c-4.4.2-9-1.2-13.6-1.2 2.8-1.4 5.7-2.5 8.6-3.8.9-.2 1.7-.7 2.5-.1l1.7 2.1c.6.8.9 1.9.8 3m-3.1-29.5c2.5-1.3 5.3-1.9 7.7-3.4 2-.7 4.1-.9 6-1.7 2.9-.2 6.4-1.2 8.7-.7-3.4.6-7.5 1.8-11.1 3-1 .8-1.4.5-2.6 1-.9.1-1.9 1.1-2.6.9-2 1.3-4.4 1.5-6.4 3.1-5.9 3.4-11.7 7.7-15.8 13.7-2 2.8-3.7 5.8-5 9.1-.2.1-.5 0-.8.1 2-.7-.1-2.8 2-3.5.1-.3 0-.5-.2-.7 1.6-1.8 2.3-4.6 3.8-6.2 1.7-1.8 3-4.4 4.6-5.8 3.1-3.9 7.6-6.1 11.7-8.9m26.9-17.9c-6.4 2.5-13.1 4-18.7 8-3.5 1.6-6.4 4.5-9.5 6.5-1 1.2-2.4 2.2-3.5 3.4-6.3 5.9-11.9 12.4-16 19.4-.9 2-1.8 4.1-2.8 6.2-.2-.1-.4-.1-.6-.1 1.2-1.1 1.2-2.9 1.8-4.4.2-.6.9-.6 1.2-1.2-.1-.2-.1-.5-.3-.6 1.1-3.8 4.7-6.8 6.8-10.5 2-2.3 4.2-4.7 6.1-7.1 1.7-1.8 3.9-3.4 5.7-5.1-.2-.1-.5 0-.7-.1-1.9 1.8-4 3.4-6 4.9-2.6 2.4-4.9 5.1-7.1 7.8-3.4 4.8-6.7 9.8-8.9 15.4-.4.1-.6-.4-.7-.7.4-.3.8-.6.9-1.1.1-.5-.4-.8 0-1.2.4 0 .8-.3.9-.7-.1-.4-.4-1 0-1.4 1.5-.4.2-2.5 1.8-2.7 0-.7.2-1.3.4-1.9.3-.3.9-.2 1.1-.7.1-.5-.4-.8.1-1.2.2-.2.7-.1.8-.5.2-.4-.4-.7 0-1 1.5-1.3 2.2-3.2 3.4-4.7 2.3-2.2 4.2-5 6.5-7 3.4-3.6 7.8-5.6 11.7-8.5 3.2-1.7 6.1-3.6 9.4-5.1 2.2-.8 4.5-1.6 6.5-2.3 3-.9 6.4-1.8 9.7-1.8m-63.8 56.9l-.3.3c0-.3-.1-.7.2-.9.2.1.1.4.1.6m.1 2c-1.1 2.5-.4 6.1-1.3 9.1-.5 2.2-1.1 4.3-1.8 6.3.8-5.5 2.4-10.9 2.6-16.6.2.4.8.7.5 1.2m.7 5.3c-.1-2.5.8-5 .6-7.5.5.3 1.2-.1 1.5.6-.2 2.8-.3 5.9.6 8.8.8-2.8.2-5.6 1.1-8.4.2-.3.5-.5.8-.6.8 3.3.7 6.7 1.2 10 .9-3.5-.1-7.7 1.4-10.5.6 3.7.7 8.2 1.8 11.3-.3-.8.6-1.9-.2-2.8.1 0 .1 0 .2.1-.1-2.9-.2-6-.4-9 .7-.9.4.5.8.7.1 5 1.3 9.1 1.2 14.2-1.7-.3-3.5-.5-5.1-.5-1.1 0-2 .3-3 .4-1.3.6-3.1.7-4.1 1.9.3-3 .9-6 1.6-8.7m6.3-9.4c-.8.2-1.4-.3-2.1-.4 1.7-.5 3.4-1.9 4.4-3.5.6-1.5.8-3.5-.1-4.8-.2-.7-.4-1.5-1.2-1.8-.5-.8-1.4-1.3-2.2-1.5.4-.5 1 .1 1.5.2.9.6 2 1.6 2.5 2.6.2-.1.5.1.5-.2-.5-.9-.8-1.8-1.5-2.6.8-.1 1.4.7 1.9 1.2 1 1.5 1.3 3.5 1.2 5.1-.4.9-.5 2-.9 2.9-1.1 1.4-2.3 2.8-4 2.8m1.3-8.6c-2.2.9-4.9.8-7.4.7 0-.2-.1-.7.4-.7 2.3 0 4.9-.4 7 0m-6.9-1.2c0-.2.5-.8.6-.3.1.4-.4.3-.6.3m2.1 0c-.5-.4.2-.9-.5-1.2.2-.2.5-.2.7-.2-.2.5.4 1.3-.2 1.4m1.9-1.2c.3.1.7.1.8.5-.1.3.1 1-.6.7-.4-.1-.5-.8-.2-1.2m-4.5 4.3c2.6.5 5.7-.4 7.9.1-2.2.9-5.3 1.1-8 .8 0-.3-.1-.7.1-.9m.2 2.2c2.4-.1 5-.7 7.3.2-2.1.5-4.3.2-6.4.8-.3.2 0 .4.2.5 1.7.1 3.6 0 5.2.1-.8 1.3-2.7.8-4.1 1.2-.8.2-1.6-.5-1.9-1.2.1-.6-.4-1-.3-1.6m17.1-28.9c3.5-4 6.6-8.2 10.1-12.2 5.5-5.1 10.3-10.7 15.2-16.2l-.9 3.4c-.2.1-.5-.2-.7-.2-1.4 1.7-1.5 3.8-2.1 5.8-.3 1 .4 1.7 1.2 2.2-4.9 4.3-10.5 7.8-15.3 12.3-2 1.3-3.1 3.6-5 5.1-3.5 4.1-6.3 8.3-8.8 12.9-1.2 2.1-1.8 4.4-2.9 6.6-.3.1-.4-.1-.6-.3 1.7-3.5 2.2-7.8 4.4-10.8 1.9-2 2.5-5.2 4.2-6.8.4.2.6-.2.9-.4-.2-.6-.1-1 .3-1.4m22.9-14.9c-2.2 1.2-4.3 2.4-6.5 3.6 2.4-2.2 5.5-3.6 7.7-6 2.1-1.7 4-3.8 5.7-5.8 1.7-1.9 3.3-3.9 4.4-6 2.7-4 4.8-8.2 6.9-12.5.2-1.5 1-2.8 1.5-4.2-.3 2.1-1.2 3.9-1.9 5.8-2 3.5-3.3 7.3-5.5 10.7-3 5.6-7.4 10.3-12.3 14.4m11.1-11c0 .1-.1.1-.2.1l.2-.4c.1 0 0 .2 0 .3m-5.2 7.5c-.2.5-.9.2-1.2.8.2-.4.8-1.5 1.2-.8m-5.7.2c-.4 0-.8-.2-.7-.7.5-1.8.5-3.9 1.5-5.5.2 2 .7 4.2.2 6-.4-.7 0-1.9-.5-2.7-.7.7-.3 2-.5 2.9m3.5-11l-.7-.1 1.1-1.5c.1.7-.1 1.2-.4 1.6m-.4.7c.5 2.4-.4 4.9.8 7 0 .4-.1.7-.2 1-.7-1.1-.5-2.7-1-3.5-.6 1.4-.1 3-.2 4.5-1.7-1.8-.5-4.6-.2-6.8.3-.8.3-1.6.8-2.2m9.4 7.8c-1.6 1-3.5 1.6-5.4 1.8 1.2-.7 2.7-1 3.8-2 .1-.2 0-.4-.2-.5-1.2.8-2.7 1.1-4.1 1.5 1.9-2.5 5.3-1.6 7.8-2.6-.2.8-1.2 1.4-1.9 1.8m3.9-5.4c-.1.9-1.2 1.3-1.9 1.9-1.5.9-3.2 1.4-4.9 1.9-.2-.1-.2-.3-.2-.5.9-.4 1.9-.5 2.7-1.2-.5-1.2-1.9.3-2.8.2-.1-.2.1-.5.4-.7 2.1-.8 4.5-.8 6.7-1.6m2.3-4c-.7 1.5-2.4 2.1-3.7 2.9-1.1.2-2 1.1-3.1.8.9-.9 2.8-.8 3.1-2.1-1.1 0-2 .7-3.1.7.2-.9 1.2-1.2 1.9-1.4 1.6.1 3.3-.4 4.9-.9m1.5-4.4c.1.5-.4.9-.7 1.3-1.7 1.5-3.7 3.5-6.1 3.1 1.3-.5 3.1-1.1 3.3-2.3-.8.3-1.6.8-2.5.9 1.5-1.7 4-1.9 6-3m-1.8-.4c-.9.3-1.5 1.4-2.5 1.2.4-.8 1.7-1 2.2-1.9-.8-.4-1.4.9-2.3.9 1.3-1.8 4.1-2.2 5.7-3.9-.2 1.5-1.9 2.8-3.1 3.7m1.6-3.4c-.9.5-1.7 1.7-2.8 1.2.7-.6 2-1 2.3-2-.7-.1-1.5.4-2.1.9.6-1.9 3-1.8 4.3-3.1-.2 1-.9 2.1-1.7 3m2.9-7.1c-.3.9-.7 1.9-1.4 2.8-.4.9-1.4 1.5-2.3 1.8.6-.8 1.9-1.3 1.8-2.3-.8.3-1.4.9-2.2 1.3.7-1.8 2.6-2.9 4.1-3.6m-3.2-1.4l.1.3h-.1v-.3zm3.1-3.2c.8.5-.2 1.4-.1 2.2-.5.6-.1 1.8-1 2-.9-.4.8-1.5-.5-1-.4.7-.5 1.7-1.3 2 .4-2 1.9-3.5 2.9-5.2m-1.2-5.2c.1 1.7.1 3.1.2 4.7-.5.9-.2 2.5-1.5 2.9.6-1.2 1-2.8.5-4-.2 1.3-.8 2.5-1.5 3.5-1.6-2.8 1.8-4.7 2.3-7.1M279 55c1.1-.9.5-2.5 1.3-3.5.3 1.5.4 3.2.9 4.6-.2.4 0 1.1-.4 1.1-.5-.7-.3-1.7-.7-2.5-.7 1.4.4 2.9.3 4.1-1.1-1-1.5-2.3-1.4-3.8m-1-.8c.4 1.4.6 3 1.4 4.4-.1.8.5 2-.3 2.4-.3-.8-.2-1.8-.8-2.3-.5 1.1.2 2.5.1 3.7-.4-.1-.7-.4-.8-.7.1-2.5-.8-5.3.4-7.5m-2.2 3.3c.5 2.4 1.7 4.6 1.7 7.2l-.2.6c-1-.7-.3-2.4-1.3-2.6-.3 1.5.5 2.7.6 4.1-.3.2-.6 0-.8-.3-.5-3.1-1.1-6.1 0-9m-2 5c.2 1.9 1.3 3.5 1.9 5.3l-.4 1.1c-.7-.8-.7-2-1.2-3-.5 1.1.2 2.7.2 4.1-.8.2-.6-.8-1-1-.7-2.2-.2-4.6.5-6.5m-2.6 3.1c.5 1.7.8 3.5 1.8 4.9 0 .9.3 1.5-.2 2.5-.8-.9-.4-2.4-1.2-3.2-.6 1.3 0 3 .3 4.4-1.5 0-1.1-2-1.5-3.1.2-1.7-.3-3.9.8-5.5m-3 5c.1-.5.3-1.2.7-1.5l.4.4c.1 2.5 1.5 4.7 1 7.1-.3-.8-.8-1.6-.7-2.6-.2-.3-.5-.1-.6.2.1 1.2.5 2.5.4 3.5-1.9-1.8-.9-4.8-1.2-7.1m-1 1c-.1 2.7 1 5.4 1.2 8.1-1.4-.6-.8-2.7-1.7-3.1-.6 1.3.3 2.5.6 3.8 0 .6-.8.7-.9.2-.5-3-.2-6.3.8-9m1.4-8.2c1.8-4.9 3.2-9.9 4.1-15.3l.3.5c0 2.5-.3 5.3-.7 7.7-.3 3.1-2.3 5.5-3 8.4-2.1 3.9-4.4 8-7.3 11.2 2.5-4.1 5-8 6.6-12.5m-5.1 8.4c.4.5-.7.8-.5 1.4-1.5 2.3-3.3 4.5-4.9 6.6-4.4 4.4-8.2 9.4-12.9 13.7-5.7 6.1-10.5 12.4-14.1 19.3-1.5 2.9-2.4 6.4-3.8 9.1.3-1.7 1.5-3.6 1.1-5.2.3-.2.8-.4.9-.8.4-.7-.9-.7-.2-1.3.4-.1.8-.5.9-.9-.1-.5-.4-.9-.3-1.3 1.5-2.8 4-6.2 5.6-9.7 3.1-4.8 7.6-8.9 10.8-13.1-3 2.9-5.8 5.9-8.8 8.7-2.8 3.6-5.5 7.4-7.3 11.3-.2-1.7 1.7-2.5 1.5-4.1 1.2-2.9 3.6-4.9 4.9-7.7 4.5-5.3 9-10.6 14.1-15.3 4.6-3.4 8.9-6.9 13-10.7m-29.1 26.9c0-.8.9-1.6 1.5-2.2-.4.7-1.1 1.4-1.5 2.2m18.2-20.4c-1 .3-2.3.6-3.3.3 0-.5.7-.5 1-.8 2-.6 4.2-.9 6.2-1.5-1.4 1.5-3.2 2.7-4.9 4.1-.9-.1-2.1.9-2.5-.4 1.3-.1 2.3-.4 3.5-.9.3-.2.3-.7 0-.8m-1.1-2.4c.1 0 .2.1.1.2.2.4-.3.2-.4.4-.2-.2.1-.5.3-.6m-1.1 5.7c-3.4 2.9-6.7 5.9-9.7 9.2-1.2 1.9-3.1 3.5-4.6 5.4 1.4-3.5 4.5-6.5 6.6-9.7 1.7-2.1 3.7-4.1 5.3-6 .5.1.5.6.7.9.6 0 1.1.5 1.7.2m4.7-6c-.8.1-1.4.8-2.3.4.8-1 2.7-1 3.2-2.4-1.2-.2-2.3 1-3.6.9.1-.5.7-.9 1.1-1 2.7-.8 5.4-1.7 7.9-2.9-1.7 2.1-4.1 3.6-6.3 5m-1-3.4c0-.2.2-.7.4-.3.1.3-.3.4-.4.3m10.1-6.1c-2.1 3.1-5.5 4.6-8.7 5.8-.2-.2-.4-.3-.4-.6 1.5-.6 3-1.4 4.2-2.4-1-.1-2.4.8-3.6 1.1-.7-.8.5-1 .9-1.5 2.6-.8 5.3-1.3 7.6-2.4m-7.4 1.5c.2-.5.8-1.2 1.1-.5-.2.3-.7.4-1.1.5m9.9-7.2c-.3.8-.8 1.6-1.5 2.3-1.9 1.7-4 3.6-6.5 4.1-.1-.2-.3-.2-.2-.5l3.4-1.7c.2-.3-.2-.6-.4-.7-1 .5-1.9 1.1-3.1 1.3 2.1-2.6 5.8-2.6 8.3-4.8m-6.8 2.5l.4-1c.3 0 .4.3.5.5-.1.4-.6.4-.9.5m8-6.9c-.8 2.5-3.3 4.7-5.6 6-.5.3-.8-.3-1.2-.5.9-.6 2.4-1.4 3.6-2.1 0-.2 0-.4-.2-.6-1 .7-2.1 1-3.2 1.4.1-2 2.2-1.9 3.4-2.8 1.1-.3 2.2-.8 3.2-1.4m-5.2.9l.4.4c-.2.2-.5.4-.7.4-.2-.3.2-.5.3-.8m6.2-4.9c-.9 1.4-2.2 2.3-3.3 3.6-.6.5-1.2 1.2-2 .9 0-1.3 2.1-1.5 1.6-2.7-.7.2-1.1.9-1.7 1.1 0-.6.5-1.2.7-1.8 1.9-1.5 4.3-2.3 5.8-4.4 0 1.3-.8 2.1-1.1 3.3m2.3-7.8c-.3 1-.2 2.4-.8 3-1.6 1.1-2.5 4.1-5 3.8.5-.7 2-1.2 2.3-2.4-.6 0-1.4.7-2 1.1 0-2 2.7-2.1 3.1-3.8 1-.3 1.6-1.2 2.4-1.7m-4.2 2.3c.1.2-.1.4-.3.6 0-.1-.1-.6.3-.6m4.3-7.9c.1 2.8-.9 5.2-2.8 7-.3 0-.7.2-.9.2.9-.6 1.1-1.6 1.5-2.4l-1.5 1.4c.6-2.4 2.4-4.1 3.7-6.2m-7.6 2c.2 1.9.7 3.8 1.3 5.5 0 .7-.3 1.3-.6 1.8-.4-.7 0-1.9-.9-2.2-.1 1 .1 2.2.4 3.3-.2.3-.4 0-.6-.2-1-2.6 0-5.5.4-8.2m-2.5 3.4c.7 2.2.9 4.6 1.8 6.8.2.7-.2 1.4-.6 1.8-.6-.8-.3-2-.8-2.9-.2-.1-.5.1-.5.3-.2 1.2.2 2.1.5 3.1-.2.2-.6.5-.9.1-1.3-2.9-.2-6.3.5-9.2m.4 10.9c-.4-.2-.3-.8.2-.7 0 .2-.1.5-.2.7m-2.6-6.1c-.1 2.6 1.2 4.8 2 7.1.1.6-.2 1-.4 1.5-.7-.7-.4-1.9-1-2.6-.3.9 0 2.3.4 3.4-.4 0-1.3.2-1.3-.6-1-2.8-.8-6.2.3-8.8m-1.7 2.5c.4 1.8-.2 3.8.3 5.5.2 1.1.9 2.1 1.2 3.1 0 .7 0 1.3-.4 1.8-.7-.8-1-2-1.2-3.1-.2-.4-.5-.1-.6.1l.7 3.6c-.2.2-.1.7-.5.5-1.5-3.5-1.3-8.1-.2-11.6.4-.2.5-.1.7.1m-2.8 16.1c-1.5-3.6-1.1-8.1.5-11.1-.5 3.3 1.5 6.5.9 9.5-.8-.9-.5-2.2-.9-3.3-.2-.1-.4 0-.5.2-.1 1.6.6 3.7 0 4.7m-2.8 3.1c-.7-1.1-.8-2.5-.7-3.9.2-2.4.6-4.6 1.8-6.6.4 1.4-.1 3 .2 4.4-.1 1.9 1 3.1.6 5.1-.2.1-.4.2-.6.2-.7-1.1-.2-2.4-.7-3.5-1.3 1.3.4 3.3-.6 4.3m-2.1 3.9c-.2.1-.5-.1-.7-.2-.6-3.2-.4-6.7.7-9.8.2 0 .5 0 .5.2-.3 3 .4 5 .9 7.5-.2.5-.3 1.1-.5 1.5-.8-1.4-.5-3.4-1.2-4.4 0 1.8-.3 3.5.3 5.2m-.6.7c.2 0 .2.1.3.2 0 .2-.3.4-.4.4.1-.2-.3-.4.1-.6m-2.4 2.5c-.4.1-.8-.2-.9-.5-.5-3 .5-5.6 1.3-8.1.2-.4.8-.2.7.2-.4 2.5.1 5.1.1 7.5-1.1-.6-.7-2.2-1.1-3.3-.8 1.2-.4 2.9-.1 4.2m-2-1c-.2.5.2.8.2 1.2.4.6 1.6.3 1.3 1.2-4.5 4.2-9 9.1-11.9 14.4 2.9-7.5 7.4-14.1 10.8-21.4.1 1.5-.7 3.1-.4 4.6m2.7-8.5c.1-.6.5-1.2.8-1.7-.1.5-.1 1.2-.3 1.8l-.5-.1zm-1.8 1.4c-3 6.3-7.4 12-10.3 18.1-1.8 4.3-3.5 9.3-5.5 13.9-.8 2.3-1.5 4.6-2 7-.2-3.8 2-7.1 2.3-10.8.2-.3.5-.4.6-.7 0-.6-.8-1-.1-1.5.5-.1.8-.7.9-1.2-.1-.3-.8-.8-.2-1.1.3-.4.8-.4.9-.9-.2-.3-.5-.7-.3-1.2 2.3-4.9 4.7-9.8 7.5-14.5 4-6.1 8.3-11.8 12.3-17.9-1.3 3.8-4.3 7.2-6.1 10.8m5.4-6.1c-.1.1-.3.3-.4.2-.5-.9.6-1.8 1-2.5-.2.7-.5 1.6-.6 2.3m1.8-4.3c0-1-.1-2.2.9-2.8.5.5 0 1.5-.1 2.2.1.5-.4.9-.8.6m3-6.4l-.3 2.6c-.2.2-.5.3-.7.2-.4-1.1.5-2 1-2.8m1-9.8c1.2-4.4 2.7-8.5 2.9-13.1.3-3.1-.2-6.3-.2-9.4.8 1.6 1.1 3.5 1.6 5.2.4 1.8-.1 3.6.4 5.3-.4 2.7-.3 5.4-1.5 8-.4 2-1.8 3.8-2.2 5.7-2.6 4.1-4.9 8.4-8.2 12 2.7-4.4 5.6-8.7 7.2-13.7m-12.1 20.9c3.5-4.5 7.8-8.5 10.5-13.5 1.5-2.5 2.7-5.2 4.2-7.7-.8 2.1-1.4 4.2-2.7 6.1-2.5 4.6-5.5 9.2-8 13.7-3.5 5-7.4 10.4-10.8 15.1-2.3 4.6-5.4 8.9-7.1 13.8-1.2 4.1-2.9 8.1-3.3 12.5-.8 2.3-.7 4.8-.8 7.1-.4-1.7-.2-3.4-.1-5.2.4-3.5 1-7.1 1.8-10.5 1-3.7 2.5-7.8 4.1-11.5 3.2-7.2 7.7-13.6 12.2-19.9m-1.3-4c-.5.5-1.3.5-1.9.8-.1-.1-.2-.2-.2-.4 1.4-.8 2.7-1.9 4.1-2.8.1-.3-.2-.4-.3-.6-1.1.6-2.2 1.3-3.4 1.8 1.9-1.4 4.1-3.2 6.4-4.4-.6 2.3-2.8 4.2-4.7 5.6m-.9-3.3c.1-.2 0-.9.4-.4 0 .2-.3.2-.4.4m8.8-8.6c-1.3 2.2-2.6 4.5-4.8 5.8-.6 1.2-2.1.8-2.9 1.8-.2-.2-.3-.4-.2-.6 1.1-.8 2.4-1.5 3.5-2.5.1-.3-.2-.4-.4-.6-1.1.3-1.8 1.8-3.1 1.6-.1-1.5 1.8-1.5 2.6-2.5 1.9-.8 3.5-2.1 5.3-3m-7.2 3.2l.4-1.2.4.4c0 .4-.5.5-.8.8m8.4-8.2c-.2.5.2 1.2-.6 1.5-.5.9-1.2 1.5-1.9 2.3-1.3 1.2-2.8 2.2-4.4 2.8.4-1.1 2.4-1.5 3.2-2.8.1-.2 0-.5-.3-.6-1 .9-2.2 1.4-3.4 1.9 1.3-3.1 5.1-2.9 7.4-5.1m-6.6 2.7l.3-.9.5.2-.8.7zm7.8-6.6c-.1 1.3-1.8 1.5-2.2 2.9-1.2 1.2-2.8 2.1-4.5 2.2 1.2-.4 2.1-1.4 2.9-2.3-1.2-.5-2 1.5-3.3.8 2.1-2 5.2-2.5 7.4-4.6.1.4-.6.6-.3 1m1.3-5.8c.1.8-.5 1.3-.6 2.1-.7.9-1.2 2-2.1 2.7-1.5.5-2.4 2.2-4.1 2 .6-.8 1.8-1.1 2.3-2-.9.2-1.8.5-2.8.7 2.2-1.9 5.2-3.4 7.3-5.5m-6.6 3.6l.1-.8c.2-.1.3.1.3.2.1.4-.3.3-.4.6m6.6-7.6l.1.5c-.9 2.4-2.8 4.4-4.9 6-.3.2-.8.1-1-.3.6-.9 2.1-1.1 2.5-2.3-1 0-1.6 1.2-2.7 1.1-.3-.5.2-.9.6-1.2 2.1-.7 3.6-2.5 5.4-3.8m-5.7 2.5c.2-.1.2.2.4.2-.1.2-.2.4-.4.4-.2-.1 0-.3 0-.6m6-6.8c.1.6-.4 1.1-.3 1.7-.7 1.1-1.3 2.3-2.2 3.1-.6.8-1.5 1.6-2.4 1.7.6-1 1.9-2 2.5-3.2-1.1.3-1.8 1.8-3.1 2.1-.5-.2 0-.6.1-.8 1.8-1.5 3.5-3.1 5.4-4.6m-5.3 2.4c.2 0 .3.2.5.4-.1.2-.4.4-.6.7-.2-.4 0-.7.1-1.1m5.3-7.3c.3 1.4-.8 2.8-1.3 4.1-.8 1.2-1.4 2.2-2.5 3.1-.3-.1-.5.3-.7-.2.9-.9 1.8-2 2.2-3.2-.8.5-1.5 1.6-2.5 1.9.8-2.2 3.5-3.5 4.8-5.7m-4.2 3.4c.1.4-.2.7-.5.7 0-.2.1-.8.5-.7m3.9-7.3c.2 1.7-.4 3.3-1.2 4.7-.3 1.1-1.7 1.7-2.6 1.9.5-.8 1.5-1.2 1.7-2.2-.8-.2-1.1 1-1.9 1.2.2-2.6 3.6-3.1 4-5.6m-.7-3.9c.4 1.6-.4 3.5-.6 4.9-1.1.7-1.1 1.7-2.4 2-.2-1.2 1.5-1.4 1.8-2.5-.5.2-1.2.4-1.6.8 0-2 2.2-3.2 2.8-5.2M251 7.8c.5 0 .2.6.6.8.5 1.9 1.7 4.3.4 6.2l-.7.5c-1.7 11.5-3.7 23.1-7.3 34.3-2.8 7.2-5.6 14.8-8.4 21.7-.2.3-.8 0-.8.5-2.8 8.9-6.2 17.7-8.4 26.9.5-4.6 2-9.3 3.4-13.8 2.2-8.5 5.9-16.4 9.4-24.5 2.7-6.8 5.1-13.8 7.1-20.8 2-8.7 3.7-17.4 5.2-26.3.1-.7.1-1.6-.2-2.2 0 1.2-.7 2.4-.6 3.6-1.4-2.2-.3-4.7.3-6.9m-11.6 49.4c0 .1.1.3-.1.4-.8-.5-.9-1.8-1.9-2-.2 1.4 1.5 2.9 1 3.6-.4-.2-.8-.6-1-1.1-.9-1.8-1.1-4-.8-5.9 1.3 1.4 1.6 3.4 2.8 5m-2.6-6c.1-.5.1-1.1.4-1.4l.5 2.5c-.5 0-.4-.9-.9-1.1m1.4-4.6c.9 2.3 2.3 4.3 2.7 6.8l-.3.6c-.6-.8-.8-2.2-1.5-2.7-.2 1.4.2 2.9 1.1 4.1-.3.1-.7-.1-.8-.4-.5-1.4-.6-2.9-1.2-4.2-.2-1.5-.5-3.1 0-4.2m-.1-.7l.1-1c.1.3.3.6.2.9l-.3.1zm1.9 10.6c-.2 0-.5-.4-.2-.6.3-.1.4.4.2.6m-2.6 3.9l.7-.2c-2.2 4.4-3.6 9.2-5.7 13.5 1.7-5.4 2.2-11.1 3.4-16.5.6 1.1.4 2.5 1.6 3.2m3.9-9.2c.2-.1.5.1.5.3.1.2-.1.7-.5.6v-.9zm1.7-4.6c.2.1.4.2.5.4 0 .2-.1.3-.2.5-.3-.2-.4-.6-.3-.9m1.5-4.8c.2 0 .4 0 .5.2 0 .2-.1.4-.2.5-.4-.2-.5-.5-.3-.7m3.8-31.8c.7 1.9 1.5 4 1.8 6-.5-.4-.6-1.2-1-1.8-.6 1.2.5 2.4.6 3.6-1.1.3-1-1.2-1.5-1.9-.2-1.8 0-3.9.1-5.9m-1.5 4.7c1 1.4 1.5 3.1 2.7 4.6.1.4.4.8.1 1.2-.9-.2-.8-1.8-1.5-1.6.2 1.2 1 2.2 1.3 3.3-.8-.1-1-1.1-1.5-1.7-.4-1.8-1.7-3.8-1.1-5.8m-.4 3.5c.4 2.1 2.2 4 2.5 5.8-.8-.4-1-2-1.7-1.8.2 1.4 1.9 2.7 1.4 4-1-.1-.9-1.6-2-2-1.2-1.9-.3-4.3-1-6.3l.8.3zm-1.1 4c.5 2.4 2.7 4.1 2.6 6.7-1.1-.8-1.1-2.3-2-3.3-.4 1.8.7 3.5 1.5 5.1 0 .3-.1.5-.4.6-.4 0-.6-.4-.7-.7-1.4-2.5-1.7-5.9-1-8.4m-1.6 4.2c1 2.5 2.7 4.8 2.9 7.6-1.1-.5-1.2-2.5-2-2.4.5 1.3.6 2.8 1.8 3.8-.1.3-.1.7-.5.5-2.3-2.3-2.4-5.5-2.5-8.6-.2-.4.2-.6.3-.9m-1.7 4.9c.8 2.2 2.8 4 3.3 6.3.5.5.4 1.2.2 1.7-1.2-.3-.7-2.1-1.9-2.2.2 1.2.5 2.7 1.6 3.5 0 .3 0 .6-.3.7-1-.2-1.2-1.2-1.7-2-.7-2.6-1.4-5.3-1.2-8m2.1 13c-.8-.3-1.3-1.2-1.7-1.9-.2-.1-.5.1-.5.3.3 1.1 1.1 2.1 1.7 3.1-.5.5-.8-.2-1.3-.3-1.6-1.8-1.2-4.4-1.3-6.6.7 2 4.2 3 3.1 5.4m-3.1.9c.8 1.2 2.1 2.5 1.4 4.1-.6-.7-1.1-1.6-1.6-2.5-.2-.1-.3.2-.5.3.2 1.1 1.1 2.2 1.2 3.2-1.2-.5-1.2-2.2-1.8-3.3-.3-1.5-.8-3.1-.8-4.6 1.1.6 1.2 1.9 2.1 2.8m-1-8.3c.5 1.8-.2 3.9.3 5.7-.3-.3-.5-1.4-1.2-1.9.2-1.2.7-2.5.9-3.8m-2.1-9.1c1.8-8.3 1.4-16.7 1.9-25.1.7 1.6.8 3.5 1.5 5.2.2 3.3.2 6.6.1 9.9-.1 3.5-1.3 6.7-1.9 10-1.4 4.8-3 9.5-4.6 14.3.9-4.7 2.2-9.5 3-14.3m-5.6 10.6c-1.1 3.3-2.8 6.8-5.8 9.1-.2.5-1.1.8-1.1 0 1.4-1 3-2.5 3.1-4.1-1.1.9-2.1 2.1-3.3 2.8 1.5-3.1 4.9-5.1 7.1-7.8m.3-5.6c0 .7-.3 1.2-.2 2-.5.7-.6 2.1-1.1 2.5l-.1-.1c-.8 1.5-1.2 2.1-2.2 3.4-1 .8-1.9 2.3-3.2 2.1 1-1.4 2.6-2.5 3.4-4-1.4.2-2.5 2.3-4.1 2.9v-.7c2.5-2.5 5.6-4.9 7.5-8.1M228.4 11c.1 1.4-.4 2.6-.8 3.8-.8 1.2-1.8 2.7-3.1 3.5-.1-.2-.8.2-.7-.4 1.2-.6 2.1-1.8 2.4-3-1 .4-1.4 1.9-2.7 1.9 1.2-2 3.7-3.7 4.9-5.8m-.9-3.6c.4.9-.4 1.6-.2 2.4-.7.9-.5 2.1-1.6 2.8-.5.8-1.3 1.8-2.2 1.6.6-.9 1.7-1.7 2.2-2.8-.7.3-1.4 1.6-2.4 1.8 1-2.1 2.9-3.8 4.2-5.8m-2.7.4c-.5.4-1 1.2-1.7 1.4.1-1.1 1.1-1.9 1.3-2.9.8-.5 1.1-1.5 1.9-1.9 0 .5.3.9.1 1.4-.4.4 0 .8-.2 1.3-.4 1.8-1.5 3.6-3.1 4.4-.4-1.7 1.9-2.2 1.7-3.7m-1.5 7l.6.1c-.1.3-.4.5-.6.7v-.8zm.2 4.7c-.2 0-.2-.4-.1-.5.2 0 .3 0 .4.2 0 .1-.2.2-.3.3m.2 1.9c.1-.3-.2-.5 0-.9 1.9-2.1 4.3-4.2 5.9-6-.5 2.9-1.9 5.6-3.7 7.9-.6.3-1.4 1.1-2.2.5 1.2-1 2.7-2.2 3-3.7-.8 1-1.9 1.9-3 2.2m.1 5.3c1.2-2.9 4.1-5.4 6.4-7.8.2 2.2-1.4 4-1.8 6-.8.7-1.4 1.4-1.8 2.3-.8.5-1.7 1.2-2.7.7 1.4-1.3 3.4-2.5 3.9-4.4-1.1 1.3-2.6 2.1-4 3.2m.8 5c-.7-.9.5-1.7.9-2.5l5.4-5.6c1 .5-.6 1-.1 1.7-1.1 1.9-1.6 3.9-3.1 5.7-.7 1.2-2.1 2.3-3.2 2.3 1.5-1.6 3.6-3.4 3.8-5.6-.8 1.6-2.4 2.7-3.7 4m.5 3.3c2.5-2.4 5.2-4.8 7.3-7.5.3.6-.6 1-.1 1.6-.9 2.1-2 3.8-3 5.9-1.1 1.2-2.1 2.2-3.5 3.1l-1 .1c1.6-1.7 3.6-3.4 4.5-5.8-.6.1-.6 1-1.3 1.1 0 .3.2-.1.2.2-1.4.8-2.3 1.8-3.6 2.8-.2-.6.3-1 .5-1.5m-.5 4.1l.5.2c-.1.3-.3.5-.5.7v-.9zm.8 4.6c0 .2-.2.5-.4.4-.1-.3-.1-.8.4-.4m-.3 5.4c0-.4.9-.8.8-.1-.1.4-.7.5-.8.1m.3 2.4c1.6-2.9 4.4-5.2 6.6-7.8v.8c-1.2 2.8-2.4 5.6-4.8 8-.6-.1-.9.5-1.5.2 1.2-.9 2.4-2.3 3.1-3.6-.2-.2-.3-.3-.5-.2-.7 1.1-1.8 2.1-2.9 2.6m.7 2.2c-.1.2-.1.4-.3.5 0-.2-.2-.7.3-.5m.5 6c1.1-1.4 2.7-2.4 3.4-3.9-.4 1.2-.7 2.7-1.1 4-1 4.1-1.9 8.3-2.5 12.4-.2-4.3-.2-8.7-.7-12.9.3-.2.6.3.9.4m3-5c-.1 1-1.2 1.7-1.8 2.4-.6.2-1.2 1-1.8.7 1.2-1.4 3.1-2.8 3.4-4.4-1 1-1.9 2.1-3.3 2.5 1.6-2 3.3-4.4 5-6.5.3-.1.5 0 .6.3-.6 1.7-1.2 3.5-2.1 5m-4.2 35.1c.3-7.2 1.7-14.5 2.7-21.7 1.2-5.8 2.8-11.6 4.1-17.4 1.5-4.3 3.1-8.5 4.9-12.7 1-4.9 3.2-9.4 4.1-14.3-1.5 10.3-3.9 20.2-6 30.2-.8 5.3-1.7 10.7-2.9 15.8-1.5 8.1-4.2 15.8-6.1 23.8 3.2-15.8 6.2-32.1 9.1-47.6-3.9 14.5-7 29.2-9.9 43.9m.6 23c.2.4.6 1 .2 1.5-.7-.3-.2-1-.2-1.5m1.2.7c.2-3.2 2.8-5.8 2.6-9 .3 0 .5-.2.8-.5-.8-1.3 1.4-1.8.7-3.1.9-1.8 2.2-3.5 2.7-5.3 4.6-8.4 11.9-14.7 17.8-22.2 2.5-4.4 5.6-8.3 7.8-12.8 1.3-2.7 2.5-5.5 3.9-8.1 1.1-3.2 2.6-6.3 3.1-9.7l-.4.4c0-.3-.1-.7-.4-.8-.4.7 0 2-.4 2.8-.6-1.5-1-3.8-.2-5.5.1-1.2.7-2.4 1.2-3.3.2 1.8 0 4 .2 5.8.8-3 .9-6.4 2.8-9.1.3 1.6.8 3.3.5 4.8.3 1.3-.4 2.3-1.2 3.3.1-.9.5-2.4.2-3.3-1.2 4.7-3.1 9.2-4.7 13.7.4.4 1-.6.9.3-.3.3-.8.4-1.1.4-2.7 6.6-6.3 12.8-10 18.9-4.8 7.6-11.5 13.6-16.8 20.8-1 1.8-2.1 3.4-3.2 5.1-1.9 3-2.5 6.6-4.1 9.8-1.7 4.8-2.9 10.1-4.1 14.7.6-2.7.9-5.5 1.4-8.1m.3 9.3c-.8.3-1.9.2-2.5.6-1.2.4-2 1.2-3.1 2-1.8 1.8-1.4 4.8-.9 7.2 1 1.4 2.1 3.3 3.9 3.8.8.2 1.5.5 2.3.6-.8.3-1.7 0-2.5 0-3.2-.9-4.5-4.5-5.4-7.1-.2 1.7.3 3.5 1.1 4.9.5.8 1.3 1.2 1.8 1.9-2.2-.5-3.5-3.1-4-5.2 0-1.2-.4-2.8.5-3.8-.1-1.4.8-2.4 1.8-3.3 1.9-1.6 4.3-2.2 7-1.6m-41.8-89.1c-.3-2.3-.4-4.9.1-7.4.3-1.6.4-3.4 1.3-4.6-.5 2.5.4 5-.1 7.4.6 4.3 1.2 8.7 3 12.8.6 2.3 1.6 4.5 2.6 6.5 1.4 2.4 3 4.7 4.5 7.1-2.1-2.3-3.9-5.1-6-7.6-1.8-2.5-2.8-5.4-4.1-8.1-.4-2-.9-4-1.3-6.1m3.2 11.6c.4.2.4.8.6 1.2 4.1 8.1 12.2 13.3 16.5 20.9.3.3.8.1 1 .5 3.2 5.2 7 10 9.8 15.5 2.6 6.3 5 12.8 6.6 19.5.7 5.1 1.9 10.2 2 15.3-.8-4.8-1.5-9.7-2.5-14.5-1.1-2.9-2.4-5.9-2.9-9-1.6-4.1-3.6-8.1-5.7-11.9-6.3-10.7-15.2-19.4-21.4-30.1-2-2.2-2.9-4.9-4-7.4m27.2 46.6c-1.8-2.9-3.2-6-4.8-9-5.3-7.8-10.4-15.7-15.2-23.8 1.6 2.6 3.8 5.1 5.6 7.7 1.9 2.1 3.5 4.6 5.3 6.8 3.8 5.2 7.1 10.7 9.6 16.4 2.6 6.2 4.7 12.6 6.1 19.2-2.1-5.8-4.1-11.6-6.6-17.3m1 4.9v.3l-.4-.5c.2-.1.3 0 .4.2M201.6 74c-.2 1-.4 2.1-.8 3.1-.7-2.4.5-4.8-.2-7.3.6-1.7 1.1.7 1.4 1.2.5 2.1 1.3 4.1.8 6.5-.2.4-.7.4-1 .6.1-1.2.8-2.9-.2-4.1m-2.6 1c-.1-1.5.4-3.2.2-4.8-.1-.2-.3-.4-.5-.2.3 1.3-.4 2.6-.8 3.8 0-2.9.3-5.8.4-8.8.6-.2.5.5.7.8.6 2.2 1.1 4.4.9 6.7-.2.9-.3 2-.9 2.5m.4 1l-.2-.1c.1.1.2 0 .2.1m-2.8-8.9c-.1-.2-.3-.3-.5-.2-.4 1.1-.3 2.4-.8 3.4-.3-.1-.7 0-.7-.5.5-1 .5-2.3.7-3.5.3-1.8-.2-3.8-.2-5.5 1.3 1.8 1.6 4 2.2 6.2-.2 1.3.1 3.1-.9 4-.1-1.3.5-2.5.2-3.9m-3.3-3.7c-1.1.6.1 2.5-1.2 3.3-.2-3 .8-6.4.9-9.6.4 0 .5.4.5.7.9 2.8 1.4 6 .7 9.1-.3.4-.3 1.1-.8 1.3-.4-1.5.6-3.3-.1-4.8m-1-9.4c.5.5 1.2 1.3.9 2.2-.2.2-.5.3-.7.2-.2-.8-.7-1.9-.2-2.4m2 3.7c1.1-.3.8 1.3 1.1 2-.2.2-.5.4-.7.2-.5-.6-.6-1.4-.4-2.2m2.1 3.4c.5.9 1.4 1.8 1.5 2.9-.2.2-.3.3-.5.2-.8-.9-.6-2.1-1-3.1m3.2 5.2c.5.8.9 1.5 1.4 2.3-.2.1-.4.3-.6.3 0-1-.7-1.8-.8-2.6m4.4 10.9c.1-1.8-.8-3.6-1.1-5.4.8.9 1.2 2.5 2.2 3.1 4.3 6.8 8.1 14.1 11.5 21.2-2-4.4-5.2-8-8.4-11.6-1.6-2.2-4.3-3.2-5.8-5.5.7-.3 1.5-1 1.6-1.8m-14-18.4c.7-2.1 0-4.3.2-6.4.1-.5.8-.5.9-.1.7 2.8 1.1 5.6.8 8.6-.3.8-.2 1.8-.9 2.5-.8-1.3.4-3.2-.3-4.2-.4 1.1-.6 2.3-1.2 3.2-.6-.3-.4-1.1-.4-1.7.6-.4.2-1.4.9-1.9m-1.6-8.8c.4.2.5.8.7 1.2.7 2.5.6 5.5-.2 7.8-.4 0-.8.3-1.1 0 .3-1 .7-2.1.4-3.2-.8.5-.5 1.7-1.1 2.4-.7-2.5 1.8-5.3 1.3-8.2m-2.3-4.7c1 2.5 1.8 5.4.9 8.1-.3.4-.2 1.2-.8 1.2-.3-1.1.4-2.2.1-3.4-.2.9-.5 2.2-1.3 2.5-1-2.7.8-5.6 1.1-8.4m.3 10.2c.1.5-.6.5-.6 0-.1-.4.6-.3.6 0m-3-13.6c1.1 2.2 1 4.4 1.2 6.9 0 .6-.3 1.2-.8 1.6-.4-1.1.3-2.7.1-4.1-.9.7-.4 1.9-.9 2.9-.5-.3-.5-1-.7-1.6.6-1.8.9-3.8 1.1-5.7m-3-4.2h.2c.7 1.3 1.2 2.8 1.9 4.2.4 1.6 0 3.2-.6 4.7-.7-1.3.1-2.9-.6-4.1-.5.6.2 1.4-.4 2-.4-2.2-.7-4.6-.5-6.8m-4.7 2.5l.2.1c1 2.1 3.4 3.8 3.9 6-.7-.1-1-1-1.6-1.3.3.7.7 1.7 1.6 2.2-.8.3-1.6-.3-2.2-.9-1-1.9-1.7-3.9-1.9-6.1m2.4 9.8c-.8-1.3-2-2.7-2-4.2 1.7 1.3 3.3 2.9 5.1 4 .3.3.6.7.7 1.2-.8.1-1.3-.7-2-1-.2 1.3 1.5 1.5 2.3 2.3-1.6.8-2.8-1.2-4.1-2.3m2.1-1.9c.1-.3.5 0 .6.2v.1c-.3.2-.5-.1-.6-.3m3.5 5.6c-.4-.2-1.3 0-1.2-.8.3-.5.6.3.9-.2-2.1-4.3-3.7-8.9-5.2-13.5 0 1-.1 2.3.4 3.3-.6-.2-.8-.9-1.2-1.4-.3-2.2-.3-4.6.3-6.5.8 1.7 1.9 3.2 2.5 5 0 .7.4 1.2-.2 2-.2 2.6 1.6 4.5 2.1 6.9 1.3 2.9 2.2 5.9 4 8.6 3.3 6.6 7.6 12.6 11.9 18.6 4 3.7 7.6 7.7 11.6 11.5 1.9 2.2 3.6 5 5.4 7.5 1.8 3.1 3.6 6.4 4.9 9.8 2.4 5.3 4.3 11.2 4.7 16.9-.6-5-2.7-9.5-4.1-14.3-1.9-3-3.4-6.4-4.6-9.5-1.8-2.5-3.4-5.1-5.3-7.6-4.5-5.2-9.9-9.6-13.8-15.3-2.6-3.4-5.1-6.8-7.5-10.5-2-3.5-4.2-6.8-5.6-10.5m15.1 24.9c.2.1.5.4.4.7-1.1.5-2.3-.2-3.4-.2.8.9 2.3 1.2 3.5 1.2v.6c-1.8.3-3.4-.8-4.8-1.5-.9-.7-2-1.3-2.6-2.2 2.3.5 4.7.5 6.9 1.4m-1.8-1.9c.2-.1.3.2.4.3-.3 0-.6 0-.4-.3m3.6 4.3c.1.4.7.4.6.9 5.3 4.8 10 10.5 13.4 16.8-1.7-2.8-4.3-4.9-6.2-7.5-3.3-3.3-7-6.2-10.4-9.1 1.1.1 1.9-.8 2.6-1.1m-6.3-8.1c-.1 0-.3.2-.4.1.1-.4.2-.4.4-.1m-3-4.5l-1.1-.4c0-.3.3-.4.6-.4.1.4.5.5.5.8m-3.3-4.9v.2l-.9-.2c-.1-.2.1-.4.2-.6.4 0 .5.4.7.6m-2.6-5c-.2.2-.6.2-.7-.2.1-.4.7-.2.7.2m-5.6-1.2c1.9.9 4 1.4 6 2.3.4.4.6.9.8 1.4-1.5-.1-2.8-1-4-1.5.7 1.8 3 1.7 4.3 2.9-1.8 1.4-3.1-1-4.6-1.7-1.1-.9-2.2-2.1-2.5-3.4m1.3 4.2c2.2.7 3.9 2.5 6.2 2.8.9.2 1.8.8 2.2 1.6-1.2.2-2.5-1.2-3.8-.9.7 1.5 2.7 1.4 3.9 2.3-1.6.2-3.1-.8-4.5-1.5-1.6-1-3.4-2.4-4-4.3m2.3 5.2c2.3 1.5 5.1 1.6 7.6 2.6.5-.1.9.1 1.2.4.2.3.6.5.4.9-1.4 0-2.6-.9-3.8-1 1.1 1.3 2.8 1.7 4.2 2.5-2.4.2-4.6-1.2-6.7-2.2-.9-1-2.6-1.7-2.9-3.2m3.4 4.8c2.1 1.1 4.6 1.4 6.8 2.3.9.1 2.1.3 2.4 1.3-1.2.2-2.7-1.2-3.5-.5 1.1.8 2.5 1.1 3.6 1.9l-2.2-.1c-2.6-1.4-5.1-3-7.1-4.9m7 8.3c3.2 2.3 6.3 5.1 9.4 7.3 4.1 5.5 9.7 9.8 13.4 15.7 1.8 2 2.4 4.7 3.4 7-2.1-3.8-4.7-7.4-7.3-10.8-3.7-2.6-6.2-7.1-10.1-8.8 6.7 6.8 13.6 13.7 17.7 22.5 1 2.8 2.4 6.1 2.5 8.8v0c-.2-2.2-2.4-3.9-2.1-6.1-2-5-6.4-8.5-9-13.2-3.8-4.2-7.6-8.6-12-12.2-5.7-5.8-12.4-11.1-15.8-18.4 3 3.2 6.5 5.7 9.9 8.2M178 64.6c-1.8-3.6-2.8-7.5-3.3-11.5-.4-1.1-.1-2.3 0-3.3l.2.4c1.4 7.8 4.3 15.1 8.2 21.9 1 1.5 2.2 2.9 3.1 4.5-3.6-3.5-5.8-7.9-8.2-12m5.9 18.9c.3-1.1 0-2.3 0-3.4-.2-.2-.4-.4-.6-.1-.1 1.1-.1 2.2-.4 3.2.2-2.3.3-4.9.3-7.3.5.4.8 1.2 1 2 .3 1.8.9 4.1-.3 5.6m2.7 2c-.3-.9 0-2-.5-2.8-.8.5 0 1.7-.6 2.5-.5-1.5-.2-3.8.1-5.6 1.3 1.5.9 3.5 1.6 5.2.2.4-.3.6-.6.7m.7 1c1.7-.7.5-2.4.4-3.6l-1.5-4.1c-.3-.2-.8-.5-.9-.1-.6-1.2-1-2.6-1.5-3.8l11.6 11.7c4.9 4.9 9.4 10 14.1 15 3.6 4.2 6.6 8.8 9.2 13.5.9 2.4 2 4.7 2.6 7.3-.4 0-.2.6-.6.5.4-2.2-2.4-3.5-2.1-5.7-3-4.8-6.5-9.1-10-13.5-2-1.1-2.8-3.5-4.8-4.6-5.4-4.4-11.1-8.3-16.5-12.6m-5.6-.8v.2c-.2 0-.6 0-.8-.3.1-.3.6-.2.8.1m-6.3-7.7c.2-.1.2.2.3.3-.3.1-.4 0-.3-.3m-12.8-18v-.9c1.6.6 3.4 1.5 4.1 3.2-.8-.1-1.5-1.1-2.3-.8.7.7 1.7 1.2 2.4 2-.6.5-1.2-.1-1.7-.3-1-.9-1.5-2.3-2.5-3.2m1.4 3.1c1.5.9 3.5 1.2 4.4 2.8-.5-.1-1.3-.4-2-.7 0 1.1 1.6 1.1 2.3 1.9-1.1.5-2.1-.4-2.9-1-.8-.9-1.4-2-1.8-3m.3 2.7c1.7 1.2 3.7 1.9 5.5 2.9l.6.6c-1 .3-1.9-1.2-2.5-.5.7.6 1.6.9 2.2 1.6-1.2.2-2.1-1-3.2-1.5-1.1-.8-2.3-1.7-2.6-3.1m2.1 5.2c-.2-.5-.8-.7-.7-1.2 2.1 1.3 4.9 1.1 6.5 3.2-.9-.2-2-.6-2.8-1.2.2 1.3 2.1 1.7 3.4 2.1-2.4 1.1-4.5-1.6-6.4-2.9m1 3.2c2.3 1 5.6-.1 7.1 2.3-1.1-.2-2.3-.5-3.2-.6.9.9 2.1 1.4 3.3 1.7-1.1.6-2.3-.3-3.4-.6-1.5-.4-3.1-1.5-3.8-2.8m2.5 4.1c2.5.7 5.3 0 7.3 1.8v.1c-1.1.5-1.9-.9-2.9-.2.5.8 1.8.9 2.7 1.5-1.2.2-2.3-.5-3.4-.5-1.3-.9-3.1-1.4-3.7-2.7m2.1 3.5c2.7.3 5.8 0 7.8 2-1.4-.2-3.1-.6-4.2-.7 1 1.3 2.9 1.1 4.3 2-2.3-.9-6.1-.6-7.9-3.3m22.6 16.7c-2.5-2.1-5-4.4-7.9-5.8-6.8-4.9-15.4-7.2-22.7-9.9 5.5.1 10.3 1.6 15.2 3 8.1 3.7 16.1 7.7 23.1 13.9 3.4 2.7 6.5 6.1 9.1 9.4.8 1.5 2.5 2.8 3.3 4.5 2 3 3.3 6.5 4.8 9.8.1.4-.4.7-.7.9 0-.9-.5-2-1.4-2.5.2-.3.2-.6.2-1-.2-.7-1.5-.1-1.3-1.1-.1-.3.5-.7.1-1.1-.6-.2-1.1-.5-1.3-1.2 1-1.7-2-1-1.2-2.7-2.2-2.9-4.9-5.5-7-8.6-1.9-1.7-4.1-3.3-5.8-5.4-2.5-1.6-5-3.8-7.6-4.7 8 5.6 15.1 13.7 20.4 21.8 1.2 2.5 2.8 4.8 3.6 7.4-.3.2-.6.1-.9.1-.5-3.2-3-5.6-4.5-8.4-1.3-2.4-3.4-4.2-4.7-6.5-4.4-3.9-8.2-8.3-12.8-11.9m16 19.6c-2.5-3.5-5.3-6.6-8.4-9.5-3-1.4-5.7-4.3-9-5.6-3.5-1.3-6.7-3.2-10.3-4.4-4.4-1.4-9.1-2.6-13.4-3.7 3.2 0 6.4.5 9.6 1.1 2.5.7 5.1 1.3 7.3 2.1 2.8 1.1 5.6 2.2 8.2 3.7 2.4 1.6 5.3 2.8 7.3 5.3 5.6 4.8 10.3 10.9 12.9 17.8-.3.2-.6 0-.9-.2-.4-2.5-2.7-4.1-3.3-6.6m-19.7 3.7c1.6.1 2.8-1.1 4.4-.5 7.8.3 14.5 4.8 22.2 5.6.2.2.1.6-.2.7-4.1.1-8.5-1.9-11.9-1.9 3.9 1.4 7.7 3 11.8 3.5.3 1.2-1 .8-1.6.9-2.6-.2-5.1-1.2-7.6-1.8-4.9-1.4-9.5-3.8-14.5-5-1.8-.2-3.6-.2-5.4.5.2-1.3 1.9-1.2 2.8-2m-.9 12.4c-.3-.2-.2-.6-.2-.9 5.7.1 11.4-.9 17.1-1.4.1-.3.3-.5.7-.7 2 .2 3.6.2 5.9-.2-7.3 2.3-15.4 3.3-23.5 3.2m13.5 0c-3.3 1.6-6.5 3.5-10.1 4.1-1.5-.1-2.3-1.6-2.8-2.8 4.3-.2 9 0 12.9-1.3m-13.9-3.2c4.9-.4 9.7-1.2 14.5-1.8 1 .6 2-.3 3.1.2.2.3.6.1.8.4-6.1 1.1-12.3 2.1-18.5 2.3.5-.3-.2-.6.1-1.1m0-.6c.2-1.6.8-3.2 2-4.6.2-.5.9-.8 1.5-1.1 2.8.5 5.4 1.5 7.9 2.5.9.3 1.9.5 2.7 1-4.8.8-9.6 1.3-14.1 2.2m-15.5.1v.2c-3.5.1-7.5.2-10.5-1.9 3.4.8 6.9 1.5 10.5 1.7m2.2 3.2c-3.1-.6-6.4-1.2-9.1-2.6 2.2.4 4.5.7 6.8.9 3.4-.3 6.8-.1 10.3-.2.1.1 0 .3.1.5-1.8.2-3.8.5-5.4.5 1.6.6 3.7.6 5.5.6.2.2.2.4.2.6-2.8.3-5.6-.2-8.4-.3m8.9-6c.8-.6.8-1.9 1.8-2.4 1.1-.5 2.3-1.2 3.6-.7l-1.3 2.3c-.1 1.7-1.2 3.2-.7 4.9-.1 2.7 1.5 4.8 2.8 7-.2.3-.6.1-.8-.1-1.6-1-1.9-2.9-3-4.3-.5-1.5-.6-3.5-.8-4.5-.8 1.2.1 2.6-.2 3.9.5 1.7 1.4 3.1 2.2 4.7-.4.3-.8-.3-1.2-.5-1-1-1.6-2.3-2.3-3.3-.7-2.2-.1-4.7-.1-7m28.9 7.6c-4.8 1.4-9.4 3.2-14 5-2.8.8-5.7 1.5-8.8 1.1-1.4-.6-3.2-1.2-3.7-2.6l2.2 1.1c7 .4 11.9-4.1 18.1-5.6 3.1-.9 6.5-2.6 9.6-1.9-2.7.6-5.5 1.1-7.9 2.3-1.2.6-2.5 1.1-3.6 1.9 3.9-1.1 7.8-2.3 11.9-2.6.1.2.2.5.2.7-1.4.1-2.7.3-4 .6m-21.8 44.1c-.3-.3-1.2.1-1.2-.7.2-.4-.1-1 .5-1.2.4 0 .7.2 1 .6.1.4.2 1.1-.3 1.3m20.9-28.8c-1.7 4.7-4.4 8.8-6.7 13.1-2.8 3.5-5.2 7.4-8.4 10.7-1.8 1-2.8 3.1-4.7 3.8 0-.4-.6-.9-1-1.2 3.6-3.3 6.8-7.4 10.2-10.7-.2-.2.3-.2.3-.5 1.4-1.6 1.1-1.7 2-2.7-.1-.3.2-.1.3-.4.2-.3 0-.4.3-.5 2.1-3.3 4.1-6.8 5.8-10.2 1.3-3.1 2.5-6.3 3.4-9.6.6-1.9.6-4 .9-6 .3.1.2.7.4 1 .3 4.4-1.7 8.9-2.8 13.2m-16.6 35.6c-.5.3-.9.5-1.4.1 0-.6-.3-1 0-1.6.4-1.1 1.5-.4 1.8.2 0 .5-.5.8-.4 1.3m17-27.8c-1.7 3.9-3.3 7.8-5.5 11.5-1.6 3.2-3.7 6.1-5.8 9.2-1.7 1.8-2.8 4-4.6 5.5-.4-.4-.6-1.2-1.4-1.1 2.6-2.5 4.5-5.9 7-8.1-.1-.2-.3-.3-.2-.6 1.6-1.6 2.7-3.7 4.1-5.3.4-1.9 2-3.8 2.2-5.3 1.6-3.1 3.6-6.4 4.4-10.1 1.6-5.7 3.1-11.5 3.5-17.7.1-.2.3-.1.5-.2-.5 5.9-1.6 11.8-2.8 17.5-.5 1.6-1.6 3.2-1.4 4.7m-10.9 34.1c-.3.3-.5-.2-.8-.2-.5-.6.1-1.5-.1-2.2.3-1 1.5 0 1.4.6 0 .7 0 1.4-.5 1.8m13.5-33c-.4 2.5-1.5 5.2-1.7 7.4-1.1 4-3.1 7.8-3.9 11.8-1.8 4.3-4.4 8.1-6.1 12.4-.5-.8-.8-1.8-1.7-2.3 2.1-3.4 4.5-7 5.8-10.6 1.8-2.8 2.1-6.3 3.8-9.1l-.4-.1c1-2.2 1.9-4.1 2.3-6.5 1.7-8.7 3.7-17.4 4.6-26.3.1 0 .3-.1.4.1-.1 7.9-2.5 15.5-3.1 23.2m1.3 0c.5-1.5.4-3.2 2-4.1 1-1.1 2.4-1.4 3.7-1.9 2.8-.3 6.3-.9 8.9.5-.2.9.5 1.7.2 2.7-3.6-.8-8.3-1.3-11.8.4-1.1.4-2.3 1.2-3 2.4m15.3-11.2c.7 1.6.4 3.8.8 5.5.6 2.1 1.2 4.2 1.6 6.4-4.4-1.2-8.9 1.1-13.2-.5-.4-.3-1-.8-.8-1.3l1.2-.4c.4.4 0 1.7 1 1.4.4-.6.1-1.8 1.1-1.8.5.7-.1 1.6.7 2.2.7-.8.3-2.4 1.5-2.4.7.8.4 2.1 1.4 2.5.1-.8.3-1.7.8-2.4.9 0 .8 1.5 1.2 2.3.5-.6.3-1.9 1.3-2.1.2.8.8 1.3 1.4 1.8.2-.3.3-.7.2-1.2l.6-.1c-.8-3.2-.6-6.6-.8-9.9m-13.2 17.9c.3.2 0 .9.5.8.3-.7.4-2.3 1.5-2 .3.4 0 1.3.7 1.4.4-.4.5-1.5 1.4-1.1.5 0 .2 1.1.9.7.3-1 1.5-.8 2.3-.5-3.1.9-6.4 1.4-9.1 3.3.5-1.4.6-3 1.4-4.3.9.1.1 1.2.4 1.7m1.5-2.3c-.8 0-1.5-.7-2.2-.8-.7-.6-1-1.5-.7-2.3 1.5 2 3.7 2.2 5.7 2.5 1.8.4 4 0 5.5-.6-2-.2-4.1.1-6-.2-1.7-.3-3.7-1.3-4.1-3.1l.4-.4c.9 1.8 3 2.6 4.8 2.5 2-.2 4.1.1 6.2-.4 1.6 0 3.3-.2 4.9.6.8.8.8 2 1 3.1-5.2-1.1-10.3.5-15.5-.9m-5.5 11.8c.2-1.5.6-3 .9-4.4.8-1.2 2.1-1.4 3.3-2.3 3.1-1.7 6.6-2.2 10-3.1 1.7-.2 3.3-.5 5-.3-.1.4-.8.6-1.2.8-3 1-6.3.9-9.3 2.3 2.5-.5 5.6-.5 8.4-.9 1.4-.3 2.8-.5 3.8-1.5.4.3.4.9.3 1.4-4.5 2.3-10.1 1.7-14.8 3.8-.9.7-2.5.3-3.3 1.5-1.5.4-2.2 2.3-3.1 2.7m20.8-3.9c.2 2.2.8 4.4.9 6.5-2.9-1.4-6.1-.8-9.1-1.5-2.9.2-5.7-1.4-7.9-3.1-.2-.5.3-.5.6-.7 1.2-.3.5 1.3 1.4 1.6.7-.6.2-1.9 1.2-2.3.5 1 .5 2.2.9 3.1.4-1 .3-2.5 1-3.5.8 1.1.5 2.6 1.1 3.7.8-1-.1-3.4 1.5-4.1.4 1.2.4 2.9 1.1 3.8-.1-1.4.5-2.8.7-4.2.2-.2.4-.2.6-.2.3 1.6.1 3.2.9 4.7.4-1.6.4-3.4.9-5 .2-.1.5-.1.7-.2.6 1.7.7 3.5 1.3 5.2.4-1.9-.2-4.1.7-5.6.6-.4 1.1-.1 1.2.6.3.2-.3.8.3 1.2m-19.2 7.8c.3-.1.4.2.6.4 0 3.8-.7 7.8-.7 11.5 1.3-3.6 1.6-7.4 2.8-11 .2.1.5.1.7.3-.4 3.2-.8 6.5-.9 9.7 1.1-2.8 1.6-6.3 2.8-9.4l.7.3c-.3 2.7-.9 5.7-.5 8 .8-2.5 1.5-5.1 1.8-7.7.3-.3.5.2.9.2 0 2.2-.4 4.4.1 6.5.8-1.7 1.7-4.1 1.9-6.3l.6.1c.9 2.2-.9 4.7.3 6.6.8-2.2.8-4.3 1.7-6.4.5-.2.4.3.6.5.1 1.5-.1 3.1.4 4.6.8-1.3.8-2.9 1.2-4.4l1.1.1c.7 1.2-.2 2.7 1 3.7.3-.9.5-1.9.7-2.9 1.2-.3.9 1.4 1.1 2.1 1.1.3.5-1.1 1.3-1.4.7.4-.1 1-.2 1.5-5.7 3-12.2 4.5-18.4 6.6-1 1.2-2.7 1-3.7 2.1.6-5.3 1.4-10.3 2.1-15.3m21.6 25.6c-1.2-1-2.8-.9-4.1-1.7-2.2-.5-4.7-.6-7-.8-2.9.5-5.8.3-8.6.8-1.6.4-2.7-.4-4.3-.8-.4-.4-.3-1.1.2-1.5 2.2 1 5 1.3 7.6.8 3.3-.8 6.6-.8 9.9-.9-2-1-4.1-.2-6.2-.7-2.3.5-4.7.3-6.8.7-1.2-.1-2.1 0-3.1-.9 0-.3.4-.6.7-.7 1.4.5 3 .8 4.5.6 1.4 0 2.8-.3 4.3-.5 3.6-.5 8-.4 11.6.4.3.5.9.2 1 .8.1 1.5.3 3 .3 4.4m-10.5-7.1c.7-.8.5-2.1.7-3.1.2-.3.7-.3 1.1-.5.3 1.1.2 2.3.8 3.3.4-1.3.5-2.4.7-3.7.3-.2.7-.2 1-.3.4 1.2.3 2.8.9 3.8.3-1.3.3-2.8.5-4.1.2-.3.7-.4 1.1-.5.5 1.6.5 3.4 1 4.9.7-1.5.2-3.6.7-5.5.6-.7.5.3.7.6 0 2 .5 4.2.7 6.2-2.1-.8-4.4-1-6.5-1.2-2.7.1-5.8.3-8.1.9-1.6.1-3.2.2-4.7-.2.5-.2 1.1-1 1.8-.6l.7.6c.2-.8.5-1.4 1.3-1.5l.8 1.5c.5-.7-.2-2.5 1.4-2.2.2.6.5 1.4.9 1.8.5-1-.1-2.9 1.6-2.9.8.8-.1 2 .9 2.7m9.4-7.5c-1.1.9-2.6.8-3.6 1.8-4.8 1.2-9.4 3-14.1 4.4-2.2.9-4.5 2-6.1 3.8 0-1.6-.1-3.6 1.7-4.4.6-.7 1.6-.7 2.2-1.4 6.6-3.7 14.4-4.3 21.1-8-.2.7-.7 1.3-1.5 1.5-4 2.8-9 2.9-13.1 5.3 4.9-1.4 10.2-2.1 14.7-4.7-.2.6-.6 1.2-1.3 1.7m1.3-6.8c-4.7-2.5-10.1-2.1-15.1-3.6-2.5.1-5-1.5-6.9-2.5 0-.6-.3-1.5.3-1.8.4.5.8 1 1.5 1.3 2.6 1.2 5.5 2.3 8.4 1.9-2.1-.2-3.8-1.3-5.9-2.1-1.1-.5-3.3-1.4-2.5-2.9 1 1.2 2.4 1.6 3.7 2.5 4.7 1.7 10 1.1 14.7 2.8 1.8.8 1.4 2.8 1.8 4.4m11.3 5.1c.8.4.5 1.7.5 2.5-.2.2-.5.2-.8.2-.5-.5-.7-1.1-.6-1.7.3-.4.3-.9.9-1m-10.8-20.1c3 6.6 5.5 13.6 10.4 19.1-.6.7-1.3 1.6-1.4 2.7-4.6-6.8-7.8-14.4-10.5-22.1-1.7-10.1-5.1-19.8-6.3-30-.2-1 .3-1.5.2-2.4.3 1.5.5 3 .7 4.5 1.7 9.4 4.3 18.8 6.9 28.2m17.4 14.6c.4.5.4 1.4.8 1.8 0 .3-.3.4-.5.6-.5-.1-1-.3-1.5-.7-.3-.4-.1-1 .1-1.4.3-.2.8-.7 1.1-.3m-17.5-25.2c1.4 3.8 3.6 7.3 5.5 10.9 3.1 4.7 6.9 9.4 10.9 13.5-.3.5-.6 1.1-.5 1.7-.7.1-.5-.8-1.2-.8-5.4-6.4-10.5-13.2-13.9-20.7-1.5-5.4-4-10.4-5.2-15.9-.8-3.6-1.5-7.4-1.7-10.9.4-.1.3.4.4.6.5 3.2.7 6.5 1.8 9.4 1.1 4.1 2.5 8.2 3.9 12.2m.6-7.3c1.7 4.2 4.6 8 7.3 11.8 2.9 4.1 6.3 7.8 10.2 11.1.4 1.5 3.8 1.6 2 3.6-.8 0-1.1-1.3-2-1-2.3-2.2-4.8-4.2-6.9-6.7-3.5-3.8-5.7-8.6-8.7-12.8-2-4.1-4.2-8.1-5.7-12.5-1.1-2.1.1-4.6-1.2-6.8.6-.5-.9-1.7.4-1.4.4.5-.1 1.2.2 1.8 1 4.5 1.9 9 4.4 12.9m20.4-11.2c-3.7 1.2-7.9 0-11.4-.9-3.3-1.2-6.5-2.7-9.9-3.3-2.1-.6-4.3-.9-6.5-1.1 0-.3.2-.6.4-.7 1.5-.1 2.8.5 4.1.4 2.6.5 5.4 1.5 7.8 1.8-3.6-1.9-7.6-3.1-11.6-3.4 0-.2-.2-.5.2-.7 5.3-.3 9.5 2.3 14.3 3.4 4.3 1.6 8.4 4.1 13.4 3.3.7-.2 1.3-.6 1.9-1.1-.4 1-1.6 1.8-2.7 2.3m3.4-4.1c-.5.6-1.1 1.1-1.7 1.4 1.3-2.8 2.9-6 1.6-9-.3 2.7-.8 5.5-2.2 7.9-.8.5-1.1 1.5-2 1.7-.1-.4.5-.8.6-1.2 2-3.2 2.8-8.2.6-11.5l-1.2-1.7c1.1-.1 2.4-.3 3.5.6 1 .4 1.3 1.4 1.9 2.2 1 3 .3 6.8-1.1 9.6m2.3-3.1c-.2-.2-.1-.9.4-.8 1.8.1 3.4-.3 5-.4.3-.2.1-.4-.1-.5h-5.1v-.9c5.5 0 11.6.2 16.8-1-5 2.5-10.9 3.4-17 3.6m18.9-4.9c-2.8.8-5.7 1.4-8.6 1.2 3.4-.8 7-1.1 10.2-2.2 0 .7-1.1.4-1.6 1"/><path class="st1" d="M57.4 111.9h58.1M229.6 111.9h184.5"/><path class="st2" d="M201.1 96.2c-.3-.1-.7-.5-1.1-.8-.8-.5-1.2-.7-2.4-.8-3.9-.2-11.9 5.9-18.3 11.9-6 5.7-7 7.1-11.9 13.4-1.1 0-1.3-2.7-.8-3.7 2.5-4.8 7.1-10.5 12.1-15.7 3-3.2 6.3-6.1 8.6-7.5 1.5-1 4.2-1.6 6.6-1.6-3.9 2.5-9.2 7.2-13.3 11.9l.3.4c5.2-4.5 15-13.1 19.6-12.2 1.6.3 2.3 1.4 2.2 2.8-.2 1.4-1.2 2-1.6 1.9M68.1 96.2c0 .1-.6.1-.5 0 .2-.9-.6-1.3-2.8-1.3-1.1 0-1.2.1-1.2.8-.1.8-.1 2.1-.1 4.2 0 4.3.1 5 .5 5.1.4.2.8.3 1.5.3.2 0 0 .6 0 .6-.4 0-1.7-.1-2.7-.1-1.1 0-2.2.1-2.6.2 0 0-.2-.5-.1-.6.6-.1.9-.2 1.4-.4.4-.2.5-.9.5-5.2 0-2.1 0-3.5-.1-4.3-.1-.7-.2-.8-1.3-.8-2.4 0-3 .3-3.3 1.5 0 .1-.6 0-.6-.1.1-.6.5-2.3.8-2.9.1-.1.6 0 .5.1-.1.6.5.7 4.8.7 3.5 0 5.1-.1 5.4-.8.1-.1.6 0 .6.1-.3.9-.5 1.8-.7 2.9M87.4 106c-.4 0-1.3-.1-2.3-.1-1.1 0-2.2.1-2.6.2-.1 0-.2-.5-.1-.6.6-.1.9-.2 1.4-.4.4-.2.5-.9.5-4.9h-7.7c0 4 .1 4.7.5 4.8.4.2.8.3 1.5.3.1 0 0 .6-.1.6-.4 0-1.6-.1-2.7-.1s-2 .1-2.4.2c-.1 0-.2-.5-.1-.6.5-.1 1-.2 1.3-.4.4-.2.4-.9.4-5.2s0-4.9-.4-5.1c-.3-.2-.8-.3-1.3-.4-.1 0 0-.6.1-.6.4 0 1.4.1 2.5.1s2.2-.1 2.6-.2c.1 0 .2.6.1.6-.7.1-1 .2-1.5.3-.4.2-.5.9-.5 4.8h7.7c0-3.9-.1-4.5-.5-4.6-.4-.2-.8-.3-1.4-.4-.1 0 0-.6.1-.6.4 0 1.7.1 2.7.1 1.1 0 1.9-.1 2.3-.2.1 0 .2.6.1.6-.5.1-1 .2-1.2.3-.4.2-.4.9-.4 5.2s0 4.9.4 5.1c.3.2.7.3 1.2.3 0 .3-.1.9-.2.9M101.9 106c-.6 0-2.8-.1-4.5-.1-1.7 0-3.8.1-4.5.2-.1 0-.2-.5-.1-.6.5-.1 1-.2 1.3-.4.4-.2.4-.9.4-5.1 0-4.3 0-4.9-.4-5.1-.4-.2-.8-.3-1.3-.4-.1 0 0-.6.1-.6.6.1 2.7.1 4.5.1 1.7 0 3.3 0 4.5-.1 0 1.1-.1 1.9-.2 2.7 0 .1-.6 0-.6 0-.1-1.4.1-1.9-3.5-1.9-1.1 0-1.2.1-1.3.8-.1.7-.1 2.1-.1 3.9H98c2.4 0 2.6-.2 2.8-.9 0-.1.6-.1.6.1-.1.8-.2 2-.1 2.9 0 .1-.5.2-.5 0-.2-1.1-.3-1.4-2.7-1.4h-1.8c0 3.5.2 4.5.5 4.7.3.2 1 .3 1.5.3 2.7 0 3.4-.5 3.9-2 0-.1.6 0 .6.1-.3.9-.6 2.1-.9 2.8M256.5 101.6h-.9c0 3 .2 3.2.5 3.4.3.2.8.3 1.5.3.1 0 0 .6-.1.6-.4 0-1.6-.1-2.7-.1s-2 .1-2.4.2c-.1 0-.2-.5-.1-.6.5-.1 1-.2 1.3-.4.4-.2.4-.9.4-5.2s0-4.9-.4-5.1c-.3-.2-.8-.3-1.3-.4-.1 0 0-.6.1-.6.4 0 1.4.1 2.5.1.8 0 1.5-.1 2.4-.1 2.8 0 4.7 1.4 4.7 3.7 0 2.2-1.8 4.2-5.5 4.2m.6-7c-.5 0-1 0-1.1.1-.2.1-.4 2-.4 6.2h.8c2.9 0 3.7-1.3 3.7-3.1 0-2.2-1.1-3.2-3-3.2M275.9 105.9c-.6 0-2.8-.1-4.5-.1-1.7 0-3.4.1-4 .2-.1 0-.2-.5-.1-.6.5-.1 1-.2 1.3-.4.4-.2.4-.9.4-5.2s0-4.9-.4-5.1c-.4-.2-.8-.3-1.4-.4-.1 0 0-.6.1-.6.4 0 1.7.1 2.7.1 1.1 0 1.9-.1 2.3-.1.1 0 .2.6.1.6-.5.1-.9.2-1.2.3-.4.2-.5.9-.5 5.2 0 2.1 0 3.7.1 4.5.1.7.2.8 1.3.8 2.7 0 3.9-.5 4.5-2.4 0-.1.5 0 .5.1-.3.7-.8 2.6-1.2 3.1M293.5 105.9c-.4 0-1.4-.1-2.3-.1-.9 0-1.9.1-2.3.2 0 0-.2-.6 0-.6.7-.1 1.3-.1 1.3-.9 0-.4-.2-.9-.3-1.3l-.7-1.6h-4.7l-.8 1.8c-.2.5-.4 1.1-.2 1.4.2.2.6.4 1 .4.1 0 0 .6-.1.6-.3 0-1.1-.1-1.7-.1-.7 0-1.6.1-1.8.2-.1 0-.2-.5-.1-.6.5-.1.8-.3 1-.5.3-.3 1.2-2 2.8-5.5 1.5-3.3 1.9-4.5 2.3-5.6 0-.2.5-.2.6 0 .4 1.4 1 2.8 2.6 6.4 1.6 3.5 2.1 4.6 2.5 4.9.3.2.6.3 1 .4.1 0 0 .5-.1.5m-6.7-9.5l-2.1 4.6h4l-1.9-4.6zM310.8 94.8c-.4.3-.5.8-.5 5.1 0 4.6.2 5.6.3 6.1 0 .2-.5.4-.6.2-.2-.5-.9-1.3-1.7-2-1.5-1.4-6.3-5.7-7.6-7-.1.3-.1 1.2-.1 2.9 0 4.3.2 4.9.6 5.1.3.2.9.3 1.6.3.1 0 0 .6-.1.6-.4 0-1.6-.1-2.6-.1-1.1 0-1.7.1-2.1.2-.1 0-.2-.5-.1-.5.5-.1.9-.2 1.1-.4.4-.3.5-.9.5-5.2s-.1-4.7-.4-5c-.3-.3-.8-.4-1.3-.5-.1 0 0-.6.1-.6.4 0 1.1.1 2.1.1 1.1 0 1.7-.1 2.1-.2.1 0 .2.5.1.6-.5.2-.8.3-.8.7 0 .3.1.6.8 1.3.9.9 5.6 4.9 6.9 6.4V100c0-4.3-.2-4.9-.6-5.1-.4-.2-.9-.3-1.6-.4-.2 0-.1-.6 0-.6.5 0 1.3.1 2.1.1 1.1 0 2.2 0 2.6-.1.1 0 .2.5.1.6-.2 0-.6.1-.9.3M328.1 96.1c0 .1-.6.1-.5 0 .1-.9-.6-1.3-2.8-1.3-1.1 0-1.2.1-1.2.8-.1.8-.1 2.1-.1 4.2 0 4.3.1 5 .5 5.1.4.2.8.3 1.5.3.1 0 0 .6 0 .6-.4 0-1.7-.1-2.7-.1-1.1 0-2.2.1-2.6.2 0 0-.2-.5-.1-.6.6-.1.9-.2 1.4-.4.4-.2.5-.9.5-5.2 0-2.1 0-3.5-.1-4.3-.1-.7-.2-.8-1.3-.8-2.4 0-3 .3-3.3 1.5 0 .1-.6 0-.6-.1.1-.6.5-2.3.8-2.9.1-.1.6 0 .5.1-.1.6.5.7 4.8.7 3.5 0 5.1-.1 5.4-.8.1-.1.6 0 .6.1-.2 1-.5 1.8-.7 2.9M345.3 105.9c-.4 0-1.4-.1-2.3-.1-.9 0-1.9.1-2.3.2 0 0-.2-.6 0-.6.7-.1 1.3-.1 1.3-.9 0-.4-.2-.9-.3-1.3l-.7-1.6h-4.7l-.8 1.8c-.2.5-.4 1.1-.2 1.4.2.2.6.4 1 .4.1 0 0 .6-.1.6-.3 0-1.1-.1-1.7-.1-.7 0-1.6.1-1.8.2-.1 0-.2-.5-.1-.6.5-.1.8-.3 1-.5.3-.3 1.2-2 2.8-5.5 1.5-3.3 1.9-4.5 2.3-5.6 0-.2.5-.2.6 0 .4 1.4 1 2.8 2.6 6.4 1.6 3.5 2.1 4.6 2.5 4.9.3.2.6.3 1 .4.1 0 0 .5-.1.5m-6.7-9.5l-2.1 4.6h4l-1.9-4.6zM360.4 96.1c0 .1-.6.1-.5 0 .1-.9-.6-1.3-2.8-1.3-1.1 0-1.2.1-1.2.8-.1.8-.1 2.1-.1 4.2 0 4.3.1 5 .5 5.1.4.2.8.3 1.5.3.1 0 0 .6 0 .6-.4 0-1.7-.1-2.7-.1-1.1 0-2.2.1-2.6.2 0 0-.2-.5-.1-.6.6-.1.9-.2 1.4-.4.4-.2.5-.9.5-5.2 0-2.1 0-3.5-.1-4.3-.1-.7-.2-.8-1.3-.8-2.4 0-3 .3-3.3 1.5 0 .1-.6 0-.6-.1.1-.6.5-2.3.8-2.9.1-.1.6 0 .5.1-.1.6.5.7 4.8.7 3.5 0 5.1-.1 5.4-.8.1-.1.6 0 .6.1-.3 1-.5 1.8-.7 2.9M373.4 105.9c-.4 0-1.6-.1-2.7-.1s-2.2.1-2.6.2c-.1 0-.2-.5-.1-.6.6-.1.9-.2 1.4-.4.4-.2.5-.9.5-5.2s-.1-4.9-.5-5.1c-.5-.2-.8-.3-1.4-.4-.1 0 0-.6.1-.6.4 0 1.6.1 2.7.1s2.2-.1 2.6-.1c.1 0 .2.6.1.6-.7.1-1.1.2-1.5.3-.4.2-.5.9-.5 5.2s.1 5 .5 5.1c.5.2.8.3 1.5.3.1.2 0 .7-.1.7M385.7 106.2c-3.8 0-6.3-2.9-6.3-6.1 0-3.1 2.7-6.5 6.6-6.5 3.8 0 6.3 2.9 6.3 6.1 0 3.1-2.7 6.5-6.6 6.5m-.2-11.8c-2.4 0-4.5 1.6-4.5 4.9 0 3.8 2.3 6 5.1 6 2.4 0 4.5-1.6 4.5-4.9 0-3.7-2.3-6-5.1-6M411.2 94.8c-.4.3-.5.8-.5 5.1 0 4.6.2 5.6.3 6.1 0 .2-.5.4-.6.2-.2-.5-.9-1.3-1.7-2-1.5-1.4-6.3-5.7-7.6-7-.1.3-.1 1.2-.1 2.9 0 4.3.2 4.9.6 5.1.3.2.9.3 1.6.3.1 0 0 .6-.1.6-.4 0-1.6-.1-2.6-.1-1.1 0-1.7.1-2.1.2-.1 0-.2-.5-.1-.5.5-.1.9-.2 1.1-.4.4-.3.5-.9.5-5.2s-.1-4.7-.4-5c-.3-.3-.8-.4-1.3-.5-.1 0 0-.6.1-.6.4 0 1.1.1 2.1.1 1.1 0 1.7-.1 2.1-.2.1 0 .2.5.1.6-.5.2-.8.3-.8.7 0 .3.1.6.8 1.3.9.9 5.6 4.9 6.9 6.4V100c0-4.3-.2-4.9-.6-5.1-.4-.2-.9-.3-1.6-.4-.2 0-.1-.6 0-.6.5 0 1.3.1 2.1.1 1.1 0 2.2 0 2.6-.1.1 0 .2.5.1.6-.3 0-.7.1-.9.3M156 107.2c-8.2 8.4-15.8 13.1-19.3 12.2-5.6-1.4-3.4-9.9 4.1-17.6 7.7-7.8 18.5-12.5 22.5-10.4 2.8 1.5.7 7.8-7.3 15.8m-11.7-1.8c-5.5 5.7-9.9 11.2-7.3 12.7 2.3 1.3 9.4-4.6 18-13.3 3.7-3.8 9.6-10.9 7.8-12.3-2-1.5-9.8 4-18.5 12.9"/><path class="st2" d="M227.5 70.3c-.8.4-.9.3-1 0-.1-.3-.2-.2.6-.8 1.3-1.1 2.9-3.5 3.4-6 1.7-9.1-4.4-17.3-20.8-17.3-14.5 0-29.9 7.6-44.4 19.7-9.6 8-19.1 17.4-29.3 27.8 1.8 0 5.6-.1 7.9 0 .2 0 .6.1.5.6-.2.4-.5.6-1 .6-2.1 0-6.4.2-8.6.3-6.4 7.1-15 16.7-19.9 21.7-8.8 9.3-18.6 18.8-26.3 24.9-24.1 19.3-44 26.6-62.7 26.2-20.5-.5-30.3-14.6-24-28.7.7-1.3 2.3-3.8 3-3.1.1.2-.6 1.7-.9 2.4-6.7 13.7 2.8 27.4 21.4 27.8 20.5.6 38.4-9.9 58-25.4 5.8-4.6 16.7-14.8 25.4-23.9 5.8-6.1 12.3-13.1 20.4-22.1-1.6 0-3.5.2-5.7.4-.8.1-.8-.2-.8-.5.1-.4.6-.5.8-.6 1.1-.2 4.7-.5 6.8-.6 11.1-11.7 22.9-23.6 32.9-31.5 13-10.3 31.1-17.8 46.8-17.8 18.2 0 24 9.6 22.5 18.1-.7 4.4-3.3 6.9-5 7.8M329.8 70.3c-.7.4-.9.3-1 0-.1-.3-.1-.2.6-.8 1.3-1.1 3-3.5 3.5-6 1.6-9.1-4.5-17.3-20.9-17.3-14.5 0-29.6 9.5-42.8 19.9-11.2 8.8-17.8 15.2-28.8 25.5-7.7 7.2-15.8 15.6-19.1 19.5-2.9 3.6-4.9 6.2-3.5 6.9 1.5.7 7-3.3 9.1-5 3-2.4 6-5.1 8.8-7.5.4-.4.8-.8 1.2-.2.4.5-.1.9-.5 1.2-2.9 2.6-6.8 5.8-8.7 7.4-2.8 2.3-7.6 5.6-10.1 5.6-3.2 0-4.9-2.8-1.5-8-5.5 4.6-10.5 8-13.5 8-6.4 0-2.4-9.7 4.1-16.3 7.4-7.6 20.3-13.8 24.1-11.7 1.3.7 1 2.6-.3 4.4 7.3-7.7 24.6-24 37-32.9 13.6-9.9 29.3-18.5 45-18.5 18.2 0 24.1 9.6 22.5 18.1-.8 4.3-3.5 6.8-5.2 7.7M211 105.4c-5.7 5.6-10.3 11.6-8.1 12.6 1.7.8 10-5 18-13.2 3.7-3.8 10.9-10.8 9.1-12.2-1.8-1.5-9 3.3-19 12.8"/><path class="st3" d="M0 0h414.1v208.3H0z"/></svg>