<svg id="Layer_1" xmlns="http://www.w3.org/2000/svg" xmlns:xlink="http://www.w3.org/1999/xlink" viewBox="0 0 414.1 123.4"><style>.st0{fill:none;stroke:#63732C;stroke-width:1.423;} .st1{clip-path:url(#SVGID_2_);fill:none;stroke:#63732C;stroke-width:1.423;} .st2{clip-path:url(#SVGID_2_);fill:#63732C;}</style><path class="st0" d="M57.4 67.4h58.1"/><defs><path id="SVGID_1_" d="M0 0h414.1v123.4H0z"/></defs><clipPath id="SVGID_2_"><use xlink:href="#SVGID_1_" overflow="visible"/></clipPath><path class="st1" d="M229.6 67.4h184.5"/><path class="st2" d="M201.1 51.7c-.3-.1-.7-.5-1.1-.8-.8-.5-1.2-.7-2.4-.8-3.9-.2-11.9 5.9-18.3 11.9-6 5.7-7 7.1-11.9 13.4-1.1 0-1.3-2.7-.8-3.7 2.5-4.8 7.1-10.5 12.1-15.7 3-3.2 6.3-6.1 8.6-7.5 1.5-1 4.2-1.6 6.6-1.6-3.9 2.5-9.2 7.2-13.3 11.9l.3.4c5.2-4.5 15-13.1 19.6-12.2 1.6.3 2.3 1.4 2.2 2.8-.2 1.4-1.2 2-1.6 1.9M68.1 51.7c0 .1-.6.1-.5 0 .2-.9-.6-1.3-2.8-1.3-1.1 0-1.2.1-1.2.8-.1.8-.1 2.1-.1 4.2 0 4.3.1 5 .5 5.1.4.2.8.3 1.5.3.2 0 0 .6 0 .6-.4 0-1.7-.1-2.7-.1-1.1 0-2.2.1-2.6.2 0 0-.2-.5-.1-.6.6-.1.9-.2 1.4-.4.4-.2.5-.9.5-5.2 0-2.1 0-3.5-.1-4.3-.1-.7-.2-.8-1.3-.8-2.4 0-3 .3-3.3 1.5 0 .1-.6 0-.6-.1.1-.6.5-2.3.8-2.9.1-.1.6 0 .5.1-.1.6.5.7 4.8.7 3.5 0 5.1-.1 5.4-.8.1-.1.6 0 .6.1-.3 1-.5 1.8-.7 2.9M87.4 61.5c-.4 0-1.3-.1-2.3-.1-1.1 0-2.2.1-2.6.2-.1 0-.2-.5-.1-.6.6-.1.9-.2 1.4-.4.4-.2.5-.9.5-4.9h-7.7c0 4 .1 4.7.5 4.8.4.2.8.3 1.5.3.1 0 0 .6-.1.6-.4 0-1.6-.1-2.7-.1s-2 .1-2.4.2c-.1 0-.2-.5-.1-.6.5-.1 1-.2 1.3-.4.4-.2.4-.9.4-5.2s0-4.9-.4-5.1c-.3-.2-.8-.3-1.3-.4-.1 0 0-.6.1-.6.4 0 1.4.1 2.5.1s2.2-.1 2.6-.2c.1 0 .2.6.1.6-.7.1-1 .2-1.5.3-.4.2-.5.9-.5 4.8h7.7c0-3.9-.1-4.5-.5-4.6-.4-.2-.8-.3-1.4-.4-.1 0 0-.6.1-.6.4 0 1.7.1 2.7.1 1.1 0 1.9-.1 2.3-.2.1 0 .2.6.1.6-.5.1-1 .2-1.2.3-.4.2-.4.9-.4 5.2s0 4.9.4 5.1c.3.2.7.3 1.2.3 0 .3-.1.9-.2.9M101.9 61.5c-.6 0-2.8-.1-4.5-.1-1.7 0-3.8.1-4.5.2-.1 0-.2-.5-.1-.6.5-.1 1-.2 1.3-.4.4-.2.4-.9.4-5.1 0-4.3 0-4.9-.4-5.1-.4-.2-.8-.3-1.3-.4-.1 0 0-.6.1-.6.6.1 2.7.1 4.5.1 1.7 0 3.3 0 4.5-.1 0 1.1-.1 1.9-.2 2.7 0 .1-.6 0-.6 0-.1-1.4.1-1.9-3.5-1.9-1.1 0-1.2.1-1.3.8-.1.7-.1 2.1-.1 3.9H98c2.4 0 2.6-.2 2.8-.9 0-.1.6-.1.6.1-.1.8-.2 2-.1 2.9 0 .1-.5.2-.5 0-.2-1.1-.3-1.4-2.7-1.4h-1.8c0 3.5.2 4.5.5 4.7.3.2 1 .3 1.5.3 2.7 0 3.4-.5 3.9-2 0-.1.6 0 .6.1-.3.9-.6 2.1-.9 2.8M256.5 57.2h-.9c0 3 .2 3.2.5 3.4.3.2.8.3 1.5.3.1 0 0 .6-.1.6-.4 0-1.6-.1-2.7-.1s-2 .1-2.4.2c-.1 0-.2-.5-.1-.6.5-.1 1-.2 1.3-.4.4-.2.4-.9.4-5.2s0-4.9-.4-5.1c-.3-.2-.8-.3-1.3-.4-.1 0 0-.6.1-.6.4 0 1.4.1 2.5.1.8 0 1.5-.1 2.4-.1 2.8 0 4.7 1.4 4.7 3.7 0 2.2-1.8 4.2-5.5 4.2m.6-7.1c-.5 0-1 0-1.1.1-.2.1-.4 2-.4 6.2h.8c2.9 0 3.7-1.3 3.7-3.1 0-2.2-1.1-3.2-3-3.2M275.9 61.4c-.6 0-2.8-.1-4.5-.1-1.7 0-3.4.1-4 .2-.1 0-.2-.5-.1-.6.5-.1 1-.2 1.3-.4.4-.2.4-.9.4-5.2s0-4.9-.4-5.1c-.4-.2-.8-.3-1.4-.4-.1 0 0-.6.1-.6.4 0 1.7.1 2.7.1 1.1 0 1.9-.1 2.3-.2.1 0 .2.6.1.6-.5.1-.9.2-1.2.3-.4.2-.5.9-.5 5.2 0 2.1 0 3.7.1 4.5.1.7.2.8 1.3.8 2.7 0 3.9-.5 4.5-2.4 0-.1.5 0 .5.1-.3.8-.8 2.7-1.2 3.2M293.5 61.5c-.4 0-1.4-.1-2.3-.1-.9 0-1.9.1-2.3.2 0 0-.2-.6 0-.6.7-.1 1.3-.1 1.3-.9 0-.4-.2-.9-.3-1.3l-.7-1.6h-4.7l-.8 1.8c-.2.5-.4 1.1-.2 1.4.2.2.6.4 1 .4.1 0 0 .6-.1.6-.3 0-1.1-.1-1.7-.1-.7 0-1.6.1-1.8.2-.1 0-.2-.5-.1-.6.5-.1.8-.3 1-.5.3-.3 1.2-2 2.8-5.5 1.5-3.3 1.9-4.5 2.3-5.6 0-.2.5-.2.6 0 .4 1.4 1 2.8 2.6 6.4 1.6 3.5 2.1 4.6 2.5 4.9.3.2.6.3 1 .4.1-.1 0 .5-.1.5m-6.7-9.5l-2.1 4.6h4l-1.9-4.6zM310.8 50.3c-.4.3-.5.8-.5 5.1 0 4.6.2 5.6.3 6 0 .2-.5.4-.6.2-.2-.5-.9-1.3-1.7-2-1.5-1.4-6.3-5.7-7.6-7-.1.3-.1 1.2-.1 2.9 0 4.3.2 4.9.6 5.1.3.2.9.3 1.6.3.1 0 0 .6-.1.6-.4 0-1.6-.1-2.6-.1-1.1 0-1.7.1-2.1.2-.1 0-.2-.5-.1-.5.5-.1.9-.2 1.1-.4.4-.3.5-.9.5-5.2s-.1-4.7-.4-5c-.3-.3-.8-.4-1.3-.5-.1 0 0-.6.1-.6.4 0 1.1.1 2.1.1 1.1 0 1.7-.1 2.1-.2.1 0 .2.5.1.6-.5.2-.8.3-.8.7 0 .3.1.6.8 1.3.9.9 5.6 4.9 6.9 6.4v-2.9c0-4.3-.2-4.9-.6-5.1-.4-.2-.9-.3-1.6-.4-.2 0-.1-.6 0-.6.5 0 1.3.1 2.1.1 1.1 0 2.2 0 2.6-.1.1 0 .2.5.1.6-.2.1-.6.2-.9.4M328.1 51.6c0 .1-.6.1-.5 0 .1-.9-.6-1.3-2.8-1.3-1.1 0-1.2.1-1.2.8-.1.8-.1 2.1-.1 4.2 0 4.3.1 5 .5 5.1.4.2.8.3 1.5.3.1 0 0 .6 0 .6-.4 0-1.7-.1-2.7-.1-1.1 0-2.2.1-2.6.2 0 0-.2-.5-.1-.6.6-.1.9-.2 1.4-.4.4-.2.5-.9.5-5.2 0-2.1 0-3.5-.1-4.3-.1-.7-.2-.8-1.3-.8-2.4 0-3 .3-3.3 1.5 0 .1-.6 0-.6-.1.1-.6.5-2.3.8-2.9.1-.1.6 0 .5.1-.1.6.5.7 4.8.7 3.5 0 5.1-.1 5.4-.8.1-.1.6 0 .6.1-.2 1-.5 1.9-.7 2.9M345.3 61.5c-.4 0-1.4-.1-2.3-.1-.9 0-1.9.1-2.3.2 0 0-.2-.6 0-.6.7-.1 1.3-.1 1.3-.9 0-.4-.2-.9-.3-1.3l-.7-1.6h-4.7l-.8 1.8c-.2.5-.4 1.1-.2 1.4.2.2.6.4 1 .4.1 0 0 .6-.1.6-.3 0-1.1-.1-1.7-.1-.7 0-1.6.1-1.8.2-.1 0-.2-.5-.1-.6.5-.1.8-.3 1-.5.3-.3 1.2-2 2.8-5.5 1.5-3.3 1.9-4.5 2.3-5.6 0-.2.5-.2.6 0 .4 1.4 1 2.8 2.6 6.4 1.6 3.5 2.1 4.6 2.5 4.9.3.2.6.3 1 .4.1-.1 0 .5-.1.5m-6.7-9.5l-2.1 4.6h4l-1.9-4.6zM360.4 51.6c0 .1-.6.1-.5 0 .1-.9-.6-1.3-2.8-1.3-1.1 0-1.2.1-1.2.8-.1.8-.1 2.1-.1 4.2 0 4.3.1 5 .5 5.1.4.2.8.3 1.5.3.1 0 0 .6 0 .6-.4 0-1.7-.1-2.7-.1-1.1 0-2.2.1-2.6.2 0 0-.2-.5-.1-.6.6-.1.9-.2 1.4-.4.4-.2.5-.9.5-5.2 0-2.1 0-3.5-.1-4.3-.1-.7-.2-.8-1.3-.8-2.4 0-3 .3-3.3 1.5 0 .1-.6 0-.6-.1.1-.6.5-2.3.8-2.9.1-.1.6 0 .5.1-.1.6.5.7 4.8.7 3.5 0 5.1-.1 5.4-.8.1-.1.6 0 .6.1-.3 1-.5 1.9-.7 2.9M373.4 61.4c-.4 0-1.6-.1-2.7-.1s-2.2.1-2.6.2c-.1 0-.2-.5-.1-.6.6-.1.9-.2 1.4-.4.4-.2.5-.9.5-5.2s-.1-4.9-.5-5.1c-.5-.2-.8-.3-1.4-.4-.1 0 0-.6.1-.6.4 0 1.6.1 2.7.1s2.2-.1 2.6-.2c.1 0 .2.6.1.6-.7.1-1.1.1-1.5.3-.4.2-.5.9-.5 5.2s.1 5 .5 5.1c.5.2.8.3 1.5.3.1.3 0 .9-.1.8M385.7 61.7c-3.8 0-6.3-2.9-6.3-6.1 0-3.1 2.7-6.5 6.6-6.5 3.8 0 6.3 2.9 6.3 6.1 0 3.1-2.7 6.5-6.6 6.5m-.2-11.7c-2.4 0-4.5 1.6-4.5 4.9 0 3.8 2.3 6 5.1 6 2.4 0 4.5-1.6 4.5-4.9 0-3.8-2.3-6-5.1-6M411.2 50.3c-.4.3-.5.8-.5 5.1 0 4.6.2 5.6.3 6 0 .2-.5.4-.6.2-.2-.5-.9-1.3-1.7-2-1.5-1.4-6.3-5.7-7.6-7-.1.3-.1 1.2-.1 2.9 0 4.3.2 4.9.6 5.1.3.2.9.3 1.6.3.1 0 0 .6-.1.6-.4 0-1.6-.1-2.6-.1-1.1 0-1.7.1-2.1.2-.1 0-.2-.5-.1-.5.5-.1.9-.2 1.1-.4.4-.3.5-.9.5-5.2s-.1-4.7-.4-5c-.3-.3-.8-.4-1.3-.5-.1 0 0-.6.1-.6.4 0 1.1.1 2.1.1 1.1 0 1.7-.1 2.1-.2.1 0 .2.5.1.6-.5.2-.8.3-.8.7 0 .3.1.6.8 1.3.9.9 5.6 4.9 6.9 6.4v-2.9c0-4.3-.2-4.9-.6-5.1-.4-.2-.9-.3-1.6-.4-.2 0-.1-.6 0-.6.5 0 1.3.1 2.1.1 1.1 0 2.2 0 2.6-.1.1 0 .2.5.1.6-.3.1-.7.2-.9.4M156 62.7c-8.2 8.4-15.8 13.1-19.3 12.2-5.6-1.4-3.4-9.9 4.1-17.6 7.7-7.8 18.5-12.5 22.5-10.4 2.8 1.5.7 7.9-7.3 15.8M144.3 61c-5.5 5.7-9.9 11.2-7.3 12.7 2.3 1.3 9.4-4.6 18-13.3 3.7-3.8 9.6-10.9 7.8-12.3-2-1.6-9.8 3.9-18.5 12.9"/><path class="st2" d="M227.5 25.8c-.8.4-.9.3-1 0-.1-.3-.2-.2.6-.8 1.3-1.1 2.9-3.5 3.4-6 1.7-9.1-4.4-17.3-20.8-17.3-14.5 0-29.9 7.6-44.4 19.7-9.6 8-19.1 17.4-29.3 27.8 1.8 0 5.6-.1 7.9 0 .2 0 .6.1.5.6-.2.4-.5.6-1 .6-2.1 0-6.4.2-8.6.3-6.4 7.1-15 16.7-19.9 21.7-8.8 9.3-18.6 18.8-26.3 24.9-24.1 19.3-44 26.6-62.7 26.2-20.5-.5-30.3-14.7-24-28.8.7-1.3 2.3-3.8 3-3.1.1.2-.6 1.7-.9 2.5-6.7 13.7 2.8 27.4 21.4 27.8 20.5.6 38.4-9.9 58-25.4 5.8-4.6 16.7-14.8 25.4-23.9 5.8-6.1 12.3-13.1 20.4-22.1-1.6 0-3.5.2-5.7.4-.8.1-.8-.2-.8-.5.1-.4.6-.5.8-.6 1.1-.2 4.7-.5 6.8-.6 11.1-11.7 22.9-23.6 32.9-31.5C176.3 7.5 194.5 0 210.2 0c18.2 0 24 9.6 22.5 18.1-.9 4.3-3.5 6.8-5.2 7.7M329.8 25.8c-.7.4-.9.3-1 0-.1-.3-.1-.2.6-.8 1.3-1.1 3-3.5 3.5-6 1.6-9.1-4.5-17.3-20.9-17.3-14.5 0-29.6 9.5-42.8 19.9-11.2 8.8-17.8 15.2-28.8 25.5-7.7 7.2-15.8 15.6-19.1 19.5-2.9 3.6-4.9 6.2-3.5 6.9 1.5.7 7-3.3 9.1-5 3-2.4 6-5.1 8.8-7.5.4-.4.8-.8 1.2-.2.4.5-.1.9-.5 1.2-2.9 2.6-6.8 5.8-8.7 7.4-2.8 2.3-7.6 5.6-10.1 5.6-3.2 0-4.9-2.8-1.5-8-5.5 4.6-10.5 8-13.5 8-6.4 0-2.4-9.7 4.1-16.3 7.4-7.6 20.3-13.8 24.1-11.7 1.3.7 1 2.6-.3 4.4 7.3-7.7 24.6-24 37-32.9C281.1 8.7 296.7 0 312.5 0c18.2 0 24.1 9.6 22.5 18.1-.8 4.3-3.5 6.8-5.2 7.7M211 61c-5.7 5.6-10.3 11.6-8.1 12.6 1.7.8 10-5 18-13.2 3.7-3.8 10.9-10.8 9.1-12.2-1.8-1.5-9 3.3-19 12.8"/></svg>