<svg id="Layer_1" xmlns="http://www.w3.org/2000/svg" viewBox="0 0 38.1 63"><style>.st0{fill:#FFFFFF;}</style><path class="st0" d="M4.6 15.4v-.1.1zM37.9 38c-1.6.5-3.2.7-4.8 1-.5-.1-1.1.2-1.5-.1-.1-.7-.4-1.5-1-1.9-.9-1-2.3-.9-3.5-.7-1.3.3-2.6.8-3.9 1.2.4-.9.9-1.8 1.4-2.6.7-.8 1.3-1.6 2-2.3l1.8-1.2c.9-.5 1.7-.9 2.6-1.4 1.6-.6 3.3-1.2 5-1.6.1-.1 0-.2-.1-.3-.8-.2-1.6.1-2.4.2-.5.2-1.1.2-1.7.4-1.4.4-2.8.9-4 1.7-.3.1-.4.4-.6.5-.1-.1 0-.2 0-.2 1.7-1.2 3.2-2.9 5.1-3.8 1.6-1 3.4-1.3 5.1-2.1 0-.5-.5-.1-.8-.3-.6.2-1.2.2-1.9.2.1-.2.3-.2.3-.4 0-.1-.1-.1-.2-.1.3-.3.6-.6.8-1-.1-.2-.3 0-.4 0 .4-.3 1-.6 1.1-1.1 0-.3-.4 0-.5-.1.4-.4.8-.8 1-1.2-.1-.2-.2 0-.3-.1.2-.5.7-.8.7-1.3-.1 0-.2.1-.2.1 0-.3.3-.6.4-1 0-.1-.1-.1-.2-.1.2-.4.4-.8.4-1.2-.1-.2-.2.1-.3 0 .2-.5.2-1.1.1-1.6l-.2.2c-.1-.5 0-1.1-.2-1.5-.4.4-.5 1-.9 1.3-.1-.1-.1-.2-.1-.2-.3.4-.3.8-.6 1.2-.1-.1-.1-.3-.2-.3-.3.4-.3 1-.4 1.5-.1-.2-.1-.3-.1-.5 0-.1-.2-.1-.2-.1-.1.7-.4 1.3-.3 2-.2-.2.1-.6-.3-.7-.2.5-.3 1.1-.4 1.7-.1-.2-.1-.3-.2-.5-.1 0-.2-.1-.3.1-.1.4-.2.8-.3 1.3-.1-.1-.1-.2-.1-.3-.7 0-.2 1-.8.8.3-.7.8-1.3 1.1-2 .1-.5.4-1.1.6-1.6.1-.4.2-.9.2-1.3 0-.6.1-1.3 0-2-.1-.1 0-.4-.2-.3 0 1.5-.8 2.9-1.1 4.4-.3.4-.3.9-.7 1.3-.4.9-1.3 1.7-2 2.4-.3.1-.5.6-.8.5.5-.4 1-.9 1.4-1.3.1-.1.2-.3.1-.5.4-.4.8-.8 1-1.2-.1-.4-.3 0-.5-.1.5-.5.9-1 1.1-1.6 0-.2-.3 0-.4 0 .3-.5.7-.9.7-1.5-.2.1-.4.3-.5.2.4-.6.8-1.2 1.1-1.8.1-.2-.1-.3-.1-.5.2-.4.4-.7.4-1.1 0-.1-.2-.2-.3-.2.2-.6.3-1.2.2-1.8l-.3.3c0-.7-.1-1.4-.2-2-.4.3-.4 1-.8 1.3 0-.1 0-.2-.1-.2-.4.3-.5.9-.7 1.4l-.2-.4c-.3.5-.3 1.1-.5 1.6-.1-.2-.1-.4-.1-.6 0-.1-.2-.1-.2-.1-.1.6-.3 1.1-.4 1.7-.1-.1 0-.2-.1-.3-.3.2-.4.6-.5 1-.1 0-.1-.1-.2-.2.6-1.2.9-2.5 1.2-3.8.2-1.2.4-2.4.2-3.5-.1-.4-.1-.8-.3-1.2-.1-.3-.1-.8-.5-.8 0 1.3 0 2.8-.2 4.1-.2 1.3-.5 2.5-1 3.7-.4.6-.6 1.3-1 1.9-1 1.9-2.4 3.5-3.6 5.1-.5 1.2-1.5 2.1-1.9 3.4.5-1.9 1.5-3.8 2.2-5.7.1 0 .2.1.2.2 1.1-.3 1.9-1.3 2.3-2.3l-.2-.3c.4-.5.7-1 1.1-1.5.1-.1.1-.2 0-.3-.1-.1-.3.1-.4.1.4-.5.7-1 .9-1.5l-.2-.2-.4.3c.3-.5.7-1 .9-1.5-.1-.1-.1-.2-.3-.2.3-.4.5-.8.6-1.3-.1-.1-.3-.2-.4-.1.1.1-.1.3-.3.2.3-.4.6-.9.7-1.4-.1-.4-.3.2-.5 0 .3-.4.4-1 .6-1.5-.1 0-.3.4-.5.4.2-.4.3-.9.4-1.4 0-.1-.2-.1-.3-.2.1-.3.1-.7.1-1.1 0-.1-.2-.1-.2-.2.1-.3.1-.8 0-1.1-.3 0-.1.5-.4.4-.2-.6-.4-1.3-.7-1.9-.2.5-.3 1-.5 1.6-.3-.1 0-.6-.3-.7-.4.5-.1 1-.3 1.6-.2 0-.2-.3-.4-.2 0 .4.2.8 0 1.1h-.2c-.1.4-.1.8 0 1.2-.1.1-.2 0-.3 0-.1.5-.1 1-.1 1.5-.1-.1-.2-.1-.3-.2-.3.5-.1 1.2-.2 1.7-.1-.1-.2-.3-.2-.4-.5.8-.1 1.9.1 2.8-.4 0-.3-.7-.8-.7.2-1.9.6-3.8.7-5.8.1-.8-.1-1.7 0-2.5-.1-.9-.3-1.6-.6-2.4h-.2c.1.8-.1 1.7 0 2.4-.1 1.6-.3 3.1-.4 4.7-.3 1.1-.4 2.3-.7 3.5-.3 1.2-.7 2.4-1.1 3.6-.2-.5.3-1.2.4-1.8-.1-.3-.3.1-.5 0 .1-.2.2-.5.3-.7 0-.3.2-.6.1-.9-.1-.1-.2.1-.3.2.3-.6.4-1.3.5-1.9l-.2-.1c-.2.3-.3.7-.7.9.4-.8.7-1.6.9-2.4-.4-.1-.5.6-1 .6.2-.5.4-.9.5-1.4 0-.2 0-.4-.1-.5-.2.2-.4.4-.6.5 0-.4.2-.8.3-1.1-.1-.2.2-.5-.1-.7-.2.1-.3.4-.5.5.3-.5.4-1 .5-1.5 0-.1-.1-.1-.2-.1-.2 0-.2.2-.4.3.1-.4.3-.9.2-1.3-.2 0-.2.3-.4.2.2-.6.2-1 .2-1.5-.1 0-.3 0-.4.2-.1-.4.2-.8 0-1.2-.3 0-.3.5-.5.4.1-.6-.4-1-.7-1.4-.1.1 0 .2-.1.3l.2-.1c.2.3.4.6.4 1s-.1.7-.3.9c-.2-.3 0-.7-.1-1-.1 1.6 0 3.1 0 4.7.3 5.2.7 10.4.8 15.6.1 1.5-.1 3.1-.2 4.6-.1-7.6-.8-15.2-.8-22.9-.1-.3-.3-.4-.5-.6 0 .5.5.8.3 1.3-.3-.6-.7-1.3-.6-1.9.3.1.4.5.6.7-.2-.6-.2-1.4.1-2-.3.3-.4.8-.4 1.2-.1.1-.2-.2-.3-.1-.1.4 0 .9 0 1.3-.2 0-.2-.4-.4-.2 0 .1-.1.3 0 .3.4 0 .7.5 1 .9 0 .2.1.5 0 .7-.2-.2-.4-.5-.6-.7.1.5.5 1 .7 1.4 0 .1-.1.1-.1.1-.7-.6-.8-1.4-1-2.3-.3.5.1 1.1.2 1.6-.2-.1-.3-.4-.5-.6-.3-.1-.1.3-.2.4.2.4.2.9.3 1.3-.2-.1-.4-.6-.7-.3-.1.6.4.9.4 1.4-.2 0-.3-.2-.4-.3-.1 0-.2 0-.2.1.1.5.3 1 .5 1.4-.3 0-.5-.6-.7-.2 0 .7.4 1.2.7 1.8-.3 0-.3-.4-.6-.5 0 .6.3 1.2.5 1.8-.2-.2-.4-.4-.6-.5-.1.9.6 1.6.9 2.4l-.7-.7c-.1 0-.1.2-.1.2.2.4.5.8.7 1.3-.2 0-.4-.3-.5 0 0 .4.3.8.5 1.1-.1.1-.2 0-.2 0-.8-2-1.2-4-1.8-6-.2-1.1-.3-2.2-.5-3.2-.1-1.7-.3-3.5-.4-5.1-.5.6-.6 1.5-.7 2.4-.1 1 .1 2.1 0 3.1.2 2.2.8 4.3 1.2 6.4-.2.2-.2.5-.4.7v-1.9c-.2.2-.3.7-.7.8.1-.3.2-.7.2-1-.1-.6.1-1.2-.1-1.8-.2 0-.2.3-.4.4-.1-.6 0-1.2-.2-1.7-.2-.2-.3 0-.4 0 0-.5 0-.9-.1-1.4-.1-.2-.2.1-.3-.1V5.3c-.1-.1-.2.2-.3.1V4.1c-.2-.1-.2.2-.3.2-.2-.3-.1-.9-.3-1.4-.2 0-.2.4-.4.4-.3-.4-.3-.9-.5-1.3-.1.5.3 1 .5 1.5 0 .4 0 .7-.2 1-.2-.3-.3-.7-.3-1 0 .4-.1.8 0 1.2.5 2.1 1 4.3 1.5 6.4.6 1.3.8 2.8 1.4 4.2 1.4 3.3 3.3 6.5 4.4 10 .4 1.7 1.1 3.4 1.7 4.9-.4-2.2-.5-4.5-1.1-6.7-.4 0 0-.4-.3-.5 0-.9-.5-1.7-.5-2.6-.3-.3-.1-.9-.5-1.2.2-.2-.2-.4 0-.6-.4-1.4-.7-2.8-1.3-4.1 1.2 4.6 2.3 9.2 3.3 13.9-.7-2-1.3-4.1-1.9-6.1-.8-3.9-1.8-7.7-2.8-11.6-.1-1.1-.6-2.1-.6-3.2 1 3.5 2.8 6.8 3.8 10.3.1 1.3.6 2.5 1 3.8.4 2.4.7 4.9 1.2 7.3.2 1.7-.1 3.4.2 5-.4-1.7-.4-3.5-1.1-5.1-.7-1.8-1.3-3.6-2-5.5-1-2.7-2.5-5.1-3.4-7.8-.7-1.9-1.3-3.8-1.8-5.8-.4-1.7-.7-3.3-1-5H10c-.6-.6-.2-1.5 0-2.2-.5.5-.5 1-.6 1.5-.2 0-.2-.3-.4-.4-.1.4-.1.8 0 1.2-.1.1-.2.1-.3.2 0 .4.2.7.2 1 0 .2-.4.2-.2.4 0 .5.4.8.4 1.3-.1 0-.2-.1-.4-.2-.1.6.5 1 .5 1.5-.1 0-.2 0-.3-.1-.4 0 0 .3 0 .5.2.3.4.7.6 1-.3 0-.3-.5-.6-.2.1.4.4.8.6 1.3-.1-.1-.2.1-.3.2.3.6.8 1.1 1.2 1.6-.3 0-.6-.6-.7-.2.2.5.5 1.1 1 1.5-.2.1-.3-.2-.5 0 .2.7.8 1.2 1.1 1.8 0 .1-.1.1-.1.2.4 1 1.4 2 2.5 2.2.1 0 .2-.2.3 0 .9 1.9 1.9 3.9 2.5 5.9-1.6-3.6-4.9-6.2-6.7-9.7-.3-.4-.4-.9-.7-1.3-.3-1-.7-2-.9-3.1-.2-1.5-.5-2.8-.4-4.2-.1-.1-.1-.2-.2-.2-.4.7-.6 1.5-.7 2.3-.1 1 .1 2.1.3 3.1.4 1.3.8 2.7 1.5 3.8-.1 0-.2.3-.3.1l-.3-.9h-.2c-.1.1 0 .2-.1.3-.1-.6-.4-1.1-.5-1.7-.4.1 0 .6-.3.8-.2-.6-.2-1.3-.6-1.8 0 .1 0 .3-.1.3-.1-.5-.3-.9-.6-1.4-.3-.1-.2.4-.4.2-.1-.4-.3-.8-.6-1.1-.4.5-.2 1.3-.3 1.9-.1-.1-.2-.3-.3-.4 0 .6 0 1.3.3 1.9-.1 0-.3 0-.3.2.1.4.5.9.5 1.3.5.6 1.2.8 1.8 1.2.1.2.3.3.2.5-.2 0-.3-.2-.5-.3-.1.2.3.5.6.6.1.1-.1.1-.1.2-.3 0-.5-.1-.7-.3-.5-.6-1-1.1-1.4-1.7.1.7.8 1.1 1 1.8-.2.2-.4-.1-.5-.1.2.5.5.9.8 1.4-.1 0-.3-.1-.3.1.3.6.8 1.3 1.4 1.6-.1.1-.3-.1-.5-.1-.1.1-.1.1-.1.2.3.4.7.8 1 1.1-.1.1-.1.3.1.4L8.9 23c-.3.1-.5-.2-.7-.3-.7-.5-1.1-1.3-1.8-1.8-.8-.9-1-2.1-1.5-3.2-.4-1-.5-2-.9-3h-.2c-.1.9 0 1.9.2 2.8.3 1.1.7 2.2 1.3 3.2.3.6.8 1.1 1.3 1.8-.1.1-.1.1-.2.1-.4-.5-.6-1.3-1.2-1.6-.1.1 0 .3-.1.3-.1-.5-.2-.9-.4-1.3-.3-.1-.2.3-.4.4-.1-.5-.3-1-.4-1.5-.2 0-.1.2-.2.2-.3-.4-.2-1-.5-1.5-.2-.1-.2.2-.3.3-.2-.4-.2-.8-.4-1.1-.1 0-.2.1-.3.1-.2-.3-.2-.7-.5-1-.2-.1-.1.2-.2.2-.5-.3-.4-.9-.8-1.2-.4.5 0 1.1-.3 1.5-.1 0-.1-.2-.2-.2-.1.1 0 .2 0 .2h.2c.3.4.4.9.8 1.2 0-.2 0-.2.1-.3l.1.4c.2-.5.2-1.1.2-1.6.2.1.2.3.3.5.1.6.3 1.3-.2 1.7-.2-.3.2-.7 0-1.1-.1.2 0 .6-.3.7.7 1.9 1.7 3.6 2.9 5.2.8 1.1 1.9 2.2 2.9 3.1 1 .9 2.3 1.5 3.3 2.4-1.1-.7-2.3-1.2-3.4-2-1.8-1.3-3.1-3.3-4.2-5.1-.5-1.2-1.2-2.4-1.8-3.6 0 .1.1.1 0 .2-.2-.1-.3-.3-.4-.5-.1 0 0 .2-.1.3-.2 0-.2-.2-.4-.4 0-.2-.1-.7-.2-1-.1.4.1.8.2 1.1-.1.1-.1-.1-.2 0 .1.4.2.9.4 1.2-.1 0-.1-.1-.2 0 .1.4.3.7.5 1-.2 0-.2-.1-.4-.1.1.5.5.9.8 1.3-.1.1-.2 0-.3 0-.3.4.3.6.5.9.3.1.6.1.7.3-.1.1-.3 0-.5 0-.1 0-.1.1-.1.2.3.5.8.8 1.2 1-.1.1-.3-.1-.4 0 0 .5.6.8 1 .9-.1.1-.3 0-.4.2-.1.2.2.3.3.5-.7 0-1.4-.1-2.2-.2-.2 0-.4 0-.5.1 0 .2.2.2.3.3 1.3.5 2.7.8 4 1.4 2.4 1 4.4 2.7 6.3 4.4-.3-.2-.8-.6-1.2-.8-.8-.4-1.6-.6-2.3-1-1.1-.2-2.3-.7-3.3-.6-.7-.1-1.5-.4-2.2-.1 1.5.8 3.4 1 5.1 1.8.7.3 1.4.6 2 .9.8.5 1.6.8 2.4 1.4.8.7 1.6 1.4 2.3 2.3.6.8 1.2 1.6 1.5 2.6-1-.3-2.1-.7-3.1-1-1.2-.2-2.7-.5-3.7.2-.9.6-1.6 1.6-1.7 2.7-.4-.1-.5.2-.8.1-1.8-.4-3.6-.4-5.4-.9-.1 0-.2.1-.1.2.8.8 1.9 1.2 2.9 1.5 1 .3 2.3.7 3.6.6.3.8 1 1.8 1.9 2.1 2.5.3 4.5-1.4 6.9-1.7.1 1-.2 2.1-.5 3-.4.9-.6 1.8-1.2 2.6-.4 1-1 1.9-1.6 2.7-1.1 1.3-2.1 2.7-3.5 3.7-.3.2-.4.6-.3 1 .1.1.2.3.4.3.7-.4 1.4-.9 2-1.6 1-1.2 2-2.4 2.8-3.7.7-1.1 1.2-2.3 1.8-3.4-.2.9-.5 1.8-.9 2.7-.5 1.2-1.1 2.3-1.8 3.4-.9 1.4-2.1 2.6-3 3.9-.2.3 0 .6.2.8.3.1.6-.1.9-.3 1.2-1.3 2.2-2.8 3.1-4.4.7-1.4 1.4-2.8 1.9-4.2-.2.9-.2 1.9-.6 2.8-.5 1.1-.9 2.3-1.4 3.4-.5 1.2-1.4 2.2-2 3.3 0 .3-.2.6-.1.9.1.2.3.3.5.3.6-.1.9-.8 1.2-1.3.3-.6.5-1.2.9-1.7.6-1.4 1.1-2.8 1.6-4.3.1-.7.3-1.5.5-2.2l.3.3c-.1 1.3-.9 2.6-.8 4 0 .2.2.4.3.5-.1 2.5-.8 4.8-.9 7.3.3.8 1.4.6 2.1.7.9-.1 1.9-.2 2.8-.2.6 0 1.2.1 1.7.2.8 0 1.2.9 1.6 1.1-.1-1.7-.5-3.3-.5-5.1l.4-.9c.1-2-.9-4-.8-6 .4 1.8 1.3 3.4 2 5.1.6.7.8 1.7 1.7 2.2.2.1.4 0 .6-.1 0-.5.1-1-.2-1.3-1.1-1.3-1.9-2.7-2.5-4.3-.7-1.6-1.2-3.4-1.6-5.1.5 1.4 1.1 2.8 1.8 4.1.8 1.3 1.7 2.6 2.7 3.9.5.4.9 1 1.5 1.3.3 0 .4-.2.4-.5-.2-.5-.3-.9-.7-1.3-.5-.3-.8-.9-1.3-1.2-.6-.7-1.2-1.5-1.7-2.3-.3-.8-1-1.5-1.3-2.3-.4-1-.8-1.9-1.1-2.9.3.3.4.8.6 1.2 1.2 1.9 2.4 3.9 4.1 5.4.5.6 1.1 1.1 1.8 1.3.3-.1.6 0 .7-.4 0-.2-.1-.4-.2-.5-.6-.4-1.3-.9-1.8-1.4-.5-.5-.9-1-1.4-1.5-.7-.9-1.5-1.7-1.9-2.7-.4-.9-1.1-1.5-1.3-2.5-.6-1.2-1-2.5-1.1-3.8.1-.2.3 0 .4-.1 2.2.3 4.1 1.8 6.4 1.4 1.1-.2 1.6-1.2 2-2.1 1.1-.1 2.2-.2 3.2-.4.3-.1.7-.2 1.1-.4.9-.3 1.8-.8 2.4-1.5-.1-.2-.2-.2-.3-.2zM10.7 4.4c-.2.2-.2.5-.4.6.1-.6.2-1.3.5-1.9 0 .5.2.9.1 1.3 0 .4 0 .8-.3 1.1h-.2c.1-.3.3-.7.3-1.1zm.3 1.5c-.2.1-.1.5-.4.5 0-.7.6-1.2.8-1.8.1.8-.2 1.7-.7 2.4 0-.4.3-.7.3-1.1zm-.1 2.2c-.1-.5.5-.9.3-1.3-.2.2-.2.5-.5.6 0-.5.5-1 .6-1.5.2 0 .1-.3.3-.3.1.3 0 .5 0 .8-.1.6-.3 1.2-.6 1.7h-.1zm.6 1.6c-.1-.6.4-1.1.3-1.7-.3.3-.3.7-.6 1-.1-.8.5-1.4.7-2.1.2.1.1.3.2.5.1.8-.2 1.6-.6 2.3zm.2 1.3c.2-.4.5-.9.4-1.3-.2.3-.2.7-.5.8-.1-.9.6-1.5.8-2.3l.1.2c.1.8-.1 1.5-.4 2.2-.1.1-.2.5-.4.4zm.5 1.6c.3-.3.3-.8.5-1.2l-.1-.1c-.2.2-.2.6-.5.7-.1-.1 0-.3 0-.4.4-.6.6-1.4 1-2.1.1.5 0 1.1-.1 1.6s-.3 1-.5 1.4c-.1.2-.3.2-.3.1zm.1.3c0-.1.2-.2.2-.1-.1.2-.2.3-.2.1zm.2.7c-.1-.1-.1-.3-.1-.4.2-.5.8-.8 1-1.4.1 0 0 .1.1.2 0 .5-.2 1-.2 1.5 0 .3-.4.5-.6.5.2-.3.4-.6.4-1-.2 0-.2.5-.6.6zm.4.9c-.1 0-.2-.3 0-.2 0 .1.1.2 0 .2zm.5 1.4c0-.1-.1-.2 0-.3.1 0 .1 0 .1.1-.1 0 0 .2-.1.2zm.5 1.2c-.1-.1 0-.1.1-.2 0 .1 0 .2-.1.2zm1.7 1.8c.4 1.1.4 2.2.8 3.2-.5-1.3-1.3-2.5-1.9-3.9.5-.1.5-.6.6-1 .3.5.4 1.1.5 1.7zm-.7-1.7c-.2.3-.1.7-.5.7 0-.4.4-.7.3-1.1-.3.2-.2.5-.5.7-.1-.1 0-.3 0-.4.2-.4.5-.8.7-1.2.2.4 0 .9 0 1.3zm-.2-2.1c0 .2.3.4 0 .5 0 .1 0 .2-.1.3 0-.2.1-.5.1-.8zm-.2-.5c-.1.6-.1 1.3-.2 1.9l-.3.2c0-.4.3-.7.2-1.1-.3.1-.2.6-.5.9-.3-.9.5-1.5.7-2.2.1-.1 0 .2.1.3zm-.2-1.3c.1.2.1.4.1.7 0 .1-.1 0-.1 0v-.7zm-.8 2c-.1 0-.1 0-.1-.1.1-.3.3-.5.3-.8l-.1-.1c-.1.3-.3.6-.5.8-.3-.9.7-1.4 1-2.2.1.8-.2 1.6-.6 2.4zm-.3-8.6c0-.8-.3-1.6-.2-2.4-.1-1.1.1-2.3.4-3.4.1 3.1.4 6.4 1.2 9.3.2.8.4 1.5.7 2.2-.9-1.8-1.4-3.8-2.1-5.7zm5.1 5.6s0 .1 0 0c0 .1 0 .1 0 0zm-.1-1.2c-.1.1-.1 0-.1 0 0-.1.2-.1.1 0zm-1.5-6.7c.5.6.9 1.1 1.4 1.6v.3c-.4-.2-.6-.8-.9-.9.2.5.4.9.8 1.3-.1.1-.2 0-.2 0-.5-.6-.9-1.5-1.1-2.3zm-.3 1.2c.4.4.9.9 1.3 1.2.1.2.3.4.4.7-.3-.2-.5-.5-.8-.7-.2.1 0 .2 0 .3l.9 1c0 .1 0 .1-.1.2-.4-.1-.6-.5-.9-.8-.4-.6-.7-1.3-.8-1.9zm-.2 1.2l.9.9c.4.4.9.8 1.1 1.3-.5-.1-.7-.8-1.1-.9.1.6.7 1 1.1 1.4 0 .1 0 .2-.1.2-.4-.1-.7-.5-.9-.9-.4-.6-.7-1.3-1-2zm.2 2.2c-.1-.4-.4-.7-.4-1.1.6.5 1.1 1.2 1.6 1.8.2.1.5.3.5.5-.4-.2-.7-.5-1-.8-.1.1 0 .2 0 .3l.9.9c0 .1-.1.1-.2.1-.5-.4-1.1-.9-1.4-1.7zm-.3.6c.7.8 1.6 1.2 2.2 2-.4-.2-.7-.4-1-.7-.1 0-.2.1-.1.2.3.3.8.6 1.1 1-.1.1-.2.1-.3.1-.9-.6-1.7-1.5-1.9-2.6zm-.3 1.1c.3-.1.3.3.5.4.2.3.4.5.6.7.4.2.8.5 1.2.8.1.1.3.3.2.5-.3-.2-.6-.5-.9-.7-.1 0-.1.1-.1.2l1 1c-.6-.1-1-.7-1.4-1.1-.4-.5-.8-1.1-1.1-1.8zm.6 2.5c0-.2-.4-.4-.2-.5.5.5 1.1.8 1.6 1.2.3 0 .5.3.6.5-.3-.1-.6-.2-.8-.4-.1 0-.1.1-.1.2.2.3.6.4.9.6.1.1 0 .2-.1.2-.1.1-.2-.2-.3-.1-.6-.6-1.3-1.1-1.6-1.7zm-.2.9c0-.1.1-.2.2-.1l.6.6c.4.2.7.6 1.1.6.1.1.3.2.2.4-.4 0-.8-.3-1.1-.6-.1 0-.1 0-.1.1.4.4.8.7 1.3.9 0 .1-.1.1-.2.2-.2 0-.4-.1-.5-.2-.5-.6-1.1-1.2-1.5-1.9zm2.3 9c-.2-1-.5-2.1-.6-3-.3-1.4-.9-2.8-1.4-4.2.1.2.2.4.3.7.3.4.6.9 1.1 1.1.1.3.5.1.6.3-.1 1.6.1 3.4 0 5.1zm.1-6.2c-.6 0-1-.7-1.4-.7.3.5.7 1 1.3 1.1 0 .1.1.2 0 .3-.3.1-.4-.2-.6-.3-.7-.5-1.1-1.3-1.4-2.1.6.4 1.1 1.2 1.9 1.3.2 0 .2.2.2.4zm-5.4.2c-.1.1-.1.1-.1 0s.1-.1.1 0zm-.6-1.5c-.1 0-.3-.1-.3-.2.2-.2.4 0 .3.2zm-.5-1.6c-.1 0-.3-.1-.3-.2.1 0 .1-.1.2-.1 0 .1 0 .2.1.3zm-.6-1.7c.1.1 0 .1 0 0 0 .1-.1 0 0 0zm-.4-1.3c0 .1.1.2.1.3-.1 0-.2 0-.2-.1l.1-.2zm-.2-1.1c-.1.1-.1 0-.2 0 0-.1.2-.2.2 0zm-.3-1.4V8.8c-.1 0-.1-.1-.2-.1.1-.1.1-.2.2-.2zm-.2-1c-.1.1-.3-.1-.2-.2.1 0 .1.1.2.2zM9.1 3.9c.2.1.2.4.3.5.2.4.6.6.6 1-.2 0-.3-.3-.5-.4-.1.6.6.6.6 1-.3 0-.4-.3-.7-.4-.2-.5-.4-1.1-.3-1.7zm-.2 1.2c.3.7 1.2 1 1.3 1.7-.3 0-.4-.3-.6-.5 0 .4.3.5.5.8-.2.1-.4-.2-.6-.4-.4-.4-.6-1-.6-1.6zm0 1.2c.5.7 1.3 1 1.6 1.7-.3 0-.5-.4-.8-.5.1.5.7.7.6 1C9.5 8 9 7.2 8.9 6.3zM9 7.8c.6.5 1.3.8 1.8 1.5 0 .1 0 .1-.1.1-.4-.1-.6-.5-.9-.7.1.4.5.7.8 1-.1.1-.2 0-.3 0-.8-.4-1.1-1.2-1.3-1.9zm.4 2.1L9 9.2c.4.1.8.6 1.3.7.2.2.6.3.6.7-.3.1-.5-.3-.8-.3.2.3.5.4.8.6 0 .1-.1.1-.2.2-.5-.2-.9-.8-1.3-1.2zm-.3.3c.6.6 1.4 1 2.1 1.3.1.1.2.2.2.3-.3 0-.5-.3-.8-.3 0 .3.5.5.7.7-.4.2-.7-.1-1-.4-.6-.3-1.1-.9-1.2-1.6zm1.2 2.7c-.3-.4-.7-.8-.8-1.2.7.6 1.5.8 2.2 1.3 0 .1.1.1 0 .2-.3.2-.4-.3-.7-.2.1.2.4.3.7.4-.5.3-1-.1-1.4-.5zm.1 1.2c-.2-.2-.3-.5-.4-.8.6.4 1.3.6 1.9 1 .1.2.5.3.4.5-.3-.1-.7-.2-1-.5.1.4.6.6 1 .7 0 .1-.1.1-.2.1-.2-.1-.5-.1-.7-.2-.4-.2-.6-.7-1-.8zm0 .6c.6.3 1.2.6 1.7 1 .3.1.7.3.8.5-.4.2-.7-.5-1.1-.3.3.3.7.7 1.1.8 0 .1 0 .2-.1.1-.4-.3-.7-.2-1.1-.5-.5-.4-1-.9-1.3-1.6zm2.7 3.6c-.3-.2-.7-.4-.9-.7-.3-.3-.7-.6-.7-1 .7.3 1.4.7 2 1.2-.5.1-.8-.5-1.2-.4.3.4.8.6 1.3.9-.1.2-.3 0-.5 0zM1.3 17c-.3-.1-.2-.6-.5-.9 0 .3.1.7.1 1.1-.2-.1-.2-.4-.4-.5-.1-.5-.2-1.1 0-1.7.2 0 .2.2.3.4.4.5.7 1.1.5 1.6zm1 2.3c-.1-.4.1-.7 0-1.1-.2.2 0 .6-.3.8-.4-.7.4-1.3.3-1.9.2.2.2.5.2.8.2.1 0 .3.1.4 0 .3 0 .8-.3 1zm.6 1.3c0-.4.2-.8.1-1.2-.3.2 0 .6-.3.8-.2-.8.1-1.5.3-2.2.3.5.3 1.2.3 1.8-.2.2 0 .8-.4.8zm.7 1c-.1 0-.1-.1-.1-.2.2-.3.2-.9.1-1.1-.1.3-.1.6-.3.9-.1 0-.1-.1-.2-.2.2-.6.6-1.1.5-1.8.3-.1.1.3.3.4.1.5.3 1.1 0 1.5 0 .2-.1.4-.3.5zm1.1 1.1l-.2.2c0-.5.2-1 0-1.4-.1.3-.1.7-.3.9-.4-.8.5-1.4.4-2.2.2.8.3 1.7.1 2.5zm.5 1.2c-.1-.4.2-.9 0-1.1-.1.2-.2.5-.3.7.1-.7.1-1.5.3-2.2.2 0 .1.2.2.3.1.8.2 1.6-.2 2.3zm.9.3c-.1.1 0 .4-.2.4 0-.4.2-1-.1-1.2-.1.3 0 .6-.2.8.2-.7 0-1.5.2-2.3.3.8.4 1.6.3 2.3zm23.8 29c.2 0 .1.2.3.3.1.2-.1.3-.3.3-.2 0-.1-.2-.2-.2 0-.2 0-.3.2-.4zm-5.5-15.8c.7-.2 1.2-.8 1.9-.8.8-.1 1.6-.3 2.3-.3.5-.2 1 .3 1.5.6-.5-.1-1.1-.1-1.5.1-2 .5-3.9 1.7-5.9 2.1l-1 .1v-.3c1.3-.2 2.5-.8 3.6-1.3-1.2.2-2.4.7-3.7.8 0-.1-.1-.2 0-.3.9 0 1.9-.3 2.8-.7zm5.5 2.1c-1.8 0-3.7-.2-5.5-.4.5-.3 1.1 0 1.6-.2 1.2.2 2.5.2 3.7.3.3 0 .2.1.2.3zm-5.6.3c-.5-.1-1-.3-1.6-.3.3-.3.6.2.8-.1.8.2 1.6.1 2.5.3.4-.3.7.2 1.1 0 0 .1 0 .2.1.2.8-.3 1.8.1 2.7-.1-.1.1 0 .3-.2.4-1.8 0-3.6-.1-5.4-.4zm5.3.7c-.1.3-.4.5-.6.8-.1 0-.4.1-.6 0-1-.3-2-.7-2.9-1.1.4 0 .7.1 1.1.1 1 .2 2 .2 3 .2zm.3-1.6c-1.3.1-2.7-.4-4.1-.4.9-.4 1.7-.8 2.6-1.2.3 0 .5-.2.8 0l.5.6c.1.3.2.7.2 1zm-1-8.9c.8-.4 1.6-.6 2.3-1 .6-.2 1.3-.3 1.8-.5.9-.1 1.9-.4 2.6-.2-1 .2-2.3.5-3.4.9-.3.2-.4.2-.8.3-.3 0-.6.3-.8.3-.6.4-1.3.4-1.9.9-1.8 1-3.5 2.3-4.8 4.1-.6.9-1.1 1.8-1.5 2.8h-.2c.6-.2 0-.9.6-1.1 0-.1 0-.2-.1-.2.5-.6.7-1.4 1.1-1.9.5-.5.9-1.3 1.4-1.7 1.1-1.2 2.5-1.9 3.7-2.7zm8.2-5.4c-1.9.7-4 1.2-5.6 2.4-1.1.5-1.9 1.4-2.9 2-.3.4-.7.6-1.1 1-1.9 1.8-3.6 3.8-4.8 5.9-.3.6-.5 1.3-.9 1.9h-.2c.4-.3.3-.9.5-1.3.1-.2.3-.2.4-.4 0-.1 0-.1-.1-.2.3-1.2 1.4-2.1 2-3.2.6-.7 1.3-1.4 1.8-2.2.5-.6 1.2-1 1.7-1.5h-.2l-1.8 1.5c-.8.7-1.5 1.5-2.2 2.4-1 1.5-2 3-2.7 4.7-.1 0-.2-.1-.2-.2l.3-.3c0-.1-.1-.2 0-.4.1 0 .3-.1.3-.2s-.1-.3 0-.4c.5-.1 0-.8.5-.8 0-.2.1-.4.1-.6.1-.1.3 0 .3-.2 0-.1-.1-.2 0-.3.1-.1.2 0 .3-.2.1-.1-.1-.2 0-.3.4-.4.7-1 1-1.4.7-.7 1.3-1.5 2-2.1 1-1.1 2.4-1.7 3.5-2.6 1-.5 1.9-1.1 2.9-1.5.7-.2 1.4-.5 2-.7 1-.6 2-.8 3.1-.8zM17.8 41.8c-.1 0-.1-.1 0-.2v.2zm0 .6c-.3.8-.1 1.9-.4 2.8-.1.7-.3 1.3-.5 1.9.2-1.7.7-3.3.8-5 0 0 .2.1.1.3zM18 44c0-.8.2-1.5.2-2.3.1.1.4 0 .4.2-.1.9-.1 1.8.2 2.7.2-.8.1-1.7.3-2.5 0-.1.1-.2.2-.2.2 1 .2 2 .4 3 .3-1.1 0-2.3.4-3.2.2 1.1.2 2.5.5 3.4-.1-.2.2-.6 0-.9 0-.9-.1-1.8-.1-2.7.2-.3.1.1.2.2 0 1.5.4 2.7.3 4.3-.5-.1-1-.1-1.6-.1-.3 0-.6.1-.9.1-.4.2-.9.2-1.3.6.4-.9.6-1.8.8-2.6zm1.9-2.9c-.2 0-.4-.1-.6-.1.5-.2 1-.6 1.3-1.1.2-.5.2-1 0-1.5 0-.2-.1-.5-.3-.5-.1-.2-.4-.4-.7-.5.1-.2.3 0 .5 0 .3.2.6.5.7.8h.1c-.2-.3-.2-.6-.5-.8.2 0 .4.2.6.4.3.4.4 1.1.4 1.6-.1.3-.1.6-.3.9-.3.4-.7.8-1.2.8zm.4-2.6c-.7.3-1.5.3-2.2.2 0-.1 0-.2.1-.2.7 0 1.5-.1 2.1 0zm-2.1-.3c0-.1.2-.2.2-.1s-.1.1-.2.1zm.6 0c-.2-.1 0-.3-.2-.4 0-.1.1-.1.2-.1.1.2.2.4 0 .5zm.6-.4c.1 0 .2 0 .3.2 0 .1 0 .3-.2.2-.1-.1-.1-.3-.1-.4zm-1.3 1.3c.8.1 1.7-.1 2.4 0-.7.3-1.6.3-2.4.2-.1 0-.1-.1 0-.2zm0 .7c.7 0 1.5-.2 2.2.1-.6.2-1.3.1-1.9.2-.1.1 0 .1 0 .2H20c-.2.4-.8.2-1.2.4-.3 0-.5-.1-.6-.4 0-.2-.1-.3-.1-.5zm5.2-8.8c1-1.2 2-2.5 3-3.7 1.7-1.5 3.1-3.2 4.6-4.9l-.3 1c-.1 0-.1-.1-.2 0-.4.5-.5 1.2-.6 1.8-.1.3.1.5.4.7-1.5 1.3-3.2 2.4-4.6 3.7-.6.4-.9 1.1-1.5 1.5-1 1.2-1.9 2.5-2.7 3.9-.4.6-.6 1.3-.9 2-.1 0-.1 0-.2-.1.5-1.1.7-2.4 1.3-3.3.6-.6.8-1.6 1.3-2.1.1 0 .2-.1.3-.1 0-.1 0-.2.1-.4zm6.9-4.5c-.7.4-1.3.7-2 1.1.7-.7 1.7-1.1 2.3-1.8.6-.5 1.2-1.1 1.7-1.7.5-.6 1-1.2 1.3-1.8.8-1.2 1.4-2.5 2.1-3.8.1-.5.3-.9.5-1.3-.1.6-.4 1.2-.6 1.8-.6 1.1-1 2.2-1.7 3.2-.8 1.7-2.1 3.1-3.6 4.3zm3.4-3.3s-.1 0 0 0c0-.1 0 0 0 0zM32 25.5c-.1.1-.3.1-.4.2.1-.1.3-.4.4-.2zm-1.7 0c-.1 0-.2-.1-.2-.2.1-.6.2-1.2.5-1.6 0 .6.2 1.3 0 1.8-.1-.2 0-.6-.2-.8-.2.2-.1.6-.1.8zm1.1-3.3h-.2l.3-.4c0 .1-.1.3-.1.4zm-.2.2c.1.7-.1 1.5.2 2.1 0 .1 0 .2-.1.3-.2-.3-.2-.8-.3-1.1-.2.4 0 .9 0 1.4-.5-.5-.2-1.4-.1-2.1.2-.2.2-.4.3-.6zm2.9 2.4c-.5.3-1.1.5-1.6.5.4-.2.8-.3 1.1-.6 0-.1 0-.1-.1-.1-.4.2-.8.3-1.3.4.6-.8 1.6-.5 2.4-.8 0 .3-.3.5-.5.6zm1.1-1.7c0 .3-.4.4-.6.6-.4.3-1 .4-1.5.6-.1 0 0-.1-.1-.2.3-.1.6-.2.8-.3-.2-.4-.6.1-.9 0 0-.1 0-.2.1-.2.9-.2 1.6-.2 2.2-.5zm.7-1.2c-.2.5-.7.6-1.1.9-.3.1-.6.3-.9.2.3-.3.9-.2.9-.6-.3 0-.6.2-.9.2.1-.3.4-.3.6-.4.4 0 .9-.1 1.4-.3zm.5-1.3c0 .1-.1.3-.2.4-.5.5-1.1 1-1.8.9.4-.1 1-.3 1-.7-.3.1-.5.3-.8.3.4-.5 1.2-.5 1.8-.9zm-.5-.1c-.3.1-.5.4-.8.3.1-.2.5-.3.7-.6-.2-.1-.4.3-.7.3.4-.5 1.2-.7 1.7-1.2-.1.5-.6.9-.9 1.2zm.4-1c-.3.1-.5.5-.8.4.2-.2.6-.3.7-.6-.2 0-.5.1-.6.3.2-.6.9-.5 1.3-.9-.1.2-.3.5-.6.8zm.9-2.2c-.1.3-.2.6-.4.8-.1.3-.4.4-.7.5.2-.2.6-.4.5-.7-.2.1-.4.3-.7.4.3-.4.8-.8 1.3-1zm-1-.3zm1-1.1c.2.2-.1.4 0 .7-.2.2 0 .5-.3.6-.3-.1.3-.4-.1-.3-.1.2-.2.5-.4.6 0-.6.5-1.1.8-1.6zm-.4-1.6c0 .5 0 .9.1 1.4-.2.3-.1.8-.4.9.2-.4.3-.9.2-1.2-.1.4-.2.8-.5 1.1-.6-.8.5-1.4.6-2.2zm-1.4 2.3c.3-.3.2-.8.4-1.1.1.4.1 1 .3 1.4 0 .1 0 .3-.1.3-.1-.2-.1-.5-.2-.8-.2.4.1.9.1 1.2-.4-.1-.5-.5-.5-1zm-.3-.2c.1.4.2.9.4 1.3 0 .2.2.6-.1.7-.1-.2-.1-.5-.2-.7-.1.3 0 .8 0 1.1-.1 0-.2-.1-.2-.2 0-.7-.3-1.6.1-2.2zm-.7 1c.1.7.5 1.4.5 2.2l-.1.2c-.3-.2-.1-.7-.4-.8-.1.4.2.8.2 1.2-.1.1-.2 0-.2-.1-.1-.9-.3-1.9 0-2.7zm-.6 1.5c.1.6.4 1.1.6 1.6l-.1.3c-.2-.2-.2-.6-.4-.9-.2.3 0 .8.1 1.2-.2 0-.2-.2-.3-.3-.2-.6-.1-1.3.1-1.9zm-.8.9c.1.5.2 1 .5 1.5 0 .3.1.5-.1.8-.2-.3-.1-.7-.3-1-.2.4 0 .9.1 1.3-.4 0-.3-.6-.4-.9.1-.5-.1-1.2.2-1.7zm-.9 1.5c0-.2.1-.3.2-.5l.1.1c0 .7.5 1.4.3 2.2-.1-.2-.2-.5-.2-.8-.1-.1-.2 0-.2 0 0 .4.2.8.1 1.1-.5-.5-.2-1.4-.3-2.1zm-.3.3c0 .8.3 1.6.4 2.5-.4-.2-.2-.8-.5-.9-.2.4.1.8.2 1.1 0 .2-.2.2-.3 0-.2-.9-.1-1.9.2-2.7zm.4-2.5c.5-1.5 1-3 1.2-4.6l.1.1c0 .8-.1 1.6-.2 2.3-.1.9-.7 1.7-.9 2.6-.6 1.2-1.3 2.4-2.2 3.4.8-1.2 1.6-2.4 2-3.8zm-1.5 2.6c.1.2-.2.2-.1.4-.5.7-1 1.4-1.5 2-1.3 1.3-2.5 2.8-3.9 4.1-1.7 1.8-3.2 3.7-4.3 5.8-.4.9-.7 1.9-1.1 2.7.1-.5.5-1.1.3-1.6.1-.1.2-.1.3-.2.1-.2-.3-.2-.1-.4.1 0 .3-.2.3-.3 0-.1-.1-.3-.1-.4.5-.8 1.2-1.9 1.7-2.9.9-1.4 2.3-2.7 3.3-4-.9.9-1.7 1.8-2.7 2.6-.9 1.1-1.7 2.2-2.2 3.4-.1-.5.5-.8.5-1.2.3-.9 1.1-1.5 1.5-2.3 1.4-1.6 2.7-3.2 4.3-4.6 1.3-.9 2.6-2 3.8-3.1zm-8.8 8.1c0-.2.3-.5.5-.7-.2.3-.4.5-.5.7zm5.5-6.1c-.3.1-.7.2-1 .1 0-.2.2-.2.3-.2.6-.2 1.3-.3 1.9-.4-.4.5-1 .8-1.5 1.2-.3 0-.6.3-.8-.1.4 0 .7-.1 1.1-.3.1-.2.1-.3 0-.3zm-.3-.8s0 .1 0 0c.1.2 0 .1-.1.2-.1-.1 0-.1.1-.2zm-.4 1.8c-1 .9-2 1.8-2.9 2.8-.4.6-.9 1.1-1.4 1.6.4-1.1 1.3-1.9 2-2.9.5-.6 1.1-1.2 1.6-1.8.1 0 .2.2.2.3.2-.1.4.1.5 0zm1.5-1.9c-.2 0-.4.3-.7.1.2-.3.8-.3 1-.7-.4-.1-.7.3-1.1.3 0-.1.2-.3.3-.3.8-.2 1.6-.5 2.4-.9-.5.7-1.3 1.1-1.9 1.5zm-.3-1c0-.1.1-.2.1-.1s-.1.1-.1.1zm3-1.8c-.6.9-1.6 1.4-2.6 1.7 0-.1-.1-.1-.1-.2.4-.2.9-.4 1.3-.7-.3 0-.7.2-1.1.3-.2-.2.2-.3.3-.4.7-.2 1.5-.4 2.2-.7zm-2.2.4c0-.1.2-.4.3-.1 0 .1-.2.1-.3.1zm3-2.1c-.1.2-.2.5-.4.7-.6.5-1.2 1.1-2 1.3l-.1-.1 1-.5c0-.1 0-.2-.1-.2-.3.1-.6.3-.9.4.6-1 1.7-1 2.5-1.6zm-2.1.7l.1-.3c.1 0 .1.1.2.2 0 .1-.2.1-.3.1zm2.4-2.1c-.2.8-1 1.4-1.7 1.8-.2.1-.2-.1-.4-.2.3-.2.7-.4 1.1-.6 0-.1 0-.1-.1-.2-.3.2-.6.3-1 .4 0-.6.7-.6 1-.8.5 0 .8-.2 1.1-.4zm-1.5.3l.1.1c-.1.1-.1.1-.2.1s0-.1.1-.2zm1.8-1.5c-.3.4-.7.7-1 1.1-.2.1-.3.4-.6.3 0-.4.6-.5.5-.8-.2 0-.3.3-.5.3 0-.2.1-.4.2-.5.6-.5 1.3-.7 1.7-1.3.1.3-.2.5-.3.9zm.7-2.3c-.1.3-.1.7-.2.9-.5.3-.8 1.2-1.5 1.1.1-.2.6-.4.7-.7-.2 0-.4.2-.6.3 0-.6.8-.6.9-1.2.3 0 .5-.3.7-.4zm-1.2.7c0 .1 0 .1-.1.2 0-.1-.1-.3.1-.2zm1.3-2.4c0 .8-.3 1.6-.9 2.1-.1 0-.2.1-.3 0 .3-.2.3-.5.4-.7l-.4.4c.2-.7.8-1.2 1.2-1.8zm-2.3.6c.1.6.2 1.1.4 1.6 0 .2-.1.4-.2.5-.1-.2 0-.6-.3-.7 0 .3 0 .7.1 1 0 .1-.1 0-.2 0-.3-.7 0-1.6.2-2.4zm-.8 1c.2.7.3 1.4.5 2 0 .2 0 .4-.2.5-.2-.2-.1-.6-.2-.9-.1 0-.1 0-.2.1 0 .3.1.6.2.9-.1.1-.2.1-.3 0-.3-.7 0-1.7.2-2.6zm.1 3.3c-.1-.1-.1-.2.1-.2 0 0 0 .1-.1.2zm-.8-1.8c0 .8.3 1.4.6 2.1 0 .2-.1.3-.1.4-.2-.2-.1-.6-.3-.8-.1.3 0 .7.1 1-.1 0-.4 0-.4-.2-.2-.7-.2-1.8.1-2.5zm-.5.7c.1.6-.1 1.1.1 1.7.1.3.3.6.4.9 0 .2 0 .4-.1.5-.2-.3-.3-.6-.3-.9-.1-.1-.1 0-.2 0l.2 1.1c-.1 0 0 .2-.1.1-.4-1.1-.4-2.4 0-3.5-.1 0 0 .1 0 .1zm-.8 4.9c-.4-1.1-.3-2.5.1-3.4-.1 1 .4 2 .3 2.9-.2-.3-.1-.7-.3-1-.1 0-.1 0-.2.1 0 .4.3 1.1.1 1.4zm-.8.9c-.2-.3-.2-.7-.2-1.2.1-.7.2-1.4.5-2 .1.4 0 .9 0 1.3 0 .6.3 1 .2 1.5-.1 0-.1.1-.2.1-.2-.3 0-.7-.2-1.1-.4.5.2 1.1-.1 1.4zm-.7 1.2h-.2c-.2-1-.1-2 .2-2.9.1 0 .1 0 .2.1-.1.9.1 1.5.3 2.3 0 .2-.1.3-.2.5-.2-.4-.2-1-.3-1.3-.1.3-.2.8 0 1.3zm-.2.2c.1 0 .1 0 0 0 .1.1 0 .2 0 .2 0-.1-.1-.1 0-.2zm-.7.8c-.1 0-.2 0-.3-.1-.1-.9.1-1.7.4-2.5.1-.1.2-.1.2.1-.1.8 0 1.6 0 2.3-.3-.2-.2-.7-.3-1-.2.2-.1.7 0 1.2zm-.6-.4c-.1.1 0 .2.1.4s.5.1.4.4c-1.4 1.3-2.7 2.8-3.6 4.3.9-2.3 2.3-4.3 3.3-6.5 0 .5-.3 1-.2 1.4zm.8-2.5c0-.2.1-.4.2-.5 0 .1 0 .4-.1.5h-.1zm-.5.4c-.9 1.9-2.2 3.6-3.1 5.5-.6 1.3-1.1 2.8-1.7 4.2l-.6 2.1c0-1.1.6-2.1.7-3.2.1-.1.2-.1.2-.2 0-.2-.2-.3 0-.5.2 0 .2-.2.3-.4 0-.1-.2-.2 0-.3.1-.1.3-.1.3-.3-.1-.1-.2-.2-.1-.3.7-1.5 1.4-3 2.3-4.4 1.2-1.8 2.5-3.6 3.7-5.4-.6 1.1-1.5 2.1-2 3.2zm1.6-1.8s-.1.1-.1 0c-.2-.3.2-.5.3-.8-.1.3-.2.5-.2.8zm.5-1.3c0-.3 0-.7.3-.8.2.2 0 .4 0 .7 0 0-.1.1-.3.1zm.9-2l-.1.8c-.1 0-.1.1-.2 0-.1-.3.2-.5.3-.8zm.3-2.9c.4-1.3.8-2.6.9-4 .1-1-.1-1.9-.1-2.9.2.5.3 1.1.5 1.6.1.5 0 1.1.1 1.6-.1.8-.1 1.6-.4 2.4-.1.6-.6 1.1-.7 1.7-.8 1.2-1.5 2.5-2.5 3.6.9-1.2 1.8-2.5 2.2-4zM25 19.3c1.1-1.4 2.3-2.6 3.2-4.1.5-.8.8-1.6 1.3-2.3-.2.6-.4 1.3-.8 1.8-.8 1.4-1.6 2.8-2.4 4.1-1.2 1.6-2.3 3.2-3.3 4.6-.7 1.4-1.6 2.7-2.1 4.2-.4 1.2-.9 2.5-1 3.8-.2.7-.2 1.4-.2 2.2-.1-.5-.1-1 0-1.6.1-1.1.3-2.1.5-3.2.3-1.1.8-2.4 1.2-3.5.9-2.2 2.2-4.1 3.6-6zm-.4-1.2c-.2.1-.4.2-.6.2l-.1-.1c.4-.2.8-.6 1.2-.9 0-.1-.1-.1-.1-.2-.3.2-.7.4-1 .5.6-.4 1.2-1 1.9-1.3 0 .8-.7 1.3-1.3 1.8zm-.3-1c0-.1 0-.3.1-.1.1 0 0 0-.1.1zm2.7-2.6c-.4.6-.8 1.4-1.4 1.8-.2.4-.6.3-.9.5-.1 0-.1-.1-.1-.2.3-.2.7-.5 1.1-.8 0-.1-.1-.1-.1-.2-.3.1-.5.5-.9.5 0-.4.5-.5.8-.7.5-.3.9-.6 1.5-.9zm-2.2.9l.1-.4.1.1c0 .2-.1.3-.2.3zm2.6-2.4c-.1.1 0 .4-.2.5-.1.3-.4.4-.6.7-.4.3-.9.7-1.3.8.1-.3.7-.5 1-.8 0-.1 0-.2-.1-.2-.3.3-.7.4-1 .6.3-1 1.5-1 2.2-1.6zm-2.1.8l.1-.3.2.1-.3.2zm2.4-2c0 .4-.5.4-.7.9-.4.4-.9.6-1.4.7.4-.1.6-.4.9-.7-.3-.1-.6.5-1 .2.6-.6 1.6-.8 2.2-1.4.1.1-.1.2 0 .3zm.4-1.8c0 .2-.1.4-.2.6-.2.3-.4.6-.6.8-.4.1-.7.7-1.2.6.2-.2.5-.3.7-.6-.3 0-.6.2-.9.2.7-.5 1.6-.9 2.2-1.6zm-2 1.1v-.2c.1 0 .1 0 .1.1.1 0-.1 0-.1.1zm2-2.3V9c-.3.7-.9 1.3-1.5 1.8-.1 0-.2 0-.3-.1.2-.3.6-.3.8-.7-.3 0-.5.4-.8.3-.1-.2.1-.3.2-.4.6-.1 1.1-.7 1.6-1.1zm-1.7.8c.1 0 .1 0 .1.1s-.1.1-.1.1c-.1-.1 0-.1 0-.2zm1.8-2.1c0 .2-.1.3-.1.5-.2.3-.4.7-.7.9-.2.2-.4.5-.7.5.2-.3.6-.6.8-1-.3.1-.6.5-.9.6-.2-.1 0-.2 0-.3.5-.2 1-.7 1.6-1.2zm-1.6.8c.1 0 .1.1.2.1 0 .1-.1.1-.2.2-.1-.1 0-.2 0-.3zM28.2 6c.1.4-.2.8-.4 1.2-.2.3-.4.7-.8.9-.1 0-.2.1-.2 0 .3-.3.5-.6.7-1-.3.2-.5.5-.7.6.2-.6 1-1 1.4-1.7zm-1.3 1.1c0 .1-.1.2-.2.2.1-.1.1-.3.2-.2zm1.2-2.2c0 .5-.1 1-.4 1.4-.1.3-.5.5-.8.6.1-.2.4-.4.5-.7-.2 0-.3.3-.6.4.2-.8 1.2-1 1.3-1.7zm-.2-1.2c.1.5-.1 1.1-.2 1.5-.3.2-.3.5-.7.6-.1-.3.4-.4.5-.7-.2.1-.3.1-.5.3 0-.7.7-1.1.9-1.7zm-1-1.4c.2 0 .1.2.2.2.1.6.5 1.3.1 1.9l-.2.2c-.5 3.5-1.1 7-2.2 10.4-.8 2.2-1.7 4.5-2.5 6.6-.1.1-.2 0-.2.2-.8 2.7-1.9 5.4-2.6 8.1.1-1.4.6-2.8 1-4.2.7-2.6 1.8-5 2.9-7.4.8-2.1 1.5-4.2 2.2-6.3.6-2.6 1.1-5.3 1.6-7.9 0-.2 0-.5-.1-.7 0 .4-.2.7-.2 1.1-.5-.7-.1-1.5 0-2.2zm-3.5 15v.1c-.2-.2-.3-.5-.6-.6 0 .4.4.9.3 1.1-.1-.1-.3-.2-.3-.3-.3-.5-.3-1.2-.2-1.8.4.4.5 1 .8 1.5zm-.8-1.8c0-.1 0-.3.1-.4l.2.7c-.2 0-.1-.3-.3-.3zm.5-1.4c.3.7.7 1.3.8 2.1l-.1.2c-.2-.3-.2-.7-.5-.8-.1.4.1.9.3 1.2-.1 0-.2 0-.2-.1-.1-.4-.2-.9-.4-1.3 0-.5-.1-1 .1-1.3zm-.1-.2v-.3c.1 0 .2.1 0 .3zm.6 3.2c-.1 0-.2-.1-.1-.2.1 0 .2.1.1.2zm-.8 1.2h.2c-.7 1.3-1.1 2.8-1.7 4.1.5-1.6.7-3.3 1-5 .2.2.2.6.5.9zm1.2-2.8c.1 0 .1 0 .2.1 0 .1 0 .2-.1.2l-.1-.3zm.5-1.4c.1 0 .1.1.1.1 0 .1 0 .1-.1.1v-.2zm.5-1.5c.1 0 .1 0 .1.1s0 .1-.1.2c-.1-.1-.1-.2 0-.3zM26.1 3c.2.6.5 1.2.5 1.8-.1-.1-.2-.4-.3-.5-.2.4.2.7.2 1.1-.3.1-.3-.4-.5-.6 0-.5.1-1.2.1-1.8zm-.4 1.5c.3.4.5 1 .8 1.4 0 .1.1.3 0 .4-.3-.1-.2-.6-.5-.5.1.4.3.7.4 1-.2 0-.3-.3-.4-.5-.1-.7-.5-1.2-.3-1.8zm-.2 1c.1.6.7 1.2.7 1.8-.2-.2-.2-.6-.4-.6.1.4.6.8.4 1.2-.3 0-.3-.5-.6-.6-.4-.6-.1-1.3-.3-1.9l.2.1zm-.3 1.2c.2.7.8 1.2.8 2-.3-.2-.3-.7-.6-1-.1.5.2 1.1.4 1.6 0 .1 0 .2-.1.2s-.2-.1-.2-.2c-.4-.8-.5-1.8-.3-2.6zM24.7 8c.3.8.8 1.4.9 2.3-.3-.1-.3-.8-.6-.7.2.4.2.9.5 1.1 0 .1 0 .2-.2.1-.7-.7-.7-1.6-.8-2.6.1-.1.2-.1.2-.2zm-.5 1.5c.2.6.9 1.2 1 1.9.1.1.1.4 0 .5-.4-.1-.2-.6-.6-.7 0 .3.2.8.5 1.1 0 .1 0 .2-.1.2-.3 0-.4-.4-.5-.6-.1-.8-.4-1.6-.3-2.4zm.6 3.9c-.2-.1-.4-.4-.5-.6-.1 0-.1 0-.2.1.1.3.3.6.5.9-.1.1-.3-.1-.4-.1-.5-.5-.4-1.3-.4-2 .3.7 1.4.9 1 1.7zm-.9.3c.3.4.6.8.4 1.2-.2-.2-.3-.5-.5-.8-.1 0-.1.1-.2.1.1.3.3.7.4 1-.4-.2-.4-.7-.5-1-.1-.5-.3-.9-.2-1.4.3.2.3.6.6.9zm-.3-2.5c.1.5-.1 1.2.1 1.7-.1-.1-.2-.4-.3-.6 0-.4.1-.8.2-1.1zM23 8.4c.5-2.5.4-5.1.6-7.6.2.5.2 1.1.4 1.6.1 1 .1 2 0 3 0 1-.4 2-.6 3-.4 1.4-.9 2.9-1.4 4.3.3-1.4.7-2.8 1-4.3zm-1.7 3.2c-.3 1-.9 2.1-1.7 2.7 0 .2-.3.2-.3 0 .4-.3.9-.8.9-1.2-.3.3-.6.6-1 .8.4-.9 1.4-1.5 2.1-2.3zm.1-1.7c0 .2-.1.4-.1.6-.2.2-.2.6-.3.8-.2.4-.4.6-.7 1-.3.3-.6.7-1 .6.3-.4.8-.8 1-1.2-.4.1-.8.7-1.3.9v-.2c.9-.8 1.8-1.5 2.4-2.5zm-1.3-6.6c0 .4-.1.8-.2 1.1-.3.4-.6.8-1 1.1 0 0-.3.1-.2-.1.3-.2.6-.5.7-.9-.3.1-.4.6-.8.6.4-.6 1.1-1.1 1.5-1.8zm-.3-1.1c.1.3-.1.5 0 .7-.2.3-.2.6-.5.9-.1.2-.4.5-.7.5.2-.3.5-.5.7-.9-.3.1-.5.5-.8.6.3-.6.9-1.2 1.3-1.8zm-.8.2c-.2.1-.3.4-.5.4 0-.3.3-.6.4-.9.2-.1.3-.4.6-.6 0 .1.1.3 0 .4-.1.1 0 .3-.1.4-.1.5-.4 1.1-.9 1.3-.1-.4.6-.6.5-1zm-.5 2.1h.2c0 .1-.1.2-.2.2v-.2zm.1 1.4c-.1 0-.1-.1 0-.2h.1c0 .1 0 .2-.1.2zm.1.6v-.3c.5-.6 1.3-1.2 1.8-1.8-.1.9-.6 1.7-1.1 2.4-.2.1-.4.3-.7.1.4-.3.8-.6.9-1.1-.2.3-.6.6-.9.7zm0 1.6c.4-.9 1.2-1.6 1.9-2.4.1.7-.4 1.2-.5 1.8-.2.2-.4.4-.5.7-.2.1-.5.4-.8.2.4-.4 1-.8 1.2-1.3-.4.4-.9.6-1.3 1zm.2 1.5c-.2-.3.2-.5.3-.8l1.6-1.7c.3.2-.2.3 0 .5-.3.6-.5 1.2-.9 1.7-.2.3-.6.7-1 .7.5-.5 1.1-1 1.2-1.7-.3.6-.8.9-1.2 1.3zm.2 1c.8-.7 1.6-1.5 2.2-2.3.1.2-.2.3 0 .5l-.9 1.8c-.3.4-.6.7-1.1.9H19c.5-.5 1.1-1 1.3-1.7-.2 0-.2.3-.4.3 0 .1.1 0 .1 0-.4.3-.7.5-1.1.9 0-.1.1-.3.2-.4zm-.1 1.2h.1c0 .1-.1.1-.1.2v-.2zm.2 1.4c0 .1-.1.1-.1.1-.1-.1-.1-.2.1-.1zm-.1 1.6c0-.1.3-.2.2 0 0 .1-.2.2-.2 0zm.1.8c.5-.9 1.3-1.6 2-2.4v.2c-.3.9-.7 1.7-1.4 2.4-.2 0-.3.2-.5.1.4-.3.7-.7.9-1.1 0-.1-.1-.1-.2-.1-.1.4-.5.7-.8.9zm.2.6c0 .1 0 .1-.1.2 0-.1 0-.2.1-.2zm.2 1.8c.3-.4.8-.7 1-1.2l-.3 1.2c-.3 1.2-.6 2.5-.8 3.8-.1-1.3-.1-2.6-.2-3.9.1 0 .2.1.3.1zm.9-1.5c0 .3-.4.5-.5.7-.2 0-.4.3-.5.2.4-.4.9-.8 1-1.3-.3.3-.6.6-1 .8.5-.6 1-1.3 1.5-2 .1 0 .2 0 .2.1-.3.5-.5 1.1-.7 1.5zm-1.3 10.6c.1-2.2.5-4.4.8-6.6.3-1.8.8-3.5 1.3-5.2.5-1.3.9-2.6 1.5-3.8.3-1.5 1-2.8 1.2-4.3-.4 3.1-1.2 6.1-1.8 9.1-.3 1.6-.5 3.2-.9 4.8-.4 2.4-1.3 4.8-1.8 7.2 1-4.8 1.9-9.7 2.8-14.4-1.3 4.4-2.2 8.8-3.1 13.2zm.2 7c.1.1.2.3.1.4-.3 0-.1-.3-.1-.4zm.3.2c.1-1 .9-1.7.8-2.7.1 0 .2-.1.2-.1-.2-.4.4-.5.2-.9.3-.5.7-1.1.8-1.6 1.4-2.5 3.6-4.4 5.4-6.7.8-1.3 1.7-2.5 2.4-3.9.4-.8.8-1.6 1.2-2.5.3-1 .8-1.9.9-2.9h-.1c0-.1 0-.2-.1-.2-.1.2 0 .6-.1.8-.2-.5-.3-1.2-.1-1.6 0-.4.2-.7.3-1 .1.5 0 1.2 0 1.8.2-.9.3-1.9.8-2.7.1.5.2 1 .2 1.4.1.4-.1.7-.3 1 0-.3.1-.7 0-1-.4 1.4-.9 2.8-1.4 4.2.1.1.3-.2.3.1-.1.1-.2.1-.3.1-.8 2-1.9 3.9-3 5.7-1.4 2.3-3.5 4.1-5.1 6.3-.3.5-.6 1-1 1.6-.6.9-.8 2-1.2 2.9-.5 1.4-.9 3.1-1.2 4.4.2-.9.3-1.7.4-2.5zm.1 2.8c-.2.1-.6.1-.8.2-.4.1-.6.4-.9.6-.6.6-.4 1.5-.3 2.2.3.4.6 1 1.2 1.2.2.1.4.1.7.2-.2.1-.5 0-.8 0-1-.3-1.4-1.3-1.6-2.1-.1.5.1 1.1.3 1.5.2.2.4.3.5.6-.7-.2-1-.9-1.2-1.6 0-.4-.1-.9.1-1.2 0-.4.3-.7.5-1 .8-.6 1.5-.8 2.3-.6zM7.2 10.2c-.1-.7-.1-1.5 0-2.2.1-.5.1-1 .4-1.4-.1.7.1 1.5 0 2.2.2 1.3.4 2.6.9 3.9.2.7.5 1.4.8 2 .4.7.9 1.4 1.4 2.1-.6-.7-1.2-1.5-1.8-2.3-.6-.8-.9-1.6-1.3-2.5-.1-.6-.3-1.2-.4-1.8zm.9 3.5c.1.1.1.2.2.3 1.2 2.4 3.7 4 5 6.3.1.1.2 0 .3.2 1 1.6 2.1 3 2.9 4.7.8 1.9 1.5 3.9 2 5.9.2 1.5.6 3.1.6 4.6-.3-1.5-.5-2.9-.8-4.4-.3-.9-.7-1.8-.9-2.7-.5-1.2-1.1-2.4-1.7-3.6-1.9-3.2-4.6-5.9-6.5-9.1-.4-.7-.7-1.4-1.1-2.2zm8.3 14.1c-.5-.9-1-1.8-1.4-2.7-1.6-2.4-3.1-4.8-4.6-7.2.5.8 1.1 1.5 1.7 2.3.6.6 1.1 1.4 1.6 2 1.1 1.6 2.1 3.2 2.9 5 .8 1.9 1.4 3.8 1.8 5.8-.7-1.7-1.3-3.5-2-5.2zm.3 1.5l-.1-.1s.1 0 .1.1zM12 22.4c-.1.3-.1.6-.2.9-.2-.7.2-1.5-.1-2.2.2-.5.3.2.4.4.2.6.4 1.2.2 2-.1.1-.2.1-.3.2.1-.5.3-1 0-1.3zm-.8.3c0-.5.1-1 0-1.5 0-.1-.1-.1-.2 0 .1.4-.1.8-.2 1.2 0-.9.1-1.8.1-2.7.2-.1.2.2.2.3.2.7.3 1.3.3 2 0 .2 0 .5-.2.7zm.1.3s0-.1 0 0zm-.8-2.7s-.1-.1-.2 0c-.1.3-.1.7-.3 1-.1 0-.2 0-.2-.2.1-.3.1-.7.2-1.1.1-.6 0-1.1 0-1.7.4.5.5 1.2.7 1.9 0 .4 0 .9-.3 1.2 0-.3.2-.7.1-1.1zm-1-1.2c-.3.2 0 .8-.4 1-.1-.9.3-1.9.3-2.9.1 0 .1.1.2.2.3.9.4 1.8.2 2.7-.1.1-.1.3-.2.4-.2-.3.1-.9-.1-1.4zm-.3-2.8c.2.2.3.4.3.7-.1 0-.1.1-.2 0-.1-.2-.3-.5-.1-.7zm.6 1.1c.3-.1.3.4.3.6 0 .1-.1.1-.2.1-.1-.2-.2-.4-.1-.7zm.6 1.1c.2.3.4.5.4.9 0 .1-.1.1-.2.1-.1-.4-.1-.7-.2-1zm1 1.5c.1.2.3.5.4.7-.1 0-.1.1-.2.1 0-.3-.2-.5-.2-.8zm1.3 3.3c0-.6-.2-1.1-.3-1.6.3.3.4.8.7.9 1.3 2.1 2.4 4.3 3.5 6.4-.6-1.3-1.6-2.4-2.5-3.5-.5-.7-1.3-1-1.7-1.7.1 0 .3-.2.3-.5zm-4.2-5.5c.2-.6 0-1.3.1-1.9 0-.1.2-.1.3 0 .2.8.3 1.7.2 2.6-.1.2-.1.5-.3.7-.3-.4.1-1-.1-1.3-.1.3-.2.7-.4 1-.2-.1-.1-.3-.1-.5.2-.2.1-.5.3-.6zM8 15.1c.1.1.1.2.2.3.2.8.2 1.7-.1 2.4-.1 0-.2.1-.3 0 .1-.3.2-.6.1-1-.2.1-.2.5-.3.7-.2-.7.6-1.5.4-2.4zm-.7-1.4c.3.8.5 1.6.3 2.4-.1.1-.1.4-.3.4-.1-.3.1-.7 0-1-.1.3-.2.7-.4.8-.2-.9.3-1.8.4-2.6zm.1 3.1c0 .1-.2.1-.2 0s.2-.1.2 0zm-.9-4.1c.3.7.3 1.3.4 2.1 0 .2-.1.4-.2.5-.1-.3.1-.8 0-1.2-.3.2-.1.6-.3.9-.1-.1-.2-.3-.2-.5.1-.7.2-1.3.3-1.8zm-.9-1.3c.3.4.4.9.6 1.3.1.5 0 1-.2 1.4-.2-.4 0-.9-.2-1.2-.2.2.1.4-.1.6-.1-.7-.2-1.4-.1-2.1zm-1.4.7c.4.7 1.1 1.2 1.3 1.8-.2 0-.3-.3-.5-.4.1.2.2.5.5.7-.3.2-.5 0-.7-.2-.4-.6-.6-1.2-.6-1.9zm.7 3c-.2-.4-.6-.8-.6-1.3.5.4 1 .9 1.5 1.2.1.1.2.3.2.4-.2 0-.4-.2-.6-.3 0 .4.5.4.7.7-.5.2-.8-.4-1.2-.7zm.6-.6c0-.1.2 0 .2.1-.1.1-.1 0-.2-.1zm1.1 1.7c-.1-.1-.4 0-.4-.2.1-.1.2.1.3 0-.6-1.3-1.1-2.7-1.6-4.1 0 .3 0 .7.1 1-.2-.1-.3-.3-.4-.4-.1-.7-.1-1.4.1-2 .3.5.6 1 .8 1.5 0 .2.1.4 0 .6-.1.8.5 1.4.6 2.1.4.9.7 1.8 1.2 2.6 1 2 2.3 3.8 3.6 5.6 1.2 1.1 2.3 2.3 3.5 3.5.6.7 1.1 1.5 1.6 2.3.5.9 1.1 1.9 1.5 2.9.7 1.6 1.3 3.4 1.4 5.1-.2-1.5-.8-2.9-1.2-4.3-.6-.9-1-1.9-1.4-2.9-.5-.7-1-1.5-1.6-2.3-1.4-1.6-3-2.9-4.2-4.6-.8-1-1.5-2.1-2.3-3.2-.5-1-1.2-2.1-1.6-3.2zm4.5 7.5c.1 0 .2.1.1.2-.3.1-.7-.1-1 0 .2.3.7.4 1.1.4v.2c-.5.1-1-.2-1.5-.5-.3-.2-.6-.4-.8-.7.8.2 1.5.2 2.1.4zm-.5-.5c.1 0 .1 0 .1.1-.1 0-.1 0-.1-.1zm1.1 1.3c0 .1.2.1.2.3 1.6 1.5 3 3.2 4.1 5.1-.5-.8-1.3-1.5-1.9-2.3-1-1-2.1-1.9-3.1-2.8.3.1.5-.2.7-.3zM9.8 22s-.1.1-.1 0 0-.1.1 0zm-.9-1.3l-.3-.1c0-.1.1-.1.2-.1 0 0 .1.1.1.2zm-1-1.5h-.3c0-.1 0-.1.1-.2.1 0 .1.1.2.2zm-.8-1.5c0 .1-.2 0-.2 0 0-.2.2-.1.2 0zm-1.7-.4c.6.3 1.2.4 1.8.7.1.1.2.3.2.4-.4 0-.8-.3-1.2-.4.2.5.9.5 1.3.9-.5.4-.9-.3-1.4-.5-.3-.3-.6-.7-.7-1.1zm.4 1.3c.7.2 1.2.8 1.9.9.3 0 .5.2.7.5-.4 0-.7-.4-1.2-.3.2.4.8.4 1.2.7-.5.1-.9-.2-1.4-.4-.5-.4-1-.9-1.2-1.4zm.7 1.6c.7.4 1.5.4 2.3.8.1 0 .3 0 .4.1 0 .1.2.2.1.3-.4 0-.8-.3-1.1-.3.3.4.8.5 1.3.7-.7 0-1.4-.4-2-.7-.4-.3-.9-.5-1-.9zm1 1.4c.6.3 1.4.4 2 .7.3 0 .6.1.7.4-.4.1-.8-.4-1.1-.2.3.2.8.3 1.1.6h-.7c-.6-.4-1.4-.9-2-1.5zm2.1 2.5c1 .7 1.9 1.5 2.9 2.2 1.2 1.7 2.9 3 4 4.7.5.6.7 1.4 1 2.1-.6-1.2-1.4-2.2-2.2-3.3-1.1-.8-1.9-2.1-3.1-2.7 2 2.1 4.1 4.1 5.3 6.8.3.9.7 1.8.8 2.7v0c-.1-.7-.7-1.2-.6-1.9-.6-1.5-1.9-2.6-2.7-4-1.2-1.3-2.3-2.6-3.6-3.7-1.7-1.8-3.8-3.4-4.8-5.6 1 1.2 2 2 3 2.7zm-4.7-4.6c-.5-1.1-.9-2.3-1-3.5-.1-.3 0-.7 0-1l.1.1c.4 2.4 1.3 4.6 2.5 6.6.3.5.7.9.9 1.3-1.1-.9-1.8-2.2-2.5-3.5zm1.8 5.7c.1-.3 0-.7 0-1 0 0-.1-.1-.2 0 0 .3 0 .7-.1 1 .1-.7.1-1.5.1-2.2.2.1.3.4.3.6 0 .5.2 1.2-.1 1.6zm.8.6c-.1-.3 0-.6-.2-.9-.2.2 0 .5-.2.8-.2-.4 0-1.1 0-1.7.4.5.3 1 .5 1.6.1.2-.1.2-.1.2zm.2.3c.5-.2.1-.7.1-1.1l-.4-1.2c-.1-.1-.2-.2-.3 0-.2-.4-.3-.8-.5-1.1l3.5 3.5c1.5 1.5 2.8 3 4.3 4.5 1.1 1.3 2 2.7 2.8 4.1.3.7.6 1.4.8 2.2-.1 0-.1.2-.2.1.1-.7-.7-1.1-.6-1.7-.9-1.5-1.9-2.8-3-4.1-.6-.3-.8-1.1-1.4-1.4-1.8-1.3-3.5-2.5-5.1-3.8zM6 25.9c-.1 0-.2.1-.2 0s.1-.1.2 0zm-1.9-2.3c0 .1-.1.1 0 0zM.2 18.1v-.3c.5.2 1 .5 1.3 1-.2 0-.4-.3-.7-.2.2.2.5.4.7.6-.2.2-.4 0-.5-.1-.3-.3-.5-.7-.8-1zm.4 1c.4.3 1 .4 1.3.9-.2 0-.4-.1-.6-.2 0 .3.5.3.7.6-.3.2-.6-.1-.9-.3-.2-.4-.3-.7-.5-1zm.1.8c.5.4 1.1.6 1.7.9l.2.2c-.3 0-.6-.4-.8-.2.2.2.5.3.7.5-.4.1-.6-.3-1-.4-.3-.3-.7-.6-.8-1zm.7 1.6c-.1-.1-.2-.2-.2-.4.6.4 1.5.3 2 1l-.9-.3c.1.4.6.5 1 .6-.7.3-1.4-.5-1.9-.9zm.3.9c.7.3 1.7 0 2.1.7-.3-.1-.7-.2-1-.2.3.3.6.4 1 .5-.3.2-.7-.1-1-.2-.5-.1-.9-.4-1.1-.8zm.7 1.3c.8.2 1.6 0 2.2.5-.3.1-.6-.3-.9-.1.2.2.5.3.8.4-.3.1-.7-.2-1-.2-.4-.1-.9-.2-1.1-.6zm.7 1c.8.1 1.7 0 2.4.6-.4-.1-1-.2-1.3-.2.3.4.9.3 1.3.6-.8-.3-1.9-.2-2.4-1zm6.8 5.1c-.8-.6-1.5-1.3-2.4-1.7-2.1-1.5-4.7-2.2-6.8-3 1.6 0 3.1.5 4.6.9 2.4 1.1 4.9 2.3 7 4.2 1 .8 2 1.8 2.7 2.8.3.4.7.9 1 1.4.6.9 1 1.9 1.5 2.9 0 .1-.1.2-.2.3 0-.3-.2-.6-.4-.8.1-.1.1-.2.1-.3-.1-.2-.4 0-.4-.3 0-.1.1-.2 0-.3-.2-.1-.3-.2-.4-.3.3-.5-.6-.3-.4-.8-.7-.9-1.5-1.6-2.1-2.6-.6-.5-1.3-1-1.7-1.6-.8-.5-1.5-1.2-2.3-1.4 2.4 1.7 4.6 4.1 6.2 6.6.4.8.8 1.4 1.1 2.2h-.3c-.2-1-.9-1.7-1.3-2.5-.4-.7-1-1.3-1.4-2-1.6-1.3-2.7-2.6-4.1-3.7zm4.8 5.9c-.8-1-1.6-2-2.5-2.9-.9-.4-1.7-1.3-2.7-1.7-1.1-.4-2-1-3.1-1.3-1.3-.4-2.7-.8-4.1-1.1 1 0 1.9.1 2.9.3.7.2 1.6.4 2.2.6.9.3 1.7.7 2.5 1.1.7.5 1.6.9 2.2 1.6 1.7 1.4 3.1 3.3 3.9 5.4-.1.1-.2 0-.3 0-.1-.8-.8-1.3-1-2zm-5.9 1.1c.5 0 .8-.3 1.3-.2 2.4.1 4.4 1.4 6.7 1.7 0 .1 0 .2-.1.2-1.2 0-2.6-.6-3.6-.6 1.2.4 2.3.9 3.6 1.1.1.4-.3.2-.5.3-.8-.1-1.5-.4-2.3-.5-1.5-.4-2.9-1.1-4.4-1.5-.5-.1-1.1 0-1.6.2.1-.5.6-.4.9-.7zm-.3 3.8c-.1-.1-.1-.2-.1-.3 1.7 0 3.4-.3 5.2-.4 0-.1.1-.2.2-.2.6.1 1.1 0 1.8 0-2.2.6-4.7.9-7.1.9zm4.1 0c-1 .5-1.9 1-3.1 1.3-.4 0-.7-.5-.8-.8 1.3-.2 2.7-.2 3.9-.5zm-4.2-1c1.5-.1 2.9-.4 4.4-.5.3.2.6-.1.9.1.1.1.2 0 .2.1-1.8.3-3.7.6-5.6.7.2-.2 0-.3.1-.4zm0-.2c0-.5.2-1 .6-1.4.1-.1.3-.2.4-.3.8.2 1.6.4 2.4.8.3.1.6.1.8.3-1.4.2-2.9.3-4.2.6zm-4.7.1c-1.1.1-2.3.1-3.2-.5 1 .2 2.1.4 3.2.5zm.6.9c-.9-.2-1.9-.4-2.7-.8.7.1 1.3.2 2 .3 1-.1 2.1 0 3.1 0v.2c-.5.1-1.1.2-1.6.1.5.2 1.1.2 1.7.2 0 .1.1.1.1.2-.9 0-1.7-.2-2.6-.2zM7 38.6c.2-.2.2-.6.5-.7.3-.2.7-.4 1.1-.2l-.4.7c0 .5-.4 1-.2 1.5 0 .8.4 1.5.8 2.1-.1.1-.2 0-.2 0-.5-.3-.6-.9-.9-1.3-.1-.5-.2-1.1-.2-1.4-.2.3 0 .8-.1 1.2.1.5.4 1 .7 1.4-.1.1-.2-.1-.3-.2-.3-.3-.5-.7-.7-1-.3-.7-.1-1.4-.1-2.1zm8.8 2.3c-1.4.4-2.8 1-4.2 1.5-.8.2-1.7.5-2.7.3-.4-.2-1-.4-1.1-.8l.7.3c2.1.1 3.6-1.3 5.5-1.7.9-.3 2-.8 2.9-.6-.8.2-1.6.3-2.4.7-.4.2-.8.3-1.1.6 1.2-.3 2.4-.7 3.6-.8 0 .1 0 .1.1.2-.5.1-.9.2-1.3.3zM9.2 54.2c-.1-.1-.4 0-.3-.2 0-.1 0-.3.2-.3.1 0 .2.1.3.2-.1.1-.1.3-.2.3zm6.3-8.7c-.5 1.4-1.3 2.6-2 4-.9 1.1-1.6 2.2-2.5 3.2-.5.3-.8.9-1.4 1.1 0-.1-.2-.3-.3-.4 1.1-1 2-2.3 3.1-3.2-.1-.1.1-.1.1-.2.4-.5.3-.5.6-.8 0-.1.1 0 .1-.1.1-.1 0-.1.1-.1.6-1 1.2-2.1 1.8-3.1.4-1 .8-1.9 1-2.9.2-.6.2-1.2.3-1.8.1 0 .1.2.1.3-.1 1.3-.7 2.7-1 4zm-5 10.8c-.1.1-.3.1-.4 0 0-.2-.1-.3 0-.5.1-.3.5-.1.5.1 0 .1-.1.2-.1.4zm5.1-8.4c-.5 1.2-1 2.4-1.7 3.5-.5 1-1.1 1.8-1.7 2.8-.5.5-.8 1.2-1.4 1.7-.1-.1-.2-.4-.4-.3.8-.8 1.4-1.8 2.1-2.5 0-.1-.1-.1-.1-.2.5-.5.8-1.1 1.2-1.6.1-.6.6-1.2.7-1.6.5-.9 1.1-1.9 1.3-3 .5-1.7.9-3.5 1.1-5.4 0-.1.1 0 .2 0-.2 1.8-.5 3.6-.8 5.3-.2.3-.5.8-.5 1.3zm-3.3 10.3c-.1.1-.1-.1-.2 0-.2-.2 0-.4 0-.7.1-.3.4 0 .4.2s0 .4-.2.5zm4.1-10c-.1.8-.4 1.6-.5 2.2-.3 1.2-.9 2.3-1.2 3.6-.5 1.3-1.3 2.5-1.8 3.8-.1-.2-.2-.6-.5-.7.6-1 1.3-2.1 1.8-3.2.5-.9.6-1.9 1.2-2.7l-.1-.1c.3-.7.6-1.2.7-1.9.5-2.6 1.1-5.3 1.4-7.9h.1c-.2 2.3-.9 4.6-1.1 6.9zm.4 0c.1-.4.1-1 .6-1.3.3-.3.7-.4 1.1-.6.8-.1 1.9-.3 2.7.2-.1.3.1.5.1.8-1.1-.3-2.5-.4-3.6.1-.3.2-.7.4-.9.8zm4.6-3.4c.2.5.1 1.1.2 1.6.2.6.3 1.3.5 1.9-1.3-.3-2.7.3-4-.2-.1-.1-.3-.2-.3-.4l.4-.1c.1.1 0 .5.3.4.1-.2 0-.5.3-.5.1.2 0 .5.2.7.2-.2.1-.7.5-.7.2.2.1.6.4.8 0-.3.1-.5.2-.7.3 0 .2.5.4.7.2-.2.1-.6.4-.6.1.2.3.4.4.5.1-.1.1-.2.1-.3h.2c-.2-1.1-.1-2.1-.2-3.1zm-4 5.4c.1.1 0 .3.1.2.1-.2.1-.7.4-.6.1.1 0 .4.2.4.1-.1.1-.4.4-.3.1 0 0 .3.3.2.1-.3.5-.2.7-.1-.9.3-1.9.4-2.7 1 .2-.4.2-.9.4-1.3.4 0 .1.4.2.5zm.5-.7c-.3 0-.4-.2-.7-.3-.2-.2-.3-.5-.2-.7.4.6 1.1.7 1.7.7.5.1 1.2 0 1.6-.2-.6-.1-1.2 0-1.8 0-.5-.1-1.1-.4-1.2-.9l.1-.1c.3.5.9.8 1.4.7.6-.1 1.2 0 1.9-.1.5 0 1 0 1.5.2.3.2.3.6.3.9-1.5-.2-3 .3-4.6-.2zm-1.7 3.6c0-.4.2-.9.3-1.3.3-.4.6-.4 1-.7.9-.5 2-.7 3-.9.5-.1 1-.2 1.5-.1 0 .1-.2.2-.4.3-.9.3-1.9.3-2.8.7.8-.1 1.7-.1 2.5-.3.4-.1.8-.1 1.2-.5.1.1.1.3.1.4-1.4.7-3 .5-4.5 1.2-.3.2-.8.1-1 .5-.4 0-.6.6-.9.7zm6.3-1.2c.1.7.3 1.3.3 2-.9-.4-1.8-.2-2.7-.5-.9 0-1.7-.4-2.4-.9-.1-.1.1-.2.2-.2.4-.1.2.4.4.5.2-.2.1-.6.4-.7.2.3.1.7.3.9.1-.3.1-.8.3-1.1.2.3.1.8.3 1.1.3-.3 0-1 .5-1.2.1.4.1.9.3 1.1 0-.4.1-.9.2-1.3 0 0 .1 0 .2-.1.1.5 0 1 .3 1.4.1-.5.1-1 .3-1.5.1 0 .2 0 .2-.1.2.5.2 1.1.4 1.6.1-.6-.1-1.3.2-1.7.2-.1.3 0 .3.2s-.2.4 0 .5zm-5.8 2.4c.1 0 .1.1.2.1 0 1.2-.2 2.4-.2 3.5.4-1.1.5-2.2.9-3.3.1 0 .2 0 .2.1-.1 1-.2 1.9-.3 2.9.3-.9.5-1.9.9-2.8l.2.1c-.1.8-.3 1.7-.1 2.4.2-.8.4-1.5.5-2.3.1-.1.2.1.3 0 0 .7-.1 1.3 0 2 .2-.5.5-1.2.6-1.9h.2c.3.7-.3 1.4.1 2 .2-.6.2-1.3.5-1.9.1-.1.1.1.2.1 0 .5 0 1 .1 1.4.2-.4.2-.9.4-1.3h.3c.2.4-.1.8.3 1.1.1-.3.1-.6.2-.9.4-.1.3.4.3.6.3.1.2-.3.4-.4.2.1 0 .3 0 .4-1.7.9-3.7 1.4-5.6 2-.3.3-.8.3-1.1.6 0-1.5.3-3 .5-4.5zm6.5 7.7c-.4-.3-.8-.3-1.2-.5-.7-.2-1.4-.2-2.1-.2-.9.1-1.8.1-2.6.2-.5.1-.8-.1-1.3-.2-.1-.1-.1-.3.1-.4.7.3 1.5.4 2.3.2 1-.2 2-.2 3-.3-.6-.3-1.2 0-1.9-.2-.7.2-1.4.1-2.1.2-.3 0-.6 0-.9-.3 0-.1.1-.2.2-.2.4.2.9.3 1.4.2.4 0 .9-.1 1.3-.1 1.1-.1 2.4-.1 3.5.1.1.1.3.1.3.2 0 .5.1.9 0 1.3zm-3.1-2.1c.2-.2.1-.6.2-.9.1-.1.2-.1.3-.1.1.3.1.7.3 1 .1-.4.1-.7.2-1.1.1-.1.2-.1.3-.1.1.4.1.8.3 1.2.1-.4.1-.8.1-1.2.1-.1.2-.1.3-.1.2.5.2 1 .3 1.5.2-.5.1-1.1.2-1.6.2-.2.2.1.2.2 0 .6.1 1.3.2 1.9-.6-.2-1.3-.3-2-.4-.8 0-1.7.1-2.4.3-.5 0-1 .1-1.4-.1.2 0 .3-.3.5-.2l.2.2c0-.2.1-.4.4-.5l.2.4c.1-.2-.1-.8.4-.7.1.2.1.4.3.5.2-.3 0-.9.5-.9.3.1.1.5.4.7zm2.8-2.3c-.3.3-.8.2-1.1.5-1.5.4-2.8.9-4.3 1.3-.7.3-1.3.6-1.8 1.2 0-.5 0-1.1.5-1.3.2-.2.5-.2.7-.4 2-1.1 4.3-1.3 6.4-2.4-.1.2-.2.4-.4.4-1.2.8-2.7.9-4 1.6 1.5-.4 3.1-.6 4.5-1.4-.2.2-.3.4-.5.5zm.4-2c-1.4-.8-3-.6-4.5-1.1-.8 0-1.5-.5-2.1-.8 0-.2-.1-.4.1-.5.1.2.3.3.4.4.8.3 1.7.7 2.5.6-.6-.1-1.2-.4-1.8-.6-.3-.2-1-.4-.8-.9.3.3.7.5 1.1.8 1.4.5 3 .3 4.5.9.6.1.5.7.6 1.2zm3.4 1.5c.2.1.1.5.2.8-.1.1-.1.1-.2.1-.1-.1-.2-.3-.2-.5s0-.4.2-.4zM23.4 51c.9 2 1.7 4.1 3.2 5.8-.2.2-.4.5-.4.8-1.4-2.1-2.3-4.4-3.2-6.7-.5-3-1.5-6-1.9-9.1 0-.3.1-.4.1-.7.1.4.2.9.2 1.4.5 2.8 1.3 5.7 2 8.5zm5.3 4.4c.1.2.1.4.3.5 0 .1-.1.1-.1.2-.2 0-.3-.1-.4-.2-.1-.1 0-.3 0-.4 0 0 .1-.2.2-.1zm-5.3-7.6c.4 1.2 1.1 2.2 1.6 3.3.9 1.4 2.1 2.8 3.3 4.1-.1.2-.2.3-.2.5-.2 0-.2-.2-.3-.3-1.6-1.9-3.2-4-4.2-6.3-.4-1.6-1.2-3.1-1.6-4.8-.2-1.1-.5-2.2-.5-3.3.1 0 .1.1.1.2.1 1 .2 2 .5 2.9.5 1.3.9 2.5 1.3 3.7zm.2-2.2c.5 1.3 1.4 2.4 2.2 3.6.9 1.2 1.9 2.3 3.1 3.4.1.4 1.1.4.6 1-.2 0-.3-.4-.6-.3-.7-.7-1.5-1.3-2.1-2-1.1-1.2-1.7-2.6-2.6-3.9-.6-1.2-1.3-2.5-1.7-3.8-.3-.7 0-1.4-.3-2 .2-.1-.3-.5.1-.4.1.2 0 .4 0 .5.3 1.4.6 2.7 1.3 3.9zm6.2-3.4c-1.1.4-2.4 0-3.5-.3-1-.3-1.9-.8-3-1-.6-.2-1.3-.3-2-.3 0-.1.1-.2.1-.2.4 0 .8.1 1.3.1.8.2 1.6.5 2.4.5-1.1-.6-2.3-.9-3.5-1 0-.1-.1-.2 0-.2 1.6-.1 2.9.7 4.3 1 1.3.5 2.6 1.2 4.1 1l.6-.3c-.1.3-.5.6-.8.7zm1-1.2c-.1.2-.3.3-.5.4.4-.8.9-1.8.5-2.7-.1.8-.2 1.7-.7 2.4-.2.2-.3.5-.6.5 0-.1.1-.2.2-.4.6-1 .9-2.5.2-3.5l-.4-.5c.3 0 .7-.1 1.1.2.3.1.4.4.6.7.2.9 0 2-.4 2.9zm.7-1c0-.1 0-.3.1-.2.5 0 1-.1 1.5-.1.1 0 0-.1 0-.2h-1.5v-.3c1.7 0 3.5.1 5.1-.3-1.6.8-3.4 1.1-5.2 1.1zm5.7-1.4c-.8.2-1.7.4-2.6.3 1-.2 2.1-.3 3.1-.7 0 .3-.4.2-.5.4z"/></svg>